%TF.GenerationSoftware,KiCad,Pcbnew,(6.0.7)*%
%TF.CreationDate,2022-11-10T23:08:22-08:00*%
%TF.ProjectId,memsbreakout_w50,6d656d73-6272-4656-916b-6f75745f7735,0*%
%TF.SameCoordinates,Original*%
%TF.FileFunction,Soldermask,Top*%
%TF.FilePolarity,Negative*%
%FSLAX46Y46*%
G04 Gerber Fmt 4.6, Leading zero omitted, Abs format (unit mm)*
G04 Created by KiCad (PCBNEW (6.0.7)) date 2022-11-10 23:08:22*
%MOMM*%
%LPD*%
G01*
G04 APERTURE LIST*
%ADD10O,1.700000X1.700000*%
%ADD11R,1.700000X1.700000*%
%ADD12R,0.700000X0.700000*%
G04 APERTURE END LIST*
D10*
%TO.C,J8*%
X166370000Y-113416000D03*
X163830000Y-113416000D03*
X166370000Y-110876000D03*
X163830000Y-110876000D03*
X166370000Y-108336000D03*
X163830000Y-108336000D03*
X166370000Y-105796000D03*
X163830000Y-105796000D03*
X166370000Y-103256000D03*
X163830000Y-103256000D03*
X166370000Y-100716000D03*
X163830000Y-100716000D03*
X166370000Y-98176000D03*
X163830000Y-98176000D03*
X166370000Y-95636000D03*
X163830000Y-95636000D03*
X166370000Y-93096000D03*
X163830000Y-93096000D03*
X166370000Y-90556000D03*
D11*
X163830000Y-90556000D03*
%TD*%
D12*
%TO.C,J6*%
X161290000Y-93981000D03*
X161290000Y-94981000D03*
X161290000Y-95981000D03*
X161290000Y-96981000D03*
X161290000Y-97981000D03*
X161290000Y-98981000D03*
X161290000Y-99981000D03*
X161290000Y-100981000D03*
X161290000Y-101981000D03*
X161290000Y-102981000D03*
%TD*%
%TO.C,J7*%
X161290000Y-105156000D03*
X161290000Y-106156000D03*
X161290000Y-107156000D03*
X161290000Y-108156000D03*
X161290000Y-109156000D03*
X161290000Y-110156000D03*
X161290000Y-111156000D03*
X161290000Y-112156000D03*
X161290000Y-113156000D03*
X161290000Y-114156000D03*
%TD*%
D11*
%TO.C,J4*%
X140975000Y-117094000D03*
D10*
X143515000Y-117094000D03*
X146055000Y-117094000D03*
X148595000Y-117094000D03*
X151135000Y-117094000D03*
X153675000Y-117094000D03*
X156215000Y-117094000D03*
X158755000Y-117094000D03*
X161295000Y-117094000D03*
X163835000Y-117094000D03*
%TD*%
D12*
%TO.C,J2*%
X144780000Y-105156000D03*
X144780000Y-106156000D03*
X144780000Y-107156000D03*
X144780000Y-108156000D03*
X144780000Y-109156000D03*
X144780000Y-110156000D03*
X144780000Y-111156000D03*
X144780000Y-112156000D03*
X144780000Y-113156000D03*
X144780000Y-114156000D03*
%TD*%
D11*
%TO.C,J1*%
X138425000Y-90556000D03*
D10*
X140965000Y-90556000D03*
X138425000Y-93096000D03*
X140965000Y-93096000D03*
X138425000Y-95636000D03*
X140965000Y-95636000D03*
X138425000Y-98176000D03*
X140965000Y-98176000D03*
X138425000Y-100716000D03*
X140965000Y-100716000D03*
X138425000Y-103256000D03*
X140965000Y-103256000D03*
X138425000Y-105796000D03*
X140965000Y-105796000D03*
X138425000Y-108336000D03*
X140965000Y-108336000D03*
X138425000Y-110876000D03*
X140965000Y-110876000D03*
X138425000Y-113416000D03*
X140965000Y-113416000D03*
%TD*%
D12*
%TO.C,J3*%
X148908000Y-114300000D03*
X149908000Y-114300000D03*
X150908000Y-114300000D03*
X151908000Y-114300000D03*
X152908000Y-114300000D03*
X153908000Y-114300000D03*
X154908000Y-114300000D03*
X155908000Y-114300000D03*
X156908000Y-114300000D03*
X157908000Y-114300000D03*
%TD*%
%TO.C,J5*%
X144780000Y-93981000D03*
X144780000Y-94981000D03*
X144780000Y-95981000D03*
X144780000Y-96981000D03*
X144780000Y-97981000D03*
X144780000Y-98981000D03*
X144780000Y-99981000D03*
X144780000Y-100981000D03*
X144780000Y-101981000D03*
X144780000Y-102981000D03*
%TD*%
G36*
X159962121Y-81681002D02*
G01*
X160008614Y-81734658D01*
X160020000Y-81787000D01*
X160020000Y-113285000D01*
X159999998Y-113353121D01*
X159946342Y-113399614D01*
X159894000Y-113411000D01*
X146176000Y-113411000D01*
X146107879Y-113390998D01*
X146061386Y-113337342D01*
X146050000Y-113285000D01*
X146050000Y-81787000D01*
X146070002Y-81718879D01*
X146123658Y-81672386D01*
X146176000Y-81661000D01*
X159894000Y-81661000D01*
X159962121Y-81681002D01*
G37*
M02*
