%TF.GenerationSoftware,KiCad,Pcbnew,(6.0.7)*%
%TF.CreationDate,2022-11-10T23:08:22-08:00*%
%TF.ProjectId,memsbreakout_w50,6d656d73-6272-4656-916b-6f75745f7735,0*%
%TF.SameCoordinates,Original*%
%TF.FileFunction,Copper,L2,Bot*%
%TF.FilePolarity,Positive*%
%FSLAX46Y46*%
G04 Gerber Fmt 4.6, Leading zero omitted, Abs format (unit mm)*
G04 Created by KiCad (PCBNEW (6.0.7)) date 2022-11-10 23:08:22*
%MOMM*%
%LPD*%
G01*
G04 APERTURE LIST*
%TA.AperFunction,ComponentPad*%
%ADD10O,1.700000X1.700000*%
%TD*%
%TA.AperFunction,ComponentPad*%
%ADD11R,1.700000X1.700000*%
%TD*%
%TA.AperFunction,ViaPad*%
%ADD12C,0.800000*%
%TD*%
%TA.AperFunction,Conductor*%
%ADD13C,0.250000*%
%TD*%
G04 APERTURE END LIST*
D10*
%TO.P,J8,20,Pin_20*%
%TO.N,R20*%
X166370000Y-113416000D03*
%TO.P,J8,19,Pin_19*%
%TO.N,R19*%
X163830000Y-113416000D03*
%TO.P,J8,18,Pin_18*%
%TO.N,R18*%
X166370000Y-110876000D03*
%TO.P,J8,17,Pin_17*%
%TO.N,R17*%
X163830000Y-110876000D03*
%TO.P,J8,16,Pin_16*%
%TO.N,R16*%
X166370000Y-108336000D03*
%TO.P,J8,15,Pin_15*%
%TO.N,R15*%
X163830000Y-108336000D03*
%TO.P,J8,14,Pin_14*%
%TO.N,R14*%
X166370000Y-105796000D03*
%TO.P,J8,13,Pin_13*%
%TO.N,R13*%
X163830000Y-105796000D03*
%TO.P,J8,12,Pin_12*%
%TO.N,R12*%
X166370000Y-103256000D03*
%TO.P,J8,11,Pin_11*%
%TO.N,R11*%
X163830000Y-103256000D03*
%TO.P,J8,10,Pin_10*%
%TO.N,R10*%
X166370000Y-100716000D03*
%TO.P,J8,9,Pin_9*%
%TO.N,R9*%
X163830000Y-100716000D03*
%TO.P,J8,8,Pin_8*%
%TO.N,R8*%
X166370000Y-98176000D03*
%TO.P,J8,7,Pin_7*%
%TO.N,R7*%
X163830000Y-98176000D03*
%TO.P,J8,6,Pin_6*%
%TO.N,R6*%
X166370000Y-95636000D03*
%TO.P,J8,5,Pin_5*%
%TO.N,R5*%
X163830000Y-95636000D03*
%TO.P,J8,4,Pin_4*%
%TO.N,R4*%
X166370000Y-93096000D03*
%TO.P,J8,3,Pin_3*%
%TO.N,R3*%
X163830000Y-93096000D03*
%TO.P,J8,2,Pin_2*%
%TO.N,R2*%
X166370000Y-90556000D03*
D11*
%TO.P,J8,1,Pin_1*%
%TO.N,R1*%
X163830000Y-90556000D03*
%TD*%
%TO.P,J4,1,Pin_1*%
%TO.N,R1*%
X140975000Y-117094000D03*
D10*
%TO.P,J4,2,Pin_2*%
%TO.N,Net-(J3-Pad2)*%
X143515000Y-117094000D03*
%TO.P,J4,3,Pin_3*%
%TO.N,Net-(J3-Pad3)*%
X146055000Y-117094000D03*
%TO.P,J4,4,Pin_4*%
%TO.N,Net-(J3-Pad4)*%
X148595000Y-117094000D03*
%TO.P,J4,5,Pin_5*%
%TO.N,Net-(J3-Pad5)*%
X151135000Y-117094000D03*
%TO.P,J4,6,Pin_6*%
%TO.N,Net-(J3-Pad6)*%
X153675000Y-117094000D03*
%TO.P,J4,7,Pin_7*%
%TO.N,Net-(J3-Pad7)*%
X156215000Y-117094000D03*
%TO.P,J4,8,Pin_8*%
%TO.N,Net-(J3-Pad8)*%
X158755000Y-117094000D03*
%TO.P,J4,9,Pin_9*%
%TO.N,Net-(J3-Pad9)*%
X161295000Y-117094000D03*
%TO.P,J4,10,Pin_10*%
%TO.N,Net-(J3-Pad10)*%
X163835000Y-117094000D03*
%TD*%
D11*
%TO.P,J1,1,Pin_1*%
%TO.N,R1*%
X138425000Y-90556000D03*
D10*
%TO.P,J1,2,Pin_2*%
%TO.N,L2*%
X140965000Y-90556000D03*
%TO.P,J1,3,Pin_3*%
%TO.N,L3*%
X138425000Y-93096000D03*
%TO.P,J1,4,Pin_4*%
%TO.N,L4*%
X140965000Y-93096000D03*
%TO.P,J1,5,Pin_5*%
%TO.N,L5*%
X138425000Y-95636000D03*
%TO.P,J1,6,Pin_6*%
%TO.N,L6*%
X140965000Y-95636000D03*
%TO.P,J1,7,Pin_7*%
%TO.N,L7*%
X138425000Y-98176000D03*
%TO.P,J1,8,Pin_8*%
%TO.N,L8*%
X140965000Y-98176000D03*
%TO.P,J1,9,Pin_9*%
%TO.N,L9*%
X138425000Y-100716000D03*
%TO.P,J1,10,Pin_10*%
%TO.N,L10*%
X140965000Y-100716000D03*
%TO.P,J1,11,Pin_11*%
%TO.N,L11*%
X138425000Y-103256000D03*
%TO.P,J1,12,Pin_12*%
%TO.N,L12*%
X140965000Y-103256000D03*
%TO.P,J1,13,Pin_13*%
%TO.N,L13*%
X138425000Y-105796000D03*
%TO.P,J1,14,Pin_14*%
%TO.N,L14*%
X140965000Y-105796000D03*
%TO.P,J1,15,Pin_15*%
%TO.N,L15*%
X138425000Y-108336000D03*
%TO.P,J1,16,Pin_16*%
%TO.N,L16*%
X140965000Y-108336000D03*
%TO.P,J1,17,Pin_17*%
%TO.N,L17*%
X138425000Y-110876000D03*
%TO.P,J1,18,Pin_18*%
%TO.N,L18*%
X140965000Y-110876000D03*
%TO.P,J1,19,Pin_19*%
%TO.N,L19*%
X138425000Y-113416000D03*
%TO.P,J1,20,Pin_20*%
%TO.N,L20*%
X140965000Y-113416000D03*
%TD*%
D12*
%TO.N,Net-(J3-Pad10)*%
X159766000Y-114300000D03*
%TO.N,R1*%
X146812000Y-114046000D03*
X161290000Y-92710000D03*
%TO.N,L3*%
X143506051Y-94999949D03*
%TO.N,L5*%
X142871051Y-96904949D03*
%TO.N,L7*%
X143510000Y-100076000D03*
%TO.N,L9*%
X143510000Y-101981000D03*
%TO.N,L11*%
X143699799Y-104966201D03*
%TO.N,L13*%
X143510000Y-107061000D03*
%TO.N,L15*%
X143510000Y-108966000D03*
%TO.N,L17*%
X143510000Y-110880500D03*
%TO.N,L19*%
X143510000Y-112880500D03*
%TO.N,R1*%
X146812000Y-87376000D03*
X146685000Y-112776000D03*
X159385000Y-87376000D03*
%TD*%
D13*
%TO.N,Net-(J3-Pad10)*%
X161041000Y-114300000D02*
X163835000Y-117094000D01*
X159766000Y-114300000D02*
X161041000Y-114300000D01*
%TO.N,R1*%
X144023000Y-114046000D02*
X140975000Y-117094000D01*
X146812000Y-114046000D02*
X144023000Y-114046000D01*
X146812000Y-112903000D02*
X146685000Y-112776000D01*
X146812000Y-114046000D02*
X146812000Y-112903000D01*
X161290000Y-89281000D02*
X159385000Y-87376000D01*
X161290000Y-92710000D02*
X161290000Y-89281000D01*
X163444000Y-90556000D02*
X163830000Y-90556000D01*
X161290000Y-92710000D02*
X163444000Y-90556000D01*
%TO.N,L3*%
X139790000Y-94461000D02*
X138425000Y-93096000D01*
X143506051Y-94999949D02*
X142967102Y-94461000D01*
X142967102Y-94461000D02*
X139790000Y-94461000D01*
%TO.N,L5*%
X139693949Y-96904949D02*
X138425000Y-95636000D01*
X142871051Y-96904949D02*
X139693949Y-96904949D01*
%TO.N,L7*%
X139690000Y-99441000D02*
X138425000Y-98176000D01*
X142875000Y-99441000D02*
X139690000Y-99441000D01*
X143510000Y-100076000D02*
X142875000Y-99441000D01*
%TO.N,L9*%
X139690000Y-101981000D02*
X138425000Y-100716000D01*
X143510000Y-101981000D02*
X139690000Y-101981000D01*
%TO.N,L11*%
X143699799Y-104966201D02*
X143254598Y-104521000D01*
X139690000Y-104521000D02*
X138425000Y-103256000D01*
X143254598Y-104521000D02*
X139690000Y-104521000D01*
%TO.N,L13*%
X139690000Y-107061000D02*
X138425000Y-105796000D01*
X143510000Y-107061000D02*
X139690000Y-107061000D01*
%TO.N,L15*%
X142875000Y-109601000D02*
X139690000Y-109601000D01*
X143510000Y-108966000D02*
X142875000Y-109601000D01*
X139690000Y-109601000D02*
X138425000Y-108336000D01*
%TO.N,L17*%
X139690000Y-112141000D02*
X138425000Y-110876000D01*
X142249500Y-112141000D02*
X139690000Y-112141000D01*
X143510000Y-110880500D02*
X142249500Y-112141000D01*
%TO.N,L19*%
X143510000Y-112880500D02*
X143461201Y-112929299D01*
X139690000Y-114681000D02*
X138425000Y-113416000D01*
X142240000Y-114681000D02*
X139690000Y-114681000D01*
X143461201Y-112929299D02*
X143461201Y-113459799D01*
X143461201Y-113459799D02*
X142240000Y-114681000D01*
%TD*%
%TA.AperFunction,Conductor*%
%TO.N,R1*%
G36*
X166340037Y-81535998D02*
G01*
X166354907Y-81538312D01*
X166354908Y-81538312D01*
X166363777Y-81539692D01*
X166383027Y-81537173D01*
X166405613Y-81536263D01*
X166697221Y-81550718D01*
X166709661Y-81551955D01*
X167027439Y-81599589D01*
X167039695Y-81602054D01*
X167204535Y-81643803D01*
X167351172Y-81680942D01*
X167363123Y-81684609D01*
X167665252Y-81793977D01*
X167676780Y-81798809D01*
X167712383Y-81815857D01*
X167966591Y-81937585D01*
X167977584Y-81943537D01*
X168252217Y-82110349D01*
X168262567Y-82117361D01*
X168499956Y-82296000D01*
X168519304Y-82310560D01*
X168528908Y-82318563D01*
X168765243Y-82536261D01*
X168774007Y-82545177D01*
X168987606Y-82785225D01*
X168995442Y-82794964D01*
X169184199Y-83054996D01*
X169191026Y-83065456D01*
X169353088Y-83342921D01*
X169358850Y-83354016D01*
X169492615Y-83646170D01*
X169497249Y-83657781D01*
X169586698Y-83918835D01*
X169601399Y-83961741D01*
X169604859Y-83973752D01*
X169626178Y-84064456D01*
X169668158Y-84243070D01*
X169671500Y-84271899D01*
X169671500Y-116514376D01*
X169668079Y-116543538D01*
X169602360Y-116819778D01*
X169598782Y-116832027D01*
X169536001Y-117012438D01*
X169494721Y-117070201D01*
X169428766Y-117096476D01*
X169359075Y-117082923D01*
X169307775Y-117033843D01*
X169291000Y-116971027D01*
X169291000Y-115316000D01*
X165735000Y-115316000D01*
X165735000Y-118872000D01*
X167267171Y-118872000D01*
X167335292Y-118892002D01*
X167381785Y-118945658D01*
X167391889Y-119015932D01*
X167362395Y-119080512D01*
X167307294Y-119117441D01*
X167291146Y-119122866D01*
X167278846Y-119126997D01*
X167266571Y-119130439D01*
X166945702Y-119203117D01*
X166933134Y-119205302D01*
X166864904Y-119213628D01*
X166606573Y-119245151D01*
X166593845Y-119246054D01*
X166301710Y-119251930D01*
X166276000Y-119249805D01*
X166273790Y-119249391D01*
X166273782Y-119249391D01*
X166264962Y-119247740D01*
X166223513Y-119251877D01*
X166210999Y-119252500D01*
X138479367Y-119252500D01*
X138459982Y-119251000D01*
X138445149Y-119248690D01*
X138445145Y-119248690D01*
X138436276Y-119247309D01*
X138427374Y-119248473D01*
X138427372Y-119248473D01*
X138423064Y-119249037D01*
X138418280Y-119249662D01*
X138394883Y-119250528D01*
X138138508Y-119236131D01*
X138124476Y-119234550D01*
X137984047Y-119210689D01*
X137843624Y-119186830D01*
X137829849Y-119183686D01*
X137556109Y-119104823D01*
X137542772Y-119100156D01*
X137279582Y-118991139D01*
X137266852Y-118985008D01*
X137017532Y-118847214D01*
X137005568Y-118839697D01*
X136773238Y-118674851D01*
X136762190Y-118666041D01*
X136549776Y-118476215D01*
X136539785Y-118466224D01*
X136530588Y-118455933D01*
X136349958Y-118253808D01*
X136341149Y-118242762D01*
X136176303Y-118010432D01*
X136168786Y-117998468D01*
X136163370Y-117988669D01*
X139617001Y-117988669D01*
X139617371Y-117995490D01*
X139622895Y-118046352D01*
X139626521Y-118061604D01*
X139671676Y-118182054D01*
X139680214Y-118197649D01*
X139756715Y-118299724D01*
X139769276Y-118312285D01*
X139871351Y-118388786D01*
X139886946Y-118397324D01*
X140007394Y-118442478D01*
X140022649Y-118446105D01*
X140073514Y-118451631D01*
X140080328Y-118452000D01*
X140702885Y-118452000D01*
X140718124Y-118447525D01*
X140719329Y-118446135D01*
X140721000Y-118438452D01*
X140721000Y-118433884D01*
X141229000Y-118433884D01*
X141233475Y-118449123D01*
X141234865Y-118450328D01*
X141242548Y-118451999D01*
X141869669Y-118451999D01*
X141876490Y-118451629D01*
X141927352Y-118446105D01*
X141942604Y-118442479D01*
X142063054Y-118397324D01*
X142078649Y-118388786D01*
X142180724Y-118312285D01*
X142193285Y-118299724D01*
X142269786Y-118197649D01*
X142278324Y-118182054D01*
X142319225Y-118072952D01*
X142361867Y-118016188D01*
X142428428Y-117991488D01*
X142497777Y-118006696D01*
X142532444Y-118034684D01*
X142557865Y-118064031D01*
X142557869Y-118064035D01*
X142561250Y-118067938D01*
X142733126Y-118210632D01*
X142926000Y-118323338D01*
X143134692Y-118403030D01*
X143139760Y-118404061D01*
X143139763Y-118404062D01*
X143247017Y-118425883D01*
X143353597Y-118447567D01*
X143358772Y-118447757D01*
X143358774Y-118447757D01*
X143571673Y-118455564D01*
X143571677Y-118455564D01*
X143576837Y-118455753D01*
X143581957Y-118455097D01*
X143581959Y-118455097D01*
X143793288Y-118428025D01*
X143793289Y-118428025D01*
X143798416Y-118427368D01*
X143803366Y-118425883D01*
X144007429Y-118364661D01*
X144007434Y-118364659D01*
X144012384Y-118363174D01*
X144212994Y-118264896D01*
X144394860Y-118135173D01*
X144553096Y-117977489D01*
X144683453Y-117796077D01*
X144684776Y-117797028D01*
X144731645Y-117753857D01*
X144801580Y-117741625D01*
X144867026Y-117769144D01*
X144894875Y-117800994D01*
X144954987Y-117899088D01*
X145101250Y-118067938D01*
X145273126Y-118210632D01*
X145466000Y-118323338D01*
X145674692Y-118403030D01*
X145679760Y-118404061D01*
X145679763Y-118404062D01*
X145787017Y-118425883D01*
X145893597Y-118447567D01*
X145898772Y-118447757D01*
X145898774Y-118447757D01*
X146111673Y-118455564D01*
X146111677Y-118455564D01*
X146116837Y-118455753D01*
X146121957Y-118455097D01*
X146121959Y-118455097D01*
X146333288Y-118428025D01*
X146333289Y-118428025D01*
X146338416Y-118427368D01*
X146343366Y-118425883D01*
X146547429Y-118364661D01*
X146547434Y-118364659D01*
X146552384Y-118363174D01*
X146752994Y-118264896D01*
X146934860Y-118135173D01*
X147093096Y-117977489D01*
X147223453Y-117796077D01*
X147224776Y-117797028D01*
X147271645Y-117753857D01*
X147341580Y-117741625D01*
X147407026Y-117769144D01*
X147434875Y-117800994D01*
X147494987Y-117899088D01*
X147641250Y-118067938D01*
X147813126Y-118210632D01*
X148006000Y-118323338D01*
X148214692Y-118403030D01*
X148219760Y-118404061D01*
X148219763Y-118404062D01*
X148327017Y-118425883D01*
X148433597Y-118447567D01*
X148438772Y-118447757D01*
X148438774Y-118447757D01*
X148651673Y-118455564D01*
X148651677Y-118455564D01*
X148656837Y-118455753D01*
X148661957Y-118455097D01*
X148661959Y-118455097D01*
X148873288Y-118428025D01*
X148873289Y-118428025D01*
X148878416Y-118427368D01*
X148883366Y-118425883D01*
X149087429Y-118364661D01*
X149087434Y-118364659D01*
X149092384Y-118363174D01*
X149292994Y-118264896D01*
X149474860Y-118135173D01*
X149633096Y-117977489D01*
X149763453Y-117796077D01*
X149764776Y-117797028D01*
X149811645Y-117753857D01*
X149881580Y-117741625D01*
X149947026Y-117769144D01*
X149974875Y-117800994D01*
X150034987Y-117899088D01*
X150181250Y-118067938D01*
X150353126Y-118210632D01*
X150546000Y-118323338D01*
X150754692Y-118403030D01*
X150759760Y-118404061D01*
X150759763Y-118404062D01*
X150867017Y-118425883D01*
X150973597Y-118447567D01*
X150978772Y-118447757D01*
X150978774Y-118447757D01*
X151191673Y-118455564D01*
X151191677Y-118455564D01*
X151196837Y-118455753D01*
X151201957Y-118455097D01*
X151201959Y-118455097D01*
X151413288Y-118428025D01*
X151413289Y-118428025D01*
X151418416Y-118427368D01*
X151423366Y-118425883D01*
X151627429Y-118364661D01*
X151627434Y-118364659D01*
X151632384Y-118363174D01*
X151832994Y-118264896D01*
X152014860Y-118135173D01*
X152173096Y-117977489D01*
X152303453Y-117796077D01*
X152304776Y-117797028D01*
X152351645Y-117753857D01*
X152421580Y-117741625D01*
X152487026Y-117769144D01*
X152514875Y-117800994D01*
X152574987Y-117899088D01*
X152721250Y-118067938D01*
X152893126Y-118210632D01*
X153086000Y-118323338D01*
X153294692Y-118403030D01*
X153299760Y-118404061D01*
X153299763Y-118404062D01*
X153407017Y-118425883D01*
X153513597Y-118447567D01*
X153518772Y-118447757D01*
X153518774Y-118447757D01*
X153731673Y-118455564D01*
X153731677Y-118455564D01*
X153736837Y-118455753D01*
X153741957Y-118455097D01*
X153741959Y-118455097D01*
X153953288Y-118428025D01*
X153953289Y-118428025D01*
X153958416Y-118427368D01*
X153963366Y-118425883D01*
X154167429Y-118364661D01*
X154167434Y-118364659D01*
X154172384Y-118363174D01*
X154372994Y-118264896D01*
X154554860Y-118135173D01*
X154713096Y-117977489D01*
X154843453Y-117796077D01*
X154844776Y-117797028D01*
X154891645Y-117753857D01*
X154961580Y-117741625D01*
X155027026Y-117769144D01*
X155054875Y-117800994D01*
X155114987Y-117899088D01*
X155261250Y-118067938D01*
X155433126Y-118210632D01*
X155626000Y-118323338D01*
X155834692Y-118403030D01*
X155839760Y-118404061D01*
X155839763Y-118404062D01*
X155947017Y-118425883D01*
X156053597Y-118447567D01*
X156058772Y-118447757D01*
X156058774Y-118447757D01*
X156271673Y-118455564D01*
X156271677Y-118455564D01*
X156276837Y-118455753D01*
X156281957Y-118455097D01*
X156281959Y-118455097D01*
X156493288Y-118428025D01*
X156493289Y-118428025D01*
X156498416Y-118427368D01*
X156503366Y-118425883D01*
X156707429Y-118364661D01*
X156707434Y-118364659D01*
X156712384Y-118363174D01*
X156912994Y-118264896D01*
X157094860Y-118135173D01*
X157253096Y-117977489D01*
X157383453Y-117796077D01*
X157384776Y-117797028D01*
X157431645Y-117753857D01*
X157501580Y-117741625D01*
X157567026Y-117769144D01*
X157594875Y-117800994D01*
X157654987Y-117899088D01*
X157801250Y-118067938D01*
X157973126Y-118210632D01*
X158166000Y-118323338D01*
X158374692Y-118403030D01*
X158379760Y-118404061D01*
X158379763Y-118404062D01*
X158487017Y-118425883D01*
X158593597Y-118447567D01*
X158598772Y-118447757D01*
X158598774Y-118447757D01*
X158811673Y-118455564D01*
X158811677Y-118455564D01*
X158816837Y-118455753D01*
X158821957Y-118455097D01*
X158821959Y-118455097D01*
X159033288Y-118428025D01*
X159033289Y-118428025D01*
X159038416Y-118427368D01*
X159043366Y-118425883D01*
X159247429Y-118364661D01*
X159247434Y-118364659D01*
X159252384Y-118363174D01*
X159452994Y-118264896D01*
X159634860Y-118135173D01*
X159793096Y-117977489D01*
X159923453Y-117796077D01*
X159924776Y-117797028D01*
X159971645Y-117753857D01*
X160041580Y-117741625D01*
X160107026Y-117769144D01*
X160134875Y-117800994D01*
X160194987Y-117899088D01*
X160341250Y-118067938D01*
X160513126Y-118210632D01*
X160706000Y-118323338D01*
X160914692Y-118403030D01*
X160919760Y-118404061D01*
X160919763Y-118404062D01*
X161027017Y-118425883D01*
X161133597Y-118447567D01*
X161138772Y-118447757D01*
X161138774Y-118447757D01*
X161351673Y-118455564D01*
X161351677Y-118455564D01*
X161356837Y-118455753D01*
X161361957Y-118455097D01*
X161361959Y-118455097D01*
X161573288Y-118428025D01*
X161573289Y-118428025D01*
X161578416Y-118427368D01*
X161583366Y-118425883D01*
X161787429Y-118364661D01*
X161787434Y-118364659D01*
X161792384Y-118363174D01*
X161992994Y-118264896D01*
X162174860Y-118135173D01*
X162333096Y-117977489D01*
X162463453Y-117796077D01*
X162464776Y-117797028D01*
X162511645Y-117753857D01*
X162581580Y-117741625D01*
X162647026Y-117769144D01*
X162674875Y-117800994D01*
X162734987Y-117899088D01*
X162881250Y-118067938D01*
X163053126Y-118210632D01*
X163246000Y-118323338D01*
X163454692Y-118403030D01*
X163459760Y-118404061D01*
X163459763Y-118404062D01*
X163567017Y-118425883D01*
X163673597Y-118447567D01*
X163678772Y-118447757D01*
X163678774Y-118447757D01*
X163891673Y-118455564D01*
X163891677Y-118455564D01*
X163896837Y-118455753D01*
X163901957Y-118455097D01*
X163901959Y-118455097D01*
X164113288Y-118428025D01*
X164113289Y-118428025D01*
X164118416Y-118427368D01*
X164123366Y-118425883D01*
X164327429Y-118364661D01*
X164327434Y-118364659D01*
X164332384Y-118363174D01*
X164532994Y-118264896D01*
X164714860Y-118135173D01*
X164873096Y-117977489D01*
X165003453Y-117796077D01*
X165007794Y-117787295D01*
X165100136Y-117600453D01*
X165100137Y-117600451D01*
X165102430Y-117595811D01*
X165144136Y-117458541D01*
X165165865Y-117387023D01*
X165165865Y-117387021D01*
X165167370Y-117382069D01*
X165196529Y-117160590D01*
X165198156Y-117094000D01*
X165179852Y-116871361D01*
X165125431Y-116654702D01*
X165036354Y-116449840D01*
X164915014Y-116262277D01*
X164764670Y-116097051D01*
X164760619Y-116093852D01*
X164760615Y-116093848D01*
X164593414Y-115961800D01*
X164593410Y-115961798D01*
X164589359Y-115958598D01*
X164393789Y-115850638D01*
X164388920Y-115848914D01*
X164388916Y-115848912D01*
X164188087Y-115777795D01*
X164188083Y-115777794D01*
X164183212Y-115776069D01*
X164178119Y-115775162D01*
X164178116Y-115775161D01*
X163968373Y-115737800D01*
X163968367Y-115737799D01*
X163963284Y-115736894D01*
X163889452Y-115735992D01*
X163745081Y-115734228D01*
X163745079Y-115734228D01*
X163739911Y-115734165D01*
X163519091Y-115767955D01*
X163506532Y-115772060D01*
X163435568Y-115774210D01*
X163378294Y-115741389D01*
X161544652Y-113907747D01*
X161537112Y-113899461D01*
X161533000Y-113892982D01*
X161521703Y-113882373D01*
X161483349Y-113846357D01*
X161480507Y-113843602D01*
X161460770Y-113823865D01*
X161457573Y-113821385D01*
X161448551Y-113813680D01*
X161422100Y-113788841D01*
X161416321Y-113783414D01*
X161409375Y-113779595D01*
X161409372Y-113779593D01*
X161398566Y-113773652D01*
X161382047Y-113762801D01*
X161376048Y-113758148D01*
X161366041Y-113750386D01*
X161358772Y-113747241D01*
X161358768Y-113747238D01*
X161325463Y-113732826D01*
X161314813Y-113727609D01*
X161276060Y-113706305D01*
X161267352Y-113704069D01*
X161256438Y-113701267D01*
X161237734Y-113694863D01*
X161226420Y-113689967D01*
X161226419Y-113689967D01*
X161219145Y-113686819D01*
X161211322Y-113685580D01*
X161211312Y-113685577D01*
X161175476Y-113679901D01*
X161163856Y-113677495D01*
X161128711Y-113668472D01*
X161128710Y-113668472D01*
X161121030Y-113666500D01*
X161100776Y-113666500D01*
X161081065Y-113664949D01*
X161068886Y-113663020D01*
X161061057Y-113661780D01*
X161053165Y-113662526D01*
X161017039Y-113665941D01*
X161005181Y-113666500D01*
X160474200Y-113666500D01*
X160406079Y-113646498D01*
X160386853Y-113630157D01*
X160386580Y-113630460D01*
X160381668Y-113626037D01*
X160377253Y-113621134D01*
X160348918Y-113600547D01*
X160228094Y-113512763D01*
X160228093Y-113512762D01*
X160222752Y-113508882D01*
X160216724Y-113506198D01*
X160216722Y-113506197D01*
X160054319Y-113433891D01*
X160054318Y-113433891D01*
X160048288Y-113431206D01*
X159954887Y-113411353D01*
X159867944Y-113392872D01*
X159867939Y-113392872D01*
X159861487Y-113391500D01*
X159670513Y-113391500D01*
X159664061Y-113392872D01*
X159664056Y-113392872D01*
X159577113Y-113411353D01*
X159483712Y-113431206D01*
X159477682Y-113433891D01*
X159477681Y-113433891D01*
X159315278Y-113506197D01*
X159315276Y-113506198D01*
X159309248Y-113508882D01*
X159154747Y-113621134D01*
X159150326Y-113626044D01*
X159150325Y-113626045D01*
X159041203Y-113747238D01*
X159026960Y-113763056D01*
X159014383Y-113784840D01*
X158945771Y-113903680D01*
X158931473Y-113928444D01*
X158872458Y-114110072D01*
X158871768Y-114116633D01*
X158871768Y-114116635D01*
X158871175Y-114122277D01*
X158852496Y-114300000D01*
X158872458Y-114489928D01*
X158931473Y-114671556D01*
X158934776Y-114677278D01*
X158934777Y-114677279D01*
X158939335Y-114685174D01*
X159026960Y-114836944D01*
X159154747Y-114978866D01*
X159309248Y-115091118D01*
X159315276Y-115093802D01*
X159315278Y-115093803D01*
X159473409Y-115164207D01*
X159483712Y-115168794D01*
X159562505Y-115185542D01*
X159664056Y-115207128D01*
X159664061Y-115207128D01*
X159670513Y-115208500D01*
X159861487Y-115208500D01*
X159867939Y-115207128D01*
X159867944Y-115207128D01*
X159969495Y-115185542D01*
X160048288Y-115168794D01*
X160058591Y-115164207D01*
X160216722Y-115093803D01*
X160216724Y-115093802D01*
X160222752Y-115091118D01*
X160377253Y-114978866D01*
X160381668Y-114973963D01*
X160386580Y-114969540D01*
X160387705Y-114970789D01*
X160441014Y-114937949D01*
X160474200Y-114933500D01*
X160726406Y-114933500D01*
X160794527Y-114953502D01*
X160815501Y-114970405D01*
X161365086Y-115519990D01*
X161399112Y-115582302D01*
X161394047Y-115653117D01*
X161351500Y-115709953D01*
X161284980Y-115734764D01*
X161274459Y-115735076D01*
X161226962Y-115734495D01*
X161205080Y-115734228D01*
X161205078Y-115734228D01*
X161199911Y-115734165D01*
X160979091Y-115767955D01*
X160766756Y-115837357D01*
X160568607Y-115940507D01*
X160564474Y-115943610D01*
X160564471Y-115943612D01*
X160481450Y-116005946D01*
X160389965Y-116074635D01*
X160235629Y-116236138D01*
X160128201Y-116393621D01*
X160073293Y-116438621D01*
X160002768Y-116446792D01*
X159939021Y-116415538D01*
X159918324Y-116391054D01*
X159837822Y-116266617D01*
X159837820Y-116266614D01*
X159835014Y-116262277D01*
X159684670Y-116097051D01*
X159680619Y-116093852D01*
X159680615Y-116093848D01*
X159513414Y-115961800D01*
X159513410Y-115961798D01*
X159509359Y-115958598D01*
X159313789Y-115850638D01*
X159308920Y-115848914D01*
X159308916Y-115848912D01*
X159108087Y-115777795D01*
X159108083Y-115777794D01*
X159103212Y-115776069D01*
X159098119Y-115775162D01*
X159098116Y-115775161D01*
X158888373Y-115737800D01*
X158888367Y-115737799D01*
X158883284Y-115736894D01*
X158809452Y-115735992D01*
X158665081Y-115734228D01*
X158665079Y-115734228D01*
X158659911Y-115734165D01*
X158439091Y-115767955D01*
X158226756Y-115837357D01*
X158028607Y-115940507D01*
X158024474Y-115943610D01*
X158024471Y-115943612D01*
X157941450Y-116005946D01*
X157849965Y-116074635D01*
X157695629Y-116236138D01*
X157588201Y-116393621D01*
X157533293Y-116438621D01*
X157462768Y-116446792D01*
X157399021Y-116415538D01*
X157378324Y-116391054D01*
X157297822Y-116266617D01*
X157297820Y-116266614D01*
X157295014Y-116262277D01*
X157144670Y-116097051D01*
X157140619Y-116093852D01*
X157140615Y-116093848D01*
X156973414Y-115961800D01*
X156973410Y-115961798D01*
X156969359Y-115958598D01*
X156773789Y-115850638D01*
X156768920Y-115848914D01*
X156768916Y-115848912D01*
X156568087Y-115777795D01*
X156568083Y-115777794D01*
X156563212Y-115776069D01*
X156558119Y-115775162D01*
X156558116Y-115775161D01*
X156348373Y-115737800D01*
X156348367Y-115737799D01*
X156343284Y-115736894D01*
X156269452Y-115735992D01*
X156125081Y-115734228D01*
X156125079Y-115734228D01*
X156119911Y-115734165D01*
X155899091Y-115767955D01*
X155686756Y-115837357D01*
X155488607Y-115940507D01*
X155484474Y-115943610D01*
X155484471Y-115943612D01*
X155401450Y-116005946D01*
X155309965Y-116074635D01*
X155155629Y-116236138D01*
X155048201Y-116393621D01*
X154993293Y-116438621D01*
X154922768Y-116446792D01*
X154859021Y-116415538D01*
X154838324Y-116391054D01*
X154757822Y-116266617D01*
X154757820Y-116266614D01*
X154755014Y-116262277D01*
X154604670Y-116097051D01*
X154600619Y-116093852D01*
X154600615Y-116093848D01*
X154433414Y-115961800D01*
X154433410Y-115961798D01*
X154429359Y-115958598D01*
X154233789Y-115850638D01*
X154228920Y-115848914D01*
X154228916Y-115848912D01*
X154028087Y-115777795D01*
X154028083Y-115777794D01*
X154023212Y-115776069D01*
X154018119Y-115775162D01*
X154018116Y-115775161D01*
X153808373Y-115737800D01*
X153808367Y-115737799D01*
X153803284Y-115736894D01*
X153729452Y-115735992D01*
X153585081Y-115734228D01*
X153585079Y-115734228D01*
X153579911Y-115734165D01*
X153359091Y-115767955D01*
X153146756Y-115837357D01*
X152948607Y-115940507D01*
X152944474Y-115943610D01*
X152944471Y-115943612D01*
X152861450Y-116005946D01*
X152769965Y-116074635D01*
X152615629Y-116236138D01*
X152508201Y-116393621D01*
X152453293Y-116438621D01*
X152382768Y-116446792D01*
X152319021Y-116415538D01*
X152298324Y-116391054D01*
X152217822Y-116266617D01*
X152217820Y-116266614D01*
X152215014Y-116262277D01*
X152064670Y-116097051D01*
X152060619Y-116093852D01*
X152060615Y-116093848D01*
X151893414Y-115961800D01*
X151893410Y-115961798D01*
X151889359Y-115958598D01*
X151693789Y-115850638D01*
X151688920Y-115848914D01*
X151688916Y-115848912D01*
X151488087Y-115777795D01*
X151488083Y-115777794D01*
X151483212Y-115776069D01*
X151478119Y-115775162D01*
X151478116Y-115775161D01*
X151268373Y-115737800D01*
X151268367Y-115737799D01*
X151263284Y-115736894D01*
X151189452Y-115735992D01*
X151045081Y-115734228D01*
X151045079Y-115734228D01*
X151039911Y-115734165D01*
X150819091Y-115767955D01*
X150606756Y-115837357D01*
X150408607Y-115940507D01*
X150404474Y-115943610D01*
X150404471Y-115943612D01*
X150321450Y-116005946D01*
X150229965Y-116074635D01*
X150075629Y-116236138D01*
X149968201Y-116393621D01*
X149913293Y-116438621D01*
X149842768Y-116446792D01*
X149779021Y-116415538D01*
X149758324Y-116391054D01*
X149677822Y-116266617D01*
X149677820Y-116266614D01*
X149675014Y-116262277D01*
X149524670Y-116097051D01*
X149520619Y-116093852D01*
X149520615Y-116093848D01*
X149353414Y-115961800D01*
X149353410Y-115961798D01*
X149349359Y-115958598D01*
X149153789Y-115850638D01*
X149148920Y-115848914D01*
X149148916Y-115848912D01*
X148948087Y-115777795D01*
X148948083Y-115777794D01*
X148943212Y-115776069D01*
X148938119Y-115775162D01*
X148938116Y-115775161D01*
X148728373Y-115737800D01*
X148728367Y-115737799D01*
X148723284Y-115736894D01*
X148649452Y-115735992D01*
X148505081Y-115734228D01*
X148505079Y-115734228D01*
X148499911Y-115734165D01*
X148279091Y-115767955D01*
X148066756Y-115837357D01*
X147868607Y-115940507D01*
X147864474Y-115943610D01*
X147864471Y-115943612D01*
X147781450Y-116005946D01*
X147689965Y-116074635D01*
X147535629Y-116236138D01*
X147428201Y-116393621D01*
X147373293Y-116438621D01*
X147302768Y-116446792D01*
X147239021Y-116415538D01*
X147218324Y-116391054D01*
X147137822Y-116266617D01*
X147137820Y-116266614D01*
X147135014Y-116262277D01*
X146984670Y-116097051D01*
X146980619Y-116093852D01*
X146980615Y-116093848D01*
X146813414Y-115961800D01*
X146813410Y-115961798D01*
X146809359Y-115958598D01*
X146613789Y-115850638D01*
X146608920Y-115848914D01*
X146608916Y-115848912D01*
X146408087Y-115777795D01*
X146408083Y-115777794D01*
X146403212Y-115776069D01*
X146398119Y-115775162D01*
X146398116Y-115775161D01*
X146188373Y-115737800D01*
X146188367Y-115737799D01*
X146183284Y-115736894D01*
X146109452Y-115735992D01*
X145965081Y-115734228D01*
X145965079Y-115734228D01*
X145959911Y-115734165D01*
X145739091Y-115767955D01*
X145526756Y-115837357D01*
X145328607Y-115940507D01*
X145324474Y-115943610D01*
X145324471Y-115943612D01*
X145241450Y-116005946D01*
X145149965Y-116074635D01*
X144995629Y-116236138D01*
X144888201Y-116393621D01*
X144833293Y-116438621D01*
X144762768Y-116446792D01*
X144699021Y-116415538D01*
X144678324Y-116391054D01*
X144597822Y-116266617D01*
X144597820Y-116266614D01*
X144595014Y-116262277D01*
X144444670Y-116097051D01*
X144440619Y-116093852D01*
X144440615Y-116093848D01*
X144273414Y-115961800D01*
X144273410Y-115961798D01*
X144269359Y-115958598D01*
X144073789Y-115850638D01*
X144068920Y-115848914D01*
X144068916Y-115848912D01*
X143868087Y-115777795D01*
X143868083Y-115777794D01*
X143863212Y-115776069D01*
X143858119Y-115775162D01*
X143858116Y-115775161D01*
X143648373Y-115737800D01*
X143648367Y-115737799D01*
X143643284Y-115736894D01*
X143569452Y-115735992D01*
X143425081Y-115734228D01*
X143425079Y-115734228D01*
X143419911Y-115734165D01*
X143199091Y-115767955D01*
X142986756Y-115837357D01*
X142788607Y-115940507D01*
X142784474Y-115943610D01*
X142784471Y-115943612D01*
X142701450Y-116005946D01*
X142609965Y-116074635D01*
X142606393Y-116078373D01*
X142528898Y-116159466D01*
X142467374Y-116194895D01*
X142396462Y-116191438D01*
X142338676Y-116150192D01*
X142319823Y-116116644D01*
X142278324Y-116005946D01*
X142269786Y-115990351D01*
X142193285Y-115888276D01*
X142180724Y-115875715D01*
X142078649Y-115799214D01*
X142063054Y-115790676D01*
X141942606Y-115745522D01*
X141927351Y-115741895D01*
X141876486Y-115736369D01*
X141869672Y-115736000D01*
X141247115Y-115736000D01*
X141231876Y-115740475D01*
X141230671Y-115741865D01*
X141229000Y-115749548D01*
X141229000Y-118433884D01*
X140721000Y-118433884D01*
X140721000Y-117366115D01*
X140716525Y-117350876D01*
X140715135Y-117349671D01*
X140707452Y-117348000D01*
X139635116Y-117348000D01*
X139619877Y-117352475D01*
X139618672Y-117353865D01*
X139617001Y-117361548D01*
X139617001Y-117988669D01*
X136163370Y-117988669D01*
X136030992Y-117749148D01*
X136024861Y-117736418D01*
X135915844Y-117473228D01*
X135911177Y-117459891D01*
X135832314Y-117186151D01*
X135829170Y-117172376D01*
X135781451Y-116891529D01*
X135779869Y-116877488D01*
X135777603Y-116837124D01*
X135776747Y-116821885D01*
X139617000Y-116821885D01*
X139621475Y-116837124D01*
X139622865Y-116838329D01*
X139630548Y-116840000D01*
X140702885Y-116840000D01*
X140718124Y-116835525D01*
X140719329Y-116834135D01*
X140721000Y-116826452D01*
X140721000Y-115754116D01*
X140716525Y-115738877D01*
X140715135Y-115737672D01*
X140707452Y-115736001D01*
X140080331Y-115736001D01*
X140073510Y-115736371D01*
X140022648Y-115741895D01*
X140007396Y-115745521D01*
X139886946Y-115790676D01*
X139871351Y-115799214D01*
X139769276Y-115875715D01*
X139756715Y-115888276D01*
X139680214Y-115990351D01*
X139671676Y-116005946D01*
X139626522Y-116126394D01*
X139622895Y-116141649D01*
X139617369Y-116192514D01*
X139617000Y-116199328D01*
X139617000Y-116821885D01*
X135776747Y-116821885D01*
X135766089Y-116632100D01*
X135767411Y-116608208D01*
X135767334Y-116608201D01*
X135767537Y-116605937D01*
X135767637Y-116604131D01*
X135767770Y-116603342D01*
X135768576Y-116598552D01*
X135768729Y-116586000D01*
X135764773Y-116558376D01*
X135763500Y-116540514D01*
X135763500Y-113382695D01*
X137062251Y-113382695D01*
X137062548Y-113387848D01*
X137062548Y-113387851D01*
X137072438Y-113559366D01*
X137075110Y-113605715D01*
X137076247Y-113610761D01*
X137076248Y-113610767D01*
X137091829Y-113679901D01*
X137124222Y-113823639D01*
X137208266Y-114030616D01*
X137253109Y-114103794D01*
X137322291Y-114216688D01*
X137324987Y-114221088D01*
X137471250Y-114389938D01*
X137643126Y-114532632D01*
X137836000Y-114645338D01*
X138044692Y-114725030D01*
X138049760Y-114726061D01*
X138049763Y-114726062D01*
X138157012Y-114747882D01*
X138263597Y-114769567D01*
X138268772Y-114769757D01*
X138268774Y-114769757D01*
X138481673Y-114777564D01*
X138481677Y-114777564D01*
X138486837Y-114777753D01*
X138491957Y-114777097D01*
X138491959Y-114777097D01*
X138703288Y-114750025D01*
X138703289Y-114750025D01*
X138708416Y-114749368D01*
X138713367Y-114747883D01*
X138713370Y-114747882D01*
X138754829Y-114735444D01*
X138825825Y-114735028D01*
X138880131Y-114767035D01*
X139186343Y-115073247D01*
X139193887Y-115081537D01*
X139198000Y-115088018D01*
X139203777Y-115093443D01*
X139247667Y-115134658D01*
X139250509Y-115137413D01*
X139270230Y-115157134D01*
X139273425Y-115159612D01*
X139282447Y-115167318D01*
X139314679Y-115197586D01*
X139321628Y-115201406D01*
X139332432Y-115207346D01*
X139348956Y-115218199D01*
X139364959Y-115230613D01*
X139405543Y-115248176D01*
X139416173Y-115253383D01*
X139454940Y-115274695D01*
X139462617Y-115276666D01*
X139462622Y-115276668D01*
X139474558Y-115279732D01*
X139493266Y-115286137D01*
X139511855Y-115294181D01*
X139519683Y-115295421D01*
X139519690Y-115295423D01*
X139555524Y-115301099D01*
X139567144Y-115303505D01*
X139598959Y-115311673D01*
X139609970Y-115314500D01*
X139630224Y-115314500D01*
X139649934Y-115316051D01*
X139669943Y-115319220D01*
X139677835Y-115318474D01*
X139696580Y-115316702D01*
X139713962Y-115315059D01*
X139725819Y-115314500D01*
X142161233Y-115314500D01*
X142172416Y-115315027D01*
X142179909Y-115316702D01*
X142187835Y-115316453D01*
X142187836Y-115316453D01*
X142247986Y-115314562D01*
X142251945Y-115314500D01*
X142279856Y-115314500D01*
X142283791Y-115314003D01*
X142283856Y-115313995D01*
X142295693Y-115313062D01*
X142327951Y-115312048D01*
X142331970Y-115311922D01*
X142339889Y-115311673D01*
X142359343Y-115306021D01*
X142378700Y-115302013D01*
X142390930Y-115300468D01*
X142390931Y-115300468D01*
X142398797Y-115299474D01*
X142406168Y-115296555D01*
X142406170Y-115296555D01*
X142439912Y-115283196D01*
X142451142Y-115279351D01*
X142485983Y-115269229D01*
X142485984Y-115269229D01*
X142493593Y-115267018D01*
X142500412Y-115262985D01*
X142500417Y-115262983D01*
X142511028Y-115256707D01*
X142528776Y-115248012D01*
X142547617Y-115240552D01*
X142567987Y-115225753D01*
X142583387Y-115214564D01*
X142593307Y-115208048D01*
X142624535Y-115189580D01*
X142624538Y-115189578D01*
X142631362Y-115185542D01*
X142645683Y-115171221D01*
X142660717Y-115158380D01*
X142662432Y-115157134D01*
X142677107Y-115146472D01*
X142705298Y-115112395D01*
X142713288Y-115103616D01*
X143853454Y-113963451D01*
X143861740Y-113955911D01*
X143868219Y-113951799D01*
X143914845Y-113902147D01*
X143917599Y-113899306D01*
X143937336Y-113879569D01*
X143939816Y-113876372D01*
X143947521Y-113867350D01*
X143972360Y-113840899D01*
X143977787Y-113835120D01*
X143981606Y-113828174D01*
X143981608Y-113828171D01*
X143987549Y-113817365D01*
X143998400Y-113800846D01*
X144005959Y-113791100D01*
X144010815Y-113784840D01*
X144013960Y-113777571D01*
X144013963Y-113777567D01*
X144028375Y-113744262D01*
X144033592Y-113733612D01*
X144054896Y-113694859D01*
X144059934Y-113675236D01*
X144066338Y-113656533D01*
X144071234Y-113645220D01*
X144071235Y-113645216D01*
X144074382Y-113637944D01*
X144075622Y-113630118D01*
X144077646Y-113623150D01*
X144114328Y-113564673D01*
X144115913Y-113563246D01*
X144121253Y-113559366D01*
X144249040Y-113417444D01*
X144269102Y-113382695D01*
X162467251Y-113382695D01*
X162467548Y-113387848D01*
X162467548Y-113387851D01*
X162477438Y-113559366D01*
X162480110Y-113605715D01*
X162481247Y-113610761D01*
X162481248Y-113610767D01*
X162496829Y-113679901D01*
X162529222Y-113823639D01*
X162613266Y-114030616D01*
X162658109Y-114103794D01*
X162727291Y-114216688D01*
X162729987Y-114221088D01*
X162876250Y-114389938D01*
X163048126Y-114532632D01*
X163241000Y-114645338D01*
X163449692Y-114725030D01*
X163454760Y-114726061D01*
X163454763Y-114726062D01*
X163562012Y-114747882D01*
X163668597Y-114769567D01*
X163673772Y-114769757D01*
X163673774Y-114769757D01*
X163886673Y-114777564D01*
X163886677Y-114777564D01*
X163891837Y-114777753D01*
X163896957Y-114777097D01*
X163896959Y-114777097D01*
X164108288Y-114750025D01*
X164108289Y-114750025D01*
X164113416Y-114749368D01*
X164159827Y-114735444D01*
X164322429Y-114686661D01*
X164322434Y-114686659D01*
X164327384Y-114685174D01*
X164527994Y-114586896D01*
X164709860Y-114457173D01*
X164868096Y-114299489D01*
X164927594Y-114216689D01*
X164998453Y-114118077D01*
X164999776Y-114119028D01*
X165046645Y-114075857D01*
X165116580Y-114063625D01*
X165182026Y-114091144D01*
X165209875Y-114122994D01*
X165269987Y-114221088D01*
X165416250Y-114389938D01*
X165588126Y-114532632D01*
X165781000Y-114645338D01*
X165989692Y-114725030D01*
X165994760Y-114726061D01*
X165994763Y-114726062D01*
X166102012Y-114747882D01*
X166208597Y-114769567D01*
X166213772Y-114769757D01*
X166213774Y-114769757D01*
X166426673Y-114777564D01*
X166426677Y-114777564D01*
X166431837Y-114777753D01*
X166436957Y-114777097D01*
X166436959Y-114777097D01*
X166648288Y-114750025D01*
X166648289Y-114750025D01*
X166653416Y-114749368D01*
X166699827Y-114735444D01*
X166862429Y-114686661D01*
X166862434Y-114686659D01*
X166867384Y-114685174D01*
X167067994Y-114586896D01*
X167249860Y-114457173D01*
X167408096Y-114299489D01*
X167467594Y-114216689D01*
X167535435Y-114122277D01*
X167538453Y-114118077D01*
X167542410Y-114110072D01*
X167635136Y-113922453D01*
X167635137Y-113922451D01*
X167637430Y-113917811D01*
X167684526Y-113762801D01*
X167700865Y-113709023D01*
X167700865Y-113709021D01*
X167702370Y-113704069D01*
X167731529Y-113482590D01*
X167732719Y-113433891D01*
X167733074Y-113419365D01*
X167733074Y-113419361D01*
X167733156Y-113416000D01*
X167714852Y-113193361D01*
X167660431Y-112976702D01*
X167571354Y-112771840D01*
X167450014Y-112584277D01*
X167299670Y-112419051D01*
X167295619Y-112415852D01*
X167295615Y-112415848D01*
X167128414Y-112283800D01*
X167128410Y-112283798D01*
X167124359Y-112280598D01*
X167083053Y-112257796D01*
X167033084Y-112207364D01*
X167018312Y-112137921D01*
X167043428Y-112071516D01*
X167070780Y-112044909D01*
X167135110Y-111999023D01*
X167249860Y-111917173D01*
X167408096Y-111759489D01*
X167467594Y-111676689D01*
X167535435Y-111582277D01*
X167538453Y-111578077D01*
X167545782Y-111563249D01*
X167635136Y-111382453D01*
X167635137Y-111382451D01*
X167637430Y-111377811D01*
X167702370Y-111164069D01*
X167731529Y-110942590D01*
X167733156Y-110876000D01*
X167714852Y-110653361D01*
X167660431Y-110436702D01*
X167571354Y-110231840D01*
X167531906Y-110170862D01*
X167452822Y-110048617D01*
X167452820Y-110048614D01*
X167450014Y-110044277D01*
X167299670Y-109879051D01*
X167295619Y-109875852D01*
X167295615Y-109875848D01*
X167128414Y-109743800D01*
X167128410Y-109743798D01*
X167124359Y-109740598D01*
X167083053Y-109717796D01*
X167033084Y-109667364D01*
X167018312Y-109597921D01*
X167043428Y-109531516D01*
X167070780Y-109504909D01*
X167114603Y-109473650D01*
X167249860Y-109377173D01*
X167408096Y-109219489D01*
X167467594Y-109136689D01*
X167535435Y-109042277D01*
X167538453Y-109038077D01*
X167559320Y-108995857D01*
X167635136Y-108842453D01*
X167635137Y-108842451D01*
X167637430Y-108837811D01*
X167702370Y-108624069D01*
X167731529Y-108402590D01*
X167733156Y-108336000D01*
X167714852Y-108113361D01*
X167660431Y-107896702D01*
X167571354Y-107691840D01*
X167450014Y-107504277D01*
X167299670Y-107339051D01*
X167295619Y-107335852D01*
X167295615Y-107335848D01*
X167128414Y-107203800D01*
X167128410Y-107203798D01*
X167124359Y-107200598D01*
X167083053Y-107177796D01*
X167033084Y-107127364D01*
X167018312Y-107057921D01*
X167043428Y-106991516D01*
X167070780Y-106964909D01*
X167114603Y-106933650D01*
X167249860Y-106837173D01*
X167408096Y-106679489D01*
X167467594Y-106596689D01*
X167535435Y-106502277D01*
X167538453Y-106498077D01*
X167559320Y-106455857D01*
X167635136Y-106302453D01*
X167635137Y-106302451D01*
X167637430Y-106297811D01*
X167702370Y-106084069D01*
X167731529Y-105862590D01*
X167733156Y-105796000D01*
X167714852Y-105573361D01*
X167660431Y-105356702D01*
X167571354Y-105151840D01*
X167450014Y-104964277D01*
X167299670Y-104799051D01*
X167295619Y-104795852D01*
X167295615Y-104795848D01*
X167128414Y-104663800D01*
X167128410Y-104663798D01*
X167124359Y-104660598D01*
X167083053Y-104637796D01*
X167033084Y-104587364D01*
X167018312Y-104517921D01*
X167043428Y-104451516D01*
X167070780Y-104424909D01*
X167114603Y-104393650D01*
X167249860Y-104297173D01*
X167259733Y-104287335D01*
X167404435Y-104143137D01*
X167408096Y-104139489D01*
X167436406Y-104100092D01*
X167535435Y-103962277D01*
X167538453Y-103958077D01*
X167551776Y-103931121D01*
X167635136Y-103762453D01*
X167635137Y-103762451D01*
X167637430Y-103757811D01*
X167702370Y-103544069D01*
X167731529Y-103322590D01*
X167733156Y-103256000D01*
X167714852Y-103033361D01*
X167660431Y-102816702D01*
X167571354Y-102611840D01*
X167450014Y-102424277D01*
X167299670Y-102259051D01*
X167295619Y-102255852D01*
X167295615Y-102255848D01*
X167128414Y-102123800D01*
X167128410Y-102123798D01*
X167124359Y-102120598D01*
X167083053Y-102097796D01*
X167033084Y-102047364D01*
X167018312Y-101977921D01*
X167043428Y-101911516D01*
X167070780Y-101884909D01*
X167114603Y-101853650D01*
X167249860Y-101757173D01*
X167408096Y-101599489D01*
X167467594Y-101516689D01*
X167535435Y-101422277D01*
X167538453Y-101418077D01*
X167559320Y-101375857D01*
X167635136Y-101222453D01*
X167635137Y-101222451D01*
X167637430Y-101217811D01*
X167702370Y-101004069D01*
X167731529Y-100782590D01*
X167732112Y-100758749D01*
X167733074Y-100719365D01*
X167733074Y-100719361D01*
X167733156Y-100716000D01*
X167714852Y-100493361D01*
X167660431Y-100276702D01*
X167571354Y-100071840D01*
X167450014Y-99884277D01*
X167299670Y-99719051D01*
X167295619Y-99715852D01*
X167295615Y-99715848D01*
X167128414Y-99583800D01*
X167128410Y-99583798D01*
X167124359Y-99580598D01*
X167083053Y-99557796D01*
X167033084Y-99507364D01*
X167018312Y-99437921D01*
X167043428Y-99371516D01*
X167070780Y-99344909D01*
X167114603Y-99313650D01*
X167249860Y-99217173D01*
X167257168Y-99209891D01*
X167404435Y-99063137D01*
X167408096Y-99059489D01*
X167461908Y-98984602D01*
X167535435Y-98882277D01*
X167538453Y-98878077D01*
X167551776Y-98851121D01*
X167635136Y-98682453D01*
X167635137Y-98682451D01*
X167637430Y-98677811D01*
X167702370Y-98464069D01*
X167731529Y-98242590D01*
X167733156Y-98176000D01*
X167714852Y-97953361D01*
X167660431Y-97736702D01*
X167571354Y-97531840D01*
X167450014Y-97344277D01*
X167299670Y-97179051D01*
X167295619Y-97175852D01*
X167295615Y-97175848D01*
X167128414Y-97043800D01*
X167128410Y-97043798D01*
X167124359Y-97040598D01*
X167083053Y-97017796D01*
X167033084Y-96967364D01*
X167018312Y-96897921D01*
X167043428Y-96831516D01*
X167070780Y-96804909D01*
X167114603Y-96773650D01*
X167249860Y-96677173D01*
X167408096Y-96519489D01*
X167467594Y-96436689D01*
X167535435Y-96342277D01*
X167538453Y-96338077D01*
X167559320Y-96295857D01*
X167635136Y-96142453D01*
X167635137Y-96142451D01*
X167637430Y-96137811D01*
X167676031Y-96010762D01*
X167700865Y-95929023D01*
X167700866Y-95929018D01*
X167702370Y-95924069D01*
X167731529Y-95702590D01*
X167733156Y-95636000D01*
X167714852Y-95413361D01*
X167660431Y-95196702D01*
X167571354Y-94991840D01*
X167450014Y-94804277D01*
X167299670Y-94639051D01*
X167295619Y-94635852D01*
X167295615Y-94635848D01*
X167128414Y-94503800D01*
X167128410Y-94503798D01*
X167124359Y-94500598D01*
X167083053Y-94477796D01*
X167033084Y-94427364D01*
X167018312Y-94357921D01*
X167043428Y-94291516D01*
X167070780Y-94264909D01*
X167114603Y-94233650D01*
X167249860Y-94137173D01*
X167408096Y-93979489D01*
X167436046Y-93940593D01*
X167535435Y-93802277D01*
X167538453Y-93798077D01*
X167559320Y-93755857D01*
X167635136Y-93602453D01*
X167635137Y-93602451D01*
X167637430Y-93597811D01*
X167702370Y-93384069D01*
X167731529Y-93162590D01*
X167733156Y-93096000D01*
X167714852Y-92873361D01*
X167660431Y-92656702D01*
X167571354Y-92451840D01*
X167450014Y-92264277D01*
X167299670Y-92099051D01*
X167295619Y-92095852D01*
X167295615Y-92095848D01*
X167128414Y-91963800D01*
X167128410Y-91963798D01*
X167124359Y-91960598D01*
X167083053Y-91937796D01*
X167033084Y-91887364D01*
X167018312Y-91817921D01*
X167043428Y-91751516D01*
X167070780Y-91724909D01*
X167114603Y-91693650D01*
X167249860Y-91597173D01*
X167408096Y-91439489D01*
X167538453Y-91258077D01*
X167637430Y-91057811D01*
X167702370Y-90844069D01*
X167731529Y-90622590D01*
X167733156Y-90556000D01*
X167714852Y-90333361D01*
X167660431Y-90116702D01*
X167571354Y-89911840D01*
X167450014Y-89724277D01*
X167299670Y-89559051D01*
X167295619Y-89555852D01*
X167295615Y-89555848D01*
X167128414Y-89423800D01*
X167128410Y-89423798D01*
X167124359Y-89420598D01*
X166928789Y-89312638D01*
X166923920Y-89310914D01*
X166923916Y-89310912D01*
X166723087Y-89239795D01*
X166723083Y-89239794D01*
X166718212Y-89238069D01*
X166713119Y-89237162D01*
X166713116Y-89237161D01*
X166503373Y-89199800D01*
X166503367Y-89199799D01*
X166498284Y-89198894D01*
X166424452Y-89197992D01*
X166280081Y-89196228D01*
X166280079Y-89196228D01*
X166274911Y-89196165D01*
X166054091Y-89229955D01*
X165841756Y-89299357D01*
X165643607Y-89402507D01*
X165639474Y-89405610D01*
X165639471Y-89405612D01*
X165556450Y-89467946D01*
X165464965Y-89536635D01*
X165461393Y-89540373D01*
X165383898Y-89621466D01*
X165322374Y-89656895D01*
X165251462Y-89653438D01*
X165193676Y-89612192D01*
X165174823Y-89578644D01*
X165133324Y-89467946D01*
X165124786Y-89452351D01*
X165048285Y-89350276D01*
X165035724Y-89337715D01*
X164933649Y-89261214D01*
X164918054Y-89252676D01*
X164797606Y-89207522D01*
X164782351Y-89203895D01*
X164731486Y-89198369D01*
X164724672Y-89198000D01*
X164102115Y-89198000D01*
X164086876Y-89202475D01*
X164085671Y-89203865D01*
X164084000Y-89211548D01*
X164084000Y-90684000D01*
X164063998Y-90752121D01*
X164010342Y-90798614D01*
X163958000Y-90810000D01*
X162490116Y-90810000D01*
X162474877Y-90814475D01*
X162473672Y-90815865D01*
X162472001Y-90823548D01*
X162472001Y-91450669D01*
X162472371Y-91457490D01*
X162477895Y-91508352D01*
X162481521Y-91523604D01*
X162526676Y-91644054D01*
X162535214Y-91659649D01*
X162611715Y-91761724D01*
X162624276Y-91774285D01*
X162726351Y-91850786D01*
X162741946Y-91859324D01*
X162850827Y-91900142D01*
X162907591Y-91942784D01*
X162932291Y-92009345D01*
X162917083Y-92078694D01*
X162897691Y-92105175D01*
X162774200Y-92234401D01*
X162770629Y-92238138D01*
X162644743Y-92422680D01*
X162550688Y-92625305D01*
X162490989Y-92840570D01*
X162467251Y-93062695D01*
X162467548Y-93067848D01*
X162467548Y-93067851D01*
X162473011Y-93162590D01*
X162480110Y-93285715D01*
X162481247Y-93290761D01*
X162481248Y-93290767D01*
X162501119Y-93378939D01*
X162529222Y-93503639D01*
X162613266Y-93710616D01*
X162664019Y-93793438D01*
X162727291Y-93896688D01*
X162729987Y-93901088D01*
X162876250Y-94069938D01*
X162957235Y-94137173D01*
X163040314Y-94206146D01*
X163048126Y-94212632D01*
X163118595Y-94253811D01*
X163121445Y-94255476D01*
X163170169Y-94307114D01*
X163183240Y-94376897D01*
X163156509Y-94442669D01*
X163116055Y-94476027D01*
X163103607Y-94482507D01*
X163099474Y-94485610D01*
X163099471Y-94485612D01*
X163075247Y-94503800D01*
X162924965Y-94616635D01*
X162770629Y-94778138D01*
X162644743Y-94962680D01*
X162624396Y-95006514D01*
X162583243Y-95095172D01*
X162550688Y-95165305D01*
X162490989Y-95380570D01*
X162467251Y-95602695D01*
X162467548Y-95607848D01*
X162467548Y-95607851D01*
X162473011Y-95702590D01*
X162480110Y-95825715D01*
X162481247Y-95830761D01*
X162481248Y-95830767D01*
X162498446Y-95907077D01*
X162529222Y-96043639D01*
X162566882Y-96136385D01*
X162601728Y-96222200D01*
X162613266Y-96250616D01*
X162664019Y-96333438D01*
X162727291Y-96436688D01*
X162729987Y-96441088D01*
X162876250Y-96609938D01*
X163048126Y-96752632D01*
X163118595Y-96793811D01*
X163121445Y-96795476D01*
X163170169Y-96847114D01*
X163183240Y-96916897D01*
X163156509Y-96982669D01*
X163116055Y-97016027D01*
X163103607Y-97022507D01*
X163099474Y-97025610D01*
X163099471Y-97025612D01*
X162929100Y-97153530D01*
X162924965Y-97156635D01*
X162921393Y-97160373D01*
X162816421Y-97270220D01*
X162770629Y-97318138D01*
X162644743Y-97502680D01*
X162629003Y-97536590D01*
X162553730Y-97698752D01*
X162550688Y-97705305D01*
X162490989Y-97920570D01*
X162467251Y-98142695D01*
X162467548Y-98147848D01*
X162467548Y-98147851D01*
X162473011Y-98242590D01*
X162480110Y-98365715D01*
X162481247Y-98370761D01*
X162481248Y-98370767D01*
X162501119Y-98458939D01*
X162529222Y-98583639D01*
X162613266Y-98790616D01*
X162661057Y-98868604D01*
X162727291Y-98976688D01*
X162729987Y-98981088D01*
X162876250Y-99149938D01*
X163048126Y-99292632D01*
X163118595Y-99333811D01*
X163121445Y-99335476D01*
X163170169Y-99387114D01*
X163183240Y-99456897D01*
X163156509Y-99522669D01*
X163116055Y-99556027D01*
X163103607Y-99562507D01*
X163099474Y-99565610D01*
X163099471Y-99565612D01*
X163075247Y-99583800D01*
X162924965Y-99696635D01*
X162770629Y-99858138D01*
X162644743Y-100042680D01*
X162629003Y-100076590D01*
X162580864Y-100180297D01*
X162550688Y-100245305D01*
X162490989Y-100460570D01*
X162467251Y-100682695D01*
X162467548Y-100687848D01*
X162467548Y-100687851D01*
X162478039Y-100869803D01*
X162480110Y-100905715D01*
X162481247Y-100910761D01*
X162481248Y-100910767D01*
X162497865Y-100984500D01*
X162529222Y-101123639D01*
X162567461Y-101217811D01*
X162605488Y-101311460D01*
X162613266Y-101330616D01*
X162664019Y-101413438D01*
X162727291Y-101516688D01*
X162729987Y-101521088D01*
X162876250Y-101689938D01*
X163048126Y-101832632D01*
X163118595Y-101873811D01*
X163121445Y-101875476D01*
X163170169Y-101927114D01*
X163183240Y-101996897D01*
X163156509Y-102062669D01*
X163116055Y-102096027D01*
X163103607Y-102102507D01*
X163099474Y-102105610D01*
X163099471Y-102105612D01*
X163004117Y-102177206D01*
X162924965Y-102236635D01*
X162770629Y-102398138D01*
X162644743Y-102582680D01*
X162629973Y-102614500D01*
X162558611Y-102768237D01*
X162550688Y-102785305D01*
X162490989Y-103000570D01*
X162467251Y-103222695D01*
X162467548Y-103227848D01*
X162467548Y-103227851D01*
X162473011Y-103322590D01*
X162480110Y-103445715D01*
X162481247Y-103450761D01*
X162481248Y-103450767D01*
X162501119Y-103538939D01*
X162529222Y-103663639D01*
X162613266Y-103870616D01*
X162661057Y-103948604D01*
X162727291Y-104056688D01*
X162729987Y-104061088D01*
X162876250Y-104229938D01*
X163048126Y-104372632D01*
X163118595Y-104413811D01*
X163121445Y-104415476D01*
X163170169Y-104467114D01*
X163183240Y-104536897D01*
X163156509Y-104602669D01*
X163116055Y-104636027D01*
X163103607Y-104642507D01*
X163099474Y-104645610D01*
X163099471Y-104645612D01*
X162929100Y-104773530D01*
X162924965Y-104776635D01*
X162770629Y-104938138D01*
X162644743Y-105122680D01*
X162620688Y-105174502D01*
X162580864Y-105260297D01*
X162550688Y-105325305D01*
X162490989Y-105540570D01*
X162467251Y-105762695D01*
X162467548Y-105767848D01*
X162467548Y-105767851D01*
X162473011Y-105862590D01*
X162480110Y-105985715D01*
X162481247Y-105990761D01*
X162481248Y-105990767D01*
X162501119Y-106078939D01*
X162529222Y-106203639D01*
X162567461Y-106297811D01*
X162605488Y-106391460D01*
X162613266Y-106410616D01*
X162664019Y-106493438D01*
X162727291Y-106596688D01*
X162729987Y-106601088D01*
X162876250Y-106769938D01*
X163048126Y-106912632D01*
X163118595Y-106953811D01*
X163121445Y-106955476D01*
X163170169Y-107007114D01*
X163183240Y-107076897D01*
X163156509Y-107142669D01*
X163116055Y-107176027D01*
X163103607Y-107182507D01*
X163099474Y-107185610D01*
X163099471Y-107185612D01*
X163004117Y-107257206D01*
X162924965Y-107316635D01*
X162770629Y-107478138D01*
X162644743Y-107662680D01*
X162629973Y-107694500D01*
X162558611Y-107848237D01*
X162550688Y-107865305D01*
X162490989Y-108080570D01*
X162467251Y-108302695D01*
X162467548Y-108307848D01*
X162467548Y-108307851D01*
X162473011Y-108402590D01*
X162480110Y-108525715D01*
X162481247Y-108530761D01*
X162481248Y-108530767D01*
X162494309Y-108588721D01*
X162529222Y-108743639D01*
X162613266Y-108950616D01*
X162664019Y-109033438D01*
X162727291Y-109136688D01*
X162729987Y-109141088D01*
X162876250Y-109309938D01*
X163048126Y-109452632D01*
X163118595Y-109493811D01*
X163121445Y-109495476D01*
X163170169Y-109547114D01*
X163183240Y-109616897D01*
X163156509Y-109682669D01*
X163116055Y-109716027D01*
X163103607Y-109722507D01*
X163099474Y-109725610D01*
X163099471Y-109725612D01*
X162929100Y-109853530D01*
X162924965Y-109856635D01*
X162921393Y-109860373D01*
X162776776Y-110011706D01*
X162770629Y-110018138D01*
X162767720Y-110022403D01*
X162767714Y-110022411D01*
X162755404Y-110040457D01*
X162644743Y-110202680D01*
X162629973Y-110234500D01*
X162576697Y-110349274D01*
X162550688Y-110405305D01*
X162490989Y-110620570D01*
X162467251Y-110842695D01*
X162467548Y-110847848D01*
X162467548Y-110847851D01*
X162473011Y-110942590D01*
X162480110Y-111065715D01*
X162481247Y-111070761D01*
X162481248Y-111070767D01*
X162501119Y-111158939D01*
X162529222Y-111283639D01*
X162613266Y-111490616D01*
X162655396Y-111559366D01*
X162727291Y-111676688D01*
X162729987Y-111681088D01*
X162876250Y-111849938D01*
X163048126Y-111992632D01*
X163085362Y-112014391D01*
X163121445Y-112035476D01*
X163170169Y-112087114D01*
X163183240Y-112156897D01*
X163156509Y-112222669D01*
X163116055Y-112256027D01*
X163103607Y-112262507D01*
X163099474Y-112265610D01*
X163099471Y-112265612D01*
X162988044Y-112349274D01*
X162924965Y-112396635D01*
X162770629Y-112558138D01*
X162644743Y-112742680D01*
X162629973Y-112774500D01*
X162582555Y-112876654D01*
X162550688Y-112945305D01*
X162490989Y-113160570D01*
X162467251Y-113382695D01*
X144269102Y-113382695D01*
X144344527Y-113252056D01*
X144403542Y-113070428D01*
X144412866Y-112981720D01*
X144422814Y-112887065D01*
X144423504Y-112880500D01*
X144407373Y-112727018D01*
X144404232Y-112697135D01*
X144404232Y-112697133D01*
X144403542Y-112690572D01*
X144344527Y-112508944D01*
X144249040Y-112343556D01*
X144192353Y-112280598D01*
X144125675Y-112206545D01*
X144125674Y-112206544D01*
X144121253Y-112201634D01*
X144022157Y-112129636D01*
X143972094Y-112093263D01*
X143972093Y-112093262D01*
X143966752Y-112089382D01*
X143960724Y-112086698D01*
X143960722Y-112086697D01*
X143798319Y-112014391D01*
X143798318Y-112014391D01*
X143792288Y-112011706D01*
X143754844Y-112003747D01*
X143692371Y-111970018D01*
X143658049Y-111907869D01*
X143662777Y-111837030D01*
X143705053Y-111779992D01*
X143754844Y-111757253D01*
X143792288Y-111749294D01*
X143936718Y-111684990D01*
X143960722Y-111674303D01*
X143960724Y-111674302D01*
X143966752Y-111671618D01*
X144121253Y-111559366D01*
X144249040Y-111417444D01*
X144344527Y-111252056D01*
X144403542Y-111070428D01*
X144417418Y-110938410D01*
X144422814Y-110887065D01*
X144423504Y-110880500D01*
X144420907Y-110855792D01*
X144404232Y-110697135D01*
X144404232Y-110697133D01*
X144403542Y-110690572D01*
X144344527Y-110508944D01*
X144249040Y-110343556D01*
X144152728Y-110236590D01*
X144125675Y-110206545D01*
X144125674Y-110206544D01*
X144121253Y-110201634D01*
X143966752Y-110089382D01*
X143960726Y-110086699D01*
X143960719Y-110086695D01*
X143852148Y-110038357D01*
X143798052Y-109992377D01*
X143777402Y-109924450D01*
X143796754Y-109856142D01*
X143852148Y-109808143D01*
X143960719Y-109759805D01*
X143960726Y-109759801D01*
X143966752Y-109757118D01*
X143992923Y-109738104D01*
X144090287Y-109667364D01*
X144121253Y-109644866D01*
X144132263Y-109632638D01*
X144244621Y-109507852D01*
X144244622Y-109507851D01*
X144249040Y-109502944D01*
X144344527Y-109337556D01*
X144403542Y-109155928D01*
X144415929Y-109038077D01*
X144422814Y-108972565D01*
X144423504Y-108966000D01*
X144403542Y-108776072D01*
X144344527Y-108594444D01*
X144249040Y-108429056D01*
X144228198Y-108405908D01*
X144125675Y-108292045D01*
X144125674Y-108292044D01*
X144121253Y-108287134D01*
X143966752Y-108174882D01*
X143960724Y-108172198D01*
X143960722Y-108172197D01*
X143862816Y-108128607D01*
X143808721Y-108082627D01*
X143788071Y-108014700D01*
X143807423Y-107946392D01*
X143862816Y-107898393D01*
X143960722Y-107854803D01*
X143960724Y-107854802D01*
X143966752Y-107852118D01*
X143973238Y-107847406D01*
X144038077Y-107800297D01*
X144121253Y-107739866D01*
X144168411Y-107687492D01*
X144244621Y-107602852D01*
X144244622Y-107602851D01*
X144249040Y-107597944D01*
X144344527Y-107432556D01*
X144403542Y-107250928D01*
X144423504Y-107061000D01*
X144412413Y-106955476D01*
X144404232Y-106877635D01*
X144404232Y-106877633D01*
X144403542Y-106871072D01*
X144344527Y-106689444D01*
X144338780Y-106679489D01*
X144295767Y-106604990D01*
X144249040Y-106524056D01*
X144225649Y-106498077D01*
X144125675Y-106387045D01*
X144125674Y-106387044D01*
X144121253Y-106382134D01*
X143966752Y-106269882D01*
X143960724Y-106267198D01*
X143960722Y-106267197D01*
X143798319Y-106194891D01*
X143798318Y-106194891D01*
X143792288Y-106192206D01*
X143698887Y-106172353D01*
X143611944Y-106153872D01*
X143611939Y-106153872D01*
X143605487Y-106152500D01*
X143414513Y-106152500D01*
X143408061Y-106153872D01*
X143408056Y-106153872D01*
X143321112Y-106172353D01*
X143227712Y-106192206D01*
X143221682Y-106194891D01*
X143221681Y-106194891D01*
X143059278Y-106267197D01*
X143059276Y-106267198D01*
X143053248Y-106269882D01*
X142898747Y-106382134D01*
X142894332Y-106387037D01*
X142889420Y-106391460D01*
X142888295Y-106390211D01*
X142834986Y-106423051D01*
X142801800Y-106427500D01*
X142362996Y-106427500D01*
X142294875Y-106407498D01*
X142248382Y-106353842D01*
X142238278Y-106283568D01*
X142242438Y-106264871D01*
X142295865Y-106089023D01*
X142295865Y-106089021D01*
X142297370Y-106084069D01*
X142326529Y-105862590D01*
X142328156Y-105796000D01*
X142309852Y-105573361D01*
X142266390Y-105400330D01*
X142256690Y-105361714D01*
X142256690Y-105361713D01*
X142255431Y-105356702D01*
X142253373Y-105351970D01*
X142253369Y-105351957D01*
X142244144Y-105330743D01*
X142235323Y-105260297D01*
X142265989Y-105196265D01*
X142326405Y-105158977D01*
X142359693Y-105154500D01*
X142714184Y-105154500D01*
X142782305Y-105174502D01*
X142828798Y-105228158D01*
X142834015Y-105241560D01*
X142865272Y-105337757D01*
X142868575Y-105343479D01*
X142868576Y-105343480D01*
X142879107Y-105361720D01*
X142960759Y-105503145D01*
X142965177Y-105508052D01*
X142965178Y-105508053D01*
X143023982Y-105573361D01*
X143088546Y-105645067D01*
X143243047Y-105757319D01*
X143249075Y-105760003D01*
X143249077Y-105760004D01*
X143266702Y-105767851D01*
X143417511Y-105834995D01*
X143510912Y-105854848D01*
X143597855Y-105873329D01*
X143597860Y-105873329D01*
X143604312Y-105874701D01*
X143795286Y-105874701D01*
X143801738Y-105873329D01*
X143801743Y-105873329D01*
X143888686Y-105854848D01*
X143982087Y-105834995D01*
X144132896Y-105767851D01*
X144150521Y-105760004D01*
X144150523Y-105760003D01*
X144156551Y-105757319D01*
X144311052Y-105645067D01*
X144375616Y-105573361D01*
X144434420Y-105508053D01*
X144434421Y-105508052D01*
X144438839Y-105503145D01*
X144520491Y-105361720D01*
X144531022Y-105343480D01*
X144531023Y-105343479D01*
X144534326Y-105337757D01*
X144593341Y-105156129D01*
X144599971Y-105093054D01*
X144612613Y-104972766D01*
X144613303Y-104966201D01*
X144610802Y-104942403D01*
X144594031Y-104782836D01*
X144594031Y-104782834D01*
X144593341Y-104776273D01*
X144534326Y-104594645D01*
X144438839Y-104429257D01*
X144311052Y-104287335D01*
X144156551Y-104175083D01*
X144150523Y-104172399D01*
X144150521Y-104172398D01*
X143988118Y-104100092D01*
X143988117Y-104100092D01*
X143982087Y-104097407D01*
X143888687Y-104077554D01*
X143801743Y-104059073D01*
X143801738Y-104059073D01*
X143795286Y-104057701D01*
X143736551Y-104057701D01*
X143668430Y-104037699D01*
X143650298Y-104023551D01*
X143635699Y-104009841D01*
X143635695Y-104009838D01*
X143629919Y-104004414D01*
X143622973Y-104000595D01*
X143622970Y-104000593D01*
X143612164Y-103994652D01*
X143595645Y-103983801D01*
X143595181Y-103983441D01*
X143579639Y-103971386D01*
X143572370Y-103968241D01*
X143572366Y-103968238D01*
X143539061Y-103953826D01*
X143528411Y-103948609D01*
X143489658Y-103927305D01*
X143470035Y-103922267D01*
X143451332Y-103915863D01*
X143440018Y-103910967D01*
X143440017Y-103910967D01*
X143432743Y-103907819D01*
X143424920Y-103906580D01*
X143424910Y-103906577D01*
X143389074Y-103900901D01*
X143377454Y-103898495D01*
X143342309Y-103889472D01*
X143342308Y-103889472D01*
X143334628Y-103887500D01*
X143314374Y-103887500D01*
X143294663Y-103885949D01*
X143282484Y-103884020D01*
X143274655Y-103882780D01*
X143266763Y-103883526D01*
X143230637Y-103886941D01*
X143218779Y-103887500D01*
X142362996Y-103887500D01*
X142294875Y-103867498D01*
X142248382Y-103813842D01*
X142238278Y-103743568D01*
X142242438Y-103724871D01*
X142295865Y-103549023D01*
X142295865Y-103549021D01*
X142297370Y-103544069D01*
X142326529Y-103322590D01*
X142328156Y-103256000D01*
X142309852Y-103033361D01*
X142263069Y-102847109D01*
X142256690Y-102821714D01*
X142256690Y-102821713D01*
X142255431Y-102816702D01*
X142253373Y-102811970D01*
X142253369Y-102811957D01*
X142244144Y-102790743D01*
X142235323Y-102720297D01*
X142265989Y-102656265D01*
X142326405Y-102618977D01*
X142359693Y-102614500D01*
X142801800Y-102614500D01*
X142869921Y-102634502D01*
X142889147Y-102650843D01*
X142889420Y-102650540D01*
X142894332Y-102654963D01*
X142898747Y-102659866D01*
X142920329Y-102675546D01*
X143046763Y-102767406D01*
X143053248Y-102772118D01*
X143059276Y-102774802D01*
X143059278Y-102774803D01*
X143164643Y-102821714D01*
X143227712Y-102849794D01*
X143321112Y-102869647D01*
X143408056Y-102888128D01*
X143408061Y-102888128D01*
X143414513Y-102889500D01*
X143605487Y-102889500D01*
X143611939Y-102888128D01*
X143611944Y-102888128D01*
X143698888Y-102869647D01*
X143792288Y-102849794D01*
X143855357Y-102821714D01*
X143960722Y-102774803D01*
X143960724Y-102774802D01*
X143966752Y-102772118D01*
X143973238Y-102767406D01*
X144038077Y-102720297D01*
X144121253Y-102659866D01*
X144168411Y-102607492D01*
X144244621Y-102522852D01*
X144244622Y-102522851D01*
X144249040Y-102517944D01*
X144344527Y-102352556D01*
X144403542Y-102170928D01*
X144423504Y-101981000D01*
X144412413Y-101875476D01*
X144404232Y-101797635D01*
X144404232Y-101797633D01*
X144403542Y-101791072D01*
X144344527Y-101609444D01*
X144338780Y-101599489D01*
X144295767Y-101524990D01*
X144249040Y-101444056D01*
X144225649Y-101418077D01*
X144125675Y-101307045D01*
X144125674Y-101307044D01*
X144121253Y-101302134D01*
X143966752Y-101189882D01*
X143960724Y-101187198D01*
X143960722Y-101187197D01*
X143862816Y-101143607D01*
X143808721Y-101097627D01*
X143788071Y-101029700D01*
X143807423Y-100961392D01*
X143862816Y-100913393D01*
X143960722Y-100869803D01*
X143960724Y-100869802D01*
X143966752Y-100867118D01*
X144121253Y-100754866D01*
X144249040Y-100612944D01*
X144320979Y-100488342D01*
X144341223Y-100453279D01*
X144341224Y-100453278D01*
X144344527Y-100447556D01*
X144403542Y-100265928D01*
X144423504Y-100076000D01*
X144403542Y-99886072D01*
X144344527Y-99704444D01*
X144340019Y-99696635D01*
X144252341Y-99544774D01*
X144249040Y-99539056D01*
X144220505Y-99507364D01*
X144125675Y-99402045D01*
X144125674Y-99402044D01*
X144121253Y-99397134D01*
X143966752Y-99284882D01*
X143960724Y-99282198D01*
X143960722Y-99282197D01*
X143798319Y-99209891D01*
X143798318Y-99209891D01*
X143792288Y-99207206D01*
X143698888Y-99187353D01*
X143611944Y-99168872D01*
X143611939Y-99168872D01*
X143605487Y-99167500D01*
X143549595Y-99167500D01*
X143481474Y-99147498D01*
X143460500Y-99130595D01*
X143378652Y-99048747D01*
X143371112Y-99040461D01*
X143367000Y-99033982D01*
X143317348Y-98987356D01*
X143314507Y-98984602D01*
X143294770Y-98964865D01*
X143291573Y-98962385D01*
X143282551Y-98954680D01*
X143256100Y-98929841D01*
X143250321Y-98924414D01*
X143243375Y-98920595D01*
X143243372Y-98920593D01*
X143232566Y-98914652D01*
X143216047Y-98903801D01*
X143215583Y-98903441D01*
X143200041Y-98891386D01*
X143192772Y-98888241D01*
X143192768Y-98888238D01*
X143159463Y-98873826D01*
X143148813Y-98868609D01*
X143110060Y-98847305D01*
X143090437Y-98842267D01*
X143071734Y-98835863D01*
X143060420Y-98830967D01*
X143060419Y-98830967D01*
X143053145Y-98827819D01*
X143045322Y-98826580D01*
X143045312Y-98826577D01*
X143009476Y-98820901D01*
X142997856Y-98818495D01*
X142962711Y-98809472D01*
X142962710Y-98809472D01*
X142955030Y-98807500D01*
X142934776Y-98807500D01*
X142915065Y-98805949D01*
X142902886Y-98804020D01*
X142895057Y-98802780D01*
X142887165Y-98803526D01*
X142851039Y-98806941D01*
X142839181Y-98807500D01*
X142362996Y-98807500D01*
X142294875Y-98787498D01*
X142248382Y-98733842D01*
X142238278Y-98663568D01*
X142242438Y-98644871D01*
X142295865Y-98469023D01*
X142295865Y-98469021D01*
X142297370Y-98464069D01*
X142326529Y-98242590D01*
X142328156Y-98176000D01*
X142309852Y-97953361D01*
X142301616Y-97920570D01*
X142287010Y-97862422D01*
X142289814Y-97791481D01*
X142330527Y-97733318D01*
X142396222Y-97706399D01*
X142460461Y-97716620D01*
X142588763Y-97773743D01*
X142682164Y-97793596D01*
X142769107Y-97812077D01*
X142769112Y-97812077D01*
X142775564Y-97813449D01*
X142966538Y-97813449D01*
X142972990Y-97812077D01*
X142972995Y-97812077D01*
X143059938Y-97793596D01*
X143153339Y-97773743D01*
X143159370Y-97771058D01*
X143321773Y-97698752D01*
X143321775Y-97698751D01*
X143327803Y-97696067D01*
X143482304Y-97583815D01*
X143524826Y-97536590D01*
X143605672Y-97446801D01*
X143605673Y-97446800D01*
X143610091Y-97441893D01*
X143705578Y-97276505D01*
X143764593Y-97094877D01*
X143769962Y-97043800D01*
X143783865Y-96911514D01*
X143784555Y-96904949D01*
X143774249Y-96806896D01*
X143765283Y-96721584D01*
X143765283Y-96721582D01*
X143764593Y-96715021D01*
X143705578Y-96533393D01*
X143695128Y-96515292D01*
X143654538Y-96444990D01*
X143610091Y-96368005D01*
X143586926Y-96342277D01*
X143486726Y-96230994D01*
X143486725Y-96230993D01*
X143482304Y-96226083D01*
X143358846Y-96136385D01*
X143315492Y-96080162D01*
X143309417Y-96009426D01*
X143342549Y-95946635D01*
X143404369Y-95911723D01*
X143432907Y-95908449D01*
X143601538Y-95908449D01*
X143607990Y-95907077D01*
X143607995Y-95907077D01*
X143694939Y-95888596D01*
X143788339Y-95868743D01*
X143896590Y-95820547D01*
X143956773Y-95793752D01*
X143956775Y-95793751D01*
X143962803Y-95791067D01*
X144117304Y-95678815D01*
X144185843Y-95602695D01*
X144240672Y-95541801D01*
X144240673Y-95541800D01*
X144245091Y-95536893D01*
X144319312Y-95408339D01*
X144337274Y-95377228D01*
X144337275Y-95377227D01*
X144340578Y-95371505D01*
X144399593Y-95189877D01*
X144400605Y-95180254D01*
X144418865Y-95006514D01*
X144419555Y-94999949D01*
X144415188Y-94958401D01*
X144400283Y-94816584D01*
X144400283Y-94816582D01*
X144399593Y-94810021D01*
X144340578Y-94628393D01*
X144245091Y-94463005D01*
X144226781Y-94442669D01*
X144121726Y-94325994D01*
X144121725Y-94325993D01*
X144117304Y-94321083D01*
X143962803Y-94208831D01*
X143956775Y-94206147D01*
X143956773Y-94206146D01*
X143794370Y-94133840D01*
X143794369Y-94133840D01*
X143788339Y-94131155D01*
X143694938Y-94111302D01*
X143607995Y-94092821D01*
X143607990Y-94092821D01*
X143601538Y-94091449D01*
X143548099Y-94091449D01*
X143479978Y-94071447D01*
X143459638Y-94053411D01*
X143459102Y-94053982D01*
X143409451Y-94007357D01*
X143406609Y-94004602D01*
X143386872Y-93984865D01*
X143383675Y-93982385D01*
X143374653Y-93974680D01*
X143348202Y-93949841D01*
X143342423Y-93944414D01*
X143335477Y-93940595D01*
X143335474Y-93940593D01*
X143324668Y-93934652D01*
X143308149Y-93923801D01*
X143307685Y-93923441D01*
X143292143Y-93911386D01*
X143284874Y-93908241D01*
X143284870Y-93908238D01*
X143251565Y-93893826D01*
X143240915Y-93888609D01*
X143202162Y-93867305D01*
X143182539Y-93862267D01*
X143163836Y-93855863D01*
X143152522Y-93850967D01*
X143152521Y-93850967D01*
X143145247Y-93847819D01*
X143137424Y-93846580D01*
X143137414Y-93846577D01*
X143101578Y-93840901D01*
X143089958Y-93838495D01*
X143054813Y-93829472D01*
X143054812Y-93829472D01*
X143047132Y-93827500D01*
X143026878Y-93827500D01*
X143007167Y-93825949D01*
X142994988Y-93824020D01*
X142987159Y-93822780D01*
X142979267Y-93823526D01*
X142943141Y-93826941D01*
X142931283Y-93827500D01*
X142321732Y-93827500D01*
X142253611Y-93807498D01*
X142207118Y-93753842D01*
X142197014Y-93683568D01*
X142208775Y-93645673D01*
X142230136Y-93602452D01*
X142232430Y-93597811D01*
X142297370Y-93384069D01*
X142326529Y-93162590D01*
X142328156Y-93096000D01*
X142309852Y-92873361D01*
X142255431Y-92656702D01*
X142166354Y-92451840D01*
X142045014Y-92264277D01*
X141894670Y-92099051D01*
X141890619Y-92095852D01*
X141890615Y-92095848D01*
X141723414Y-91963800D01*
X141723410Y-91963798D01*
X141719359Y-91960598D01*
X141678053Y-91937796D01*
X141628084Y-91887364D01*
X141613312Y-91817921D01*
X141638428Y-91751516D01*
X141665780Y-91724909D01*
X141709603Y-91693650D01*
X141844860Y-91597173D01*
X142003096Y-91439489D01*
X142133453Y-91258077D01*
X142232430Y-91057811D01*
X142297370Y-90844069D01*
X142326529Y-90622590D01*
X142328156Y-90556000D01*
X142309852Y-90333361D01*
X142297424Y-90283885D01*
X162472000Y-90283885D01*
X162476475Y-90299124D01*
X162477865Y-90300329D01*
X162485548Y-90302000D01*
X163557885Y-90302000D01*
X163573124Y-90297525D01*
X163574329Y-90296135D01*
X163576000Y-90288452D01*
X163576000Y-89216116D01*
X163571525Y-89200877D01*
X163570135Y-89199672D01*
X163562452Y-89198001D01*
X162935331Y-89198001D01*
X162928510Y-89198371D01*
X162877648Y-89203895D01*
X162862396Y-89207521D01*
X162741946Y-89252676D01*
X162726351Y-89261214D01*
X162624276Y-89337715D01*
X162611715Y-89350276D01*
X162535214Y-89452351D01*
X162526676Y-89467946D01*
X162481522Y-89588394D01*
X162477895Y-89603649D01*
X162472369Y-89654514D01*
X162472000Y-89661328D01*
X162472000Y-90283885D01*
X142297424Y-90283885D01*
X142255431Y-90116702D01*
X142166354Y-89911840D01*
X142045014Y-89724277D01*
X141894670Y-89559051D01*
X141890619Y-89555852D01*
X141890615Y-89555848D01*
X141723414Y-89423800D01*
X141723410Y-89423798D01*
X141719359Y-89420598D01*
X141523789Y-89312638D01*
X141518920Y-89310914D01*
X141518916Y-89310912D01*
X141318087Y-89239795D01*
X141318083Y-89239794D01*
X141313212Y-89238069D01*
X141308119Y-89237162D01*
X141308116Y-89237161D01*
X141098373Y-89199800D01*
X141098367Y-89199799D01*
X141093284Y-89198894D01*
X141019452Y-89197992D01*
X140875081Y-89196228D01*
X140875079Y-89196228D01*
X140869911Y-89196165D01*
X140649091Y-89229955D01*
X140436756Y-89299357D01*
X140238607Y-89402507D01*
X140234474Y-89405610D01*
X140234471Y-89405612D01*
X140151450Y-89467946D01*
X140059965Y-89536635D01*
X140056393Y-89540373D01*
X139978898Y-89621466D01*
X139917374Y-89656895D01*
X139846462Y-89653438D01*
X139788676Y-89612192D01*
X139769823Y-89578644D01*
X139728324Y-89467946D01*
X139719786Y-89452351D01*
X139643285Y-89350276D01*
X139630724Y-89337715D01*
X139528649Y-89261214D01*
X139513054Y-89252676D01*
X139392606Y-89207522D01*
X139377351Y-89203895D01*
X139326486Y-89198369D01*
X139319672Y-89198000D01*
X138697115Y-89198000D01*
X138681876Y-89202475D01*
X138680671Y-89203865D01*
X138679000Y-89211548D01*
X138679000Y-90684000D01*
X138658998Y-90752121D01*
X138605342Y-90798614D01*
X138553000Y-90810000D01*
X137085116Y-90810000D01*
X137069877Y-90814475D01*
X137068672Y-90815865D01*
X137067001Y-90823548D01*
X137067001Y-91450669D01*
X137067371Y-91457490D01*
X137072895Y-91508352D01*
X137076521Y-91523604D01*
X137121676Y-91644054D01*
X137130214Y-91659649D01*
X137206715Y-91761724D01*
X137219276Y-91774285D01*
X137321351Y-91850786D01*
X137336946Y-91859324D01*
X137445827Y-91900142D01*
X137502591Y-91942784D01*
X137527291Y-92009345D01*
X137512083Y-92078694D01*
X137492691Y-92105175D01*
X137369200Y-92234401D01*
X137365629Y-92238138D01*
X137239743Y-92422680D01*
X137145688Y-92625305D01*
X137085989Y-92840570D01*
X137062251Y-93062695D01*
X137062548Y-93067848D01*
X137062548Y-93067851D01*
X137068011Y-93162590D01*
X137075110Y-93285715D01*
X137076247Y-93290761D01*
X137076248Y-93290767D01*
X137096119Y-93378939D01*
X137124222Y-93503639D01*
X137208266Y-93710616D01*
X137259019Y-93793438D01*
X137322291Y-93896688D01*
X137324987Y-93901088D01*
X137471250Y-94069938D01*
X137552235Y-94137173D01*
X137635314Y-94206146D01*
X137643126Y-94212632D01*
X137713595Y-94253811D01*
X137716445Y-94255476D01*
X137765169Y-94307114D01*
X137778240Y-94376897D01*
X137751509Y-94442669D01*
X137711055Y-94476027D01*
X137698607Y-94482507D01*
X137694474Y-94485610D01*
X137694471Y-94485612D01*
X137670247Y-94503800D01*
X137519965Y-94616635D01*
X137365629Y-94778138D01*
X137239743Y-94962680D01*
X137219396Y-95006514D01*
X137178243Y-95095172D01*
X137145688Y-95165305D01*
X137085989Y-95380570D01*
X137062251Y-95602695D01*
X137062548Y-95607848D01*
X137062548Y-95607851D01*
X137068011Y-95702590D01*
X137075110Y-95825715D01*
X137076247Y-95830761D01*
X137076248Y-95830767D01*
X137093446Y-95907077D01*
X137124222Y-96043639D01*
X137161882Y-96136385D01*
X137196728Y-96222200D01*
X137208266Y-96250616D01*
X137259019Y-96333438D01*
X137322291Y-96436688D01*
X137324987Y-96441088D01*
X137471250Y-96609938D01*
X137643126Y-96752632D01*
X137713595Y-96793811D01*
X137716445Y-96795476D01*
X137765169Y-96847114D01*
X137778240Y-96916897D01*
X137751509Y-96982669D01*
X137711055Y-97016027D01*
X137698607Y-97022507D01*
X137694474Y-97025610D01*
X137694471Y-97025612D01*
X137524100Y-97153530D01*
X137519965Y-97156635D01*
X137516393Y-97160373D01*
X137411421Y-97270220D01*
X137365629Y-97318138D01*
X137239743Y-97502680D01*
X137224003Y-97536590D01*
X137148730Y-97698752D01*
X137145688Y-97705305D01*
X137085989Y-97920570D01*
X137062251Y-98142695D01*
X137062548Y-98147848D01*
X137062548Y-98147851D01*
X137068011Y-98242590D01*
X137075110Y-98365715D01*
X137076247Y-98370761D01*
X137076248Y-98370767D01*
X137096119Y-98458939D01*
X137124222Y-98583639D01*
X137208266Y-98790616D01*
X137256057Y-98868604D01*
X137322291Y-98976688D01*
X137324987Y-98981088D01*
X137471250Y-99149938D01*
X137643126Y-99292632D01*
X137713595Y-99333811D01*
X137716445Y-99335476D01*
X137765169Y-99387114D01*
X137778240Y-99456897D01*
X137751509Y-99522669D01*
X137711055Y-99556027D01*
X137698607Y-99562507D01*
X137694474Y-99565610D01*
X137694471Y-99565612D01*
X137670247Y-99583800D01*
X137519965Y-99696635D01*
X137365629Y-99858138D01*
X137239743Y-100042680D01*
X137224003Y-100076590D01*
X137175864Y-100180297D01*
X137145688Y-100245305D01*
X137085989Y-100460570D01*
X137062251Y-100682695D01*
X137062548Y-100687848D01*
X137062548Y-100687851D01*
X137073039Y-100869803D01*
X137075110Y-100905715D01*
X137076247Y-100910761D01*
X137076248Y-100910767D01*
X137092865Y-100984500D01*
X137124222Y-101123639D01*
X137162461Y-101217811D01*
X137200488Y-101311460D01*
X137208266Y-101330616D01*
X137259019Y-101413438D01*
X137322291Y-101516688D01*
X137324987Y-101521088D01*
X137471250Y-101689938D01*
X137643126Y-101832632D01*
X137713595Y-101873811D01*
X137716445Y-101875476D01*
X137765169Y-101927114D01*
X137778240Y-101996897D01*
X137751509Y-102062669D01*
X137711055Y-102096027D01*
X137698607Y-102102507D01*
X137694474Y-102105610D01*
X137694471Y-102105612D01*
X137599117Y-102177206D01*
X137519965Y-102236635D01*
X137365629Y-102398138D01*
X137239743Y-102582680D01*
X137224973Y-102614500D01*
X137153611Y-102768237D01*
X137145688Y-102785305D01*
X137085989Y-103000570D01*
X137062251Y-103222695D01*
X137062548Y-103227848D01*
X137062548Y-103227851D01*
X137068011Y-103322590D01*
X137075110Y-103445715D01*
X137076247Y-103450761D01*
X137076248Y-103450767D01*
X137096119Y-103538939D01*
X137124222Y-103663639D01*
X137208266Y-103870616D01*
X137256057Y-103948604D01*
X137322291Y-104056688D01*
X137324987Y-104061088D01*
X137471250Y-104229938D01*
X137643126Y-104372632D01*
X137713595Y-104413811D01*
X137716445Y-104415476D01*
X137765169Y-104467114D01*
X137778240Y-104536897D01*
X137751509Y-104602669D01*
X137711055Y-104636027D01*
X137698607Y-104642507D01*
X137694474Y-104645610D01*
X137694471Y-104645612D01*
X137524100Y-104773530D01*
X137519965Y-104776635D01*
X137365629Y-104938138D01*
X137239743Y-105122680D01*
X137215688Y-105174502D01*
X137175864Y-105260297D01*
X137145688Y-105325305D01*
X137085989Y-105540570D01*
X137062251Y-105762695D01*
X137062548Y-105767848D01*
X137062548Y-105767851D01*
X137068011Y-105862590D01*
X137075110Y-105985715D01*
X137076247Y-105990761D01*
X137076248Y-105990767D01*
X137096119Y-106078939D01*
X137124222Y-106203639D01*
X137162461Y-106297811D01*
X137200488Y-106391460D01*
X137208266Y-106410616D01*
X137259019Y-106493438D01*
X137322291Y-106596688D01*
X137324987Y-106601088D01*
X137471250Y-106769938D01*
X137643126Y-106912632D01*
X137713595Y-106953811D01*
X137716445Y-106955476D01*
X137765169Y-107007114D01*
X137778240Y-107076897D01*
X137751509Y-107142669D01*
X137711055Y-107176027D01*
X137698607Y-107182507D01*
X137694474Y-107185610D01*
X137694471Y-107185612D01*
X137599117Y-107257206D01*
X137519965Y-107316635D01*
X137365629Y-107478138D01*
X137239743Y-107662680D01*
X137224973Y-107694500D01*
X137153611Y-107848237D01*
X137145688Y-107865305D01*
X137085989Y-108080570D01*
X137062251Y-108302695D01*
X137062548Y-108307848D01*
X137062548Y-108307851D01*
X137068011Y-108402590D01*
X137075110Y-108525715D01*
X137076247Y-108530761D01*
X137076248Y-108530767D01*
X137089309Y-108588721D01*
X137124222Y-108743639D01*
X137208266Y-108950616D01*
X137259019Y-109033438D01*
X137322291Y-109136688D01*
X137324987Y-109141088D01*
X137471250Y-109309938D01*
X137643126Y-109452632D01*
X137713595Y-109493811D01*
X137716445Y-109495476D01*
X137765169Y-109547114D01*
X137778240Y-109616897D01*
X137751509Y-109682669D01*
X137711055Y-109716027D01*
X137698607Y-109722507D01*
X137694474Y-109725610D01*
X137694471Y-109725612D01*
X137524100Y-109853530D01*
X137519965Y-109856635D01*
X137516393Y-109860373D01*
X137371776Y-110011706D01*
X137365629Y-110018138D01*
X137362720Y-110022403D01*
X137362714Y-110022411D01*
X137350404Y-110040457D01*
X137239743Y-110202680D01*
X137224973Y-110234500D01*
X137171697Y-110349274D01*
X137145688Y-110405305D01*
X137085989Y-110620570D01*
X137062251Y-110842695D01*
X137062548Y-110847848D01*
X137062548Y-110847851D01*
X137068011Y-110942590D01*
X137075110Y-111065715D01*
X137076247Y-111070761D01*
X137076248Y-111070767D01*
X137096119Y-111158939D01*
X137124222Y-111283639D01*
X137208266Y-111490616D01*
X137250396Y-111559366D01*
X137322291Y-111676688D01*
X137324987Y-111681088D01*
X137471250Y-111849938D01*
X137643126Y-111992632D01*
X137680362Y-112014391D01*
X137716445Y-112035476D01*
X137765169Y-112087114D01*
X137778240Y-112156897D01*
X137751509Y-112222669D01*
X137711055Y-112256027D01*
X137698607Y-112262507D01*
X137694474Y-112265610D01*
X137694471Y-112265612D01*
X137583044Y-112349274D01*
X137519965Y-112396635D01*
X137365629Y-112558138D01*
X137239743Y-112742680D01*
X137224973Y-112774500D01*
X137177555Y-112876654D01*
X137145688Y-112945305D01*
X137085989Y-113160570D01*
X137062251Y-113382695D01*
X135763500Y-113382695D01*
X135763500Y-90283885D01*
X137067000Y-90283885D01*
X137071475Y-90299124D01*
X137072865Y-90300329D01*
X137080548Y-90302000D01*
X138152885Y-90302000D01*
X138168124Y-90297525D01*
X138169329Y-90296135D01*
X138171000Y-90288452D01*
X138171000Y-89216116D01*
X138166525Y-89200877D01*
X138165135Y-89199672D01*
X138157452Y-89198001D01*
X137530331Y-89198001D01*
X137523510Y-89198371D01*
X137472648Y-89203895D01*
X137457396Y-89207521D01*
X137336946Y-89252676D01*
X137321351Y-89261214D01*
X137219276Y-89337715D01*
X137206715Y-89350276D01*
X137130214Y-89452351D01*
X137121676Y-89467946D01*
X137076522Y-89588394D01*
X137072895Y-89603649D01*
X137067369Y-89654514D01*
X137067000Y-89661328D01*
X137067000Y-90283885D01*
X135763500Y-90283885D01*
X135763500Y-85852000D01*
X137668000Y-85852000D01*
X141224000Y-85852000D01*
X141224000Y-82296000D01*
X137668000Y-82296000D01*
X137668000Y-85852000D01*
X135763500Y-85852000D01*
X135763500Y-84255852D01*
X135765354Y-84234320D01*
X135766972Y-84224993D01*
X135766972Y-84224990D01*
X135768506Y-84216146D01*
X135766438Y-84197880D01*
X135765966Y-84174624D01*
X135784449Y-83918835D01*
X135786199Y-83905127D01*
X135831686Y-83657781D01*
X135837709Y-83625031D01*
X135840949Y-83611600D01*
X135922823Y-83338830D01*
X135927515Y-83325835D01*
X136038769Y-83063672D01*
X136044857Y-83051267D01*
X136184143Y-82802876D01*
X136191549Y-82791217D01*
X136357218Y-82559550D01*
X136365853Y-82548777D01*
X136555900Y-82336641D01*
X136565641Y-82326900D01*
X136777777Y-82136853D01*
X136788550Y-82128218D01*
X136875812Y-82065815D01*
X137020217Y-81962549D01*
X137031870Y-81955147D01*
X137141733Y-81893541D01*
X137280267Y-81815857D01*
X137292672Y-81809769D01*
X137477697Y-81731250D01*
X137554838Y-81698514D01*
X137567830Y-81693823D01*
X137840603Y-81611948D01*
X137854031Y-81608709D01*
X138134128Y-81557199D01*
X138147834Y-81555449D01*
X138227476Y-81549694D01*
X138396331Y-81537493D01*
X138422643Y-81538349D01*
X138423706Y-81538496D01*
X138423708Y-81538496D01*
X138432596Y-81539723D01*
X138455916Y-81536263D01*
X138458606Y-81535864D01*
X138477098Y-81534500D01*
X166320664Y-81534500D01*
X166340037Y-81535998D01*
G37*
%TD.AperFunction*%
%TD*%
M02*
