%TF.GenerationSoftware,KiCad,Pcbnew,(6.0.7)*%
%TF.CreationDate,2022-11-10T23:08:22-08:00*%
%TF.ProjectId,memsbreakout_w50,6d656d73-6272-4656-916b-6f75745f7735,0*%
%TF.SameCoordinates,Original*%
%TF.FileFunction,Copper,L1,Top*%
%TF.FilePolarity,Positive*%
%FSLAX46Y46*%
G04 Gerber Fmt 4.6, Leading zero omitted, Abs format (unit mm)*
G04 Created by KiCad (PCBNEW (6.0.7)) date 2022-11-10 23:08:22*
%MOMM*%
%LPD*%
G01*
G04 APERTURE LIST*
%TA.AperFunction,ComponentPad*%
%ADD10O,1.700000X1.700000*%
%TD*%
%TA.AperFunction,ComponentPad*%
%ADD11R,1.700000X1.700000*%
%TD*%
%TA.AperFunction,SMDPad,CuDef*%
%ADD12R,0.700000X0.700000*%
%TD*%
%TA.AperFunction,ViaPad*%
%ADD13C,0.800000*%
%TD*%
%TA.AperFunction,Conductor*%
%ADD14C,0.250000*%
%TD*%
G04 APERTURE END LIST*
D10*
%TO.P,J8,20,Pin_20*%
%TO.N,R20*%
X166370000Y-113416000D03*
%TO.P,J8,19,Pin_19*%
%TO.N,R19*%
X163830000Y-113416000D03*
%TO.P,J8,18,Pin_18*%
%TO.N,R18*%
X166370000Y-110876000D03*
%TO.P,J8,17,Pin_17*%
%TO.N,R17*%
X163830000Y-110876000D03*
%TO.P,J8,16,Pin_16*%
%TO.N,R16*%
X166370000Y-108336000D03*
%TO.P,J8,15,Pin_15*%
%TO.N,R15*%
X163830000Y-108336000D03*
%TO.P,J8,14,Pin_14*%
%TO.N,R14*%
X166370000Y-105796000D03*
%TO.P,J8,13,Pin_13*%
%TO.N,R13*%
X163830000Y-105796000D03*
%TO.P,J8,12,Pin_12*%
%TO.N,R12*%
X166370000Y-103256000D03*
%TO.P,J8,11,Pin_11*%
%TO.N,R11*%
X163830000Y-103256000D03*
%TO.P,J8,10,Pin_10*%
%TO.N,R10*%
X166370000Y-100716000D03*
%TO.P,J8,9,Pin_9*%
%TO.N,R9*%
X163830000Y-100716000D03*
%TO.P,J8,8,Pin_8*%
%TO.N,R8*%
X166370000Y-98176000D03*
%TO.P,J8,7,Pin_7*%
%TO.N,R7*%
X163830000Y-98176000D03*
%TO.P,J8,6,Pin_6*%
%TO.N,R6*%
X166370000Y-95636000D03*
%TO.P,J8,5,Pin_5*%
%TO.N,R5*%
X163830000Y-95636000D03*
%TO.P,J8,4,Pin_4*%
%TO.N,R4*%
X166370000Y-93096000D03*
%TO.P,J8,3,Pin_3*%
%TO.N,R3*%
X163830000Y-93096000D03*
%TO.P,J8,2,Pin_2*%
%TO.N,R2*%
X166370000Y-90556000D03*
D11*
%TO.P,J8,1,Pin_1*%
%TO.N,R1*%
X163830000Y-90556000D03*
%TD*%
D12*
%TO.P,J6,1,Pin_1*%
%TO.N,R1*%
X161290000Y-93981000D03*
%TO.P,J6,2,Pin_2*%
%TO.N,R2*%
X161290000Y-94981000D03*
%TO.P,J6,3,Pin_3*%
%TO.N,R3*%
X161290000Y-95981000D03*
%TO.P,J6,4,Pin_4*%
%TO.N,R4*%
X161290000Y-96981000D03*
%TO.P,J6,5,Pin_5*%
%TO.N,R5*%
X161290000Y-97981000D03*
%TO.P,J6,6,Pin_6*%
%TO.N,R6*%
X161290000Y-98981000D03*
%TO.P,J6,7,Pin_7*%
%TO.N,R7*%
X161290000Y-99981000D03*
%TO.P,J6,8,Pin_8*%
%TO.N,R8*%
X161290000Y-100981000D03*
%TO.P,J6,9,Pin_9*%
%TO.N,R9*%
X161290000Y-101981000D03*
%TO.P,J6,10,Pin_10*%
%TO.N,R10*%
X161290000Y-102981000D03*
%TD*%
%TO.P,J7,1,Pin_1*%
%TO.N,R11*%
X161290000Y-105156000D03*
%TO.P,J7,2,Pin_2*%
%TO.N,R12*%
X161290000Y-106156000D03*
%TO.P,J7,3,Pin_3*%
%TO.N,R13*%
X161290000Y-107156000D03*
%TO.P,J7,4,Pin_4*%
%TO.N,R14*%
X161290000Y-108156000D03*
%TO.P,J7,5,Pin_5*%
%TO.N,R15*%
X161290000Y-109156000D03*
%TO.P,J7,6,Pin_6*%
%TO.N,R16*%
X161290000Y-110156000D03*
%TO.P,J7,7,Pin_7*%
%TO.N,R17*%
X161290000Y-111156000D03*
%TO.P,J7,8,Pin_8*%
%TO.N,R18*%
X161290000Y-112156000D03*
%TO.P,J7,9,Pin_9*%
%TO.N,R19*%
X161290000Y-113156000D03*
%TO.P,J7,10,Pin_10*%
%TO.N,R20*%
X161290000Y-114156000D03*
%TD*%
D11*
%TO.P,J4,1,Pin_1*%
%TO.N,R1*%
X140975000Y-117094000D03*
D10*
%TO.P,J4,2,Pin_2*%
%TO.N,Net-(J3-Pad2)*%
X143515000Y-117094000D03*
%TO.P,J4,3,Pin_3*%
%TO.N,Net-(J3-Pad3)*%
X146055000Y-117094000D03*
%TO.P,J4,4,Pin_4*%
%TO.N,Net-(J3-Pad4)*%
X148595000Y-117094000D03*
%TO.P,J4,5,Pin_5*%
%TO.N,Net-(J3-Pad5)*%
X151135000Y-117094000D03*
%TO.P,J4,6,Pin_6*%
%TO.N,Net-(J3-Pad6)*%
X153675000Y-117094000D03*
%TO.P,J4,7,Pin_7*%
%TO.N,Net-(J3-Pad7)*%
X156215000Y-117094000D03*
%TO.P,J4,8,Pin_8*%
%TO.N,Net-(J3-Pad8)*%
X158755000Y-117094000D03*
%TO.P,J4,9,Pin_9*%
%TO.N,Net-(J3-Pad9)*%
X161295000Y-117094000D03*
%TO.P,J4,10,Pin_10*%
%TO.N,Net-(J3-Pad10)*%
X163835000Y-117094000D03*
%TD*%
D12*
%TO.P,J2,1,Pin_1*%
%TO.N,L11*%
X144780000Y-105156000D03*
%TO.P,J2,2,Pin_2*%
%TO.N,L12*%
X144780000Y-106156000D03*
%TO.P,J2,3,Pin_3*%
%TO.N,L13*%
X144780000Y-107156000D03*
%TO.P,J2,4,Pin_4*%
%TO.N,L14*%
X144780000Y-108156000D03*
%TO.P,J2,5,Pin_5*%
%TO.N,L15*%
X144780000Y-109156000D03*
%TO.P,J2,6,Pin_6*%
%TO.N,L16*%
X144780000Y-110156000D03*
%TO.P,J2,7,Pin_7*%
%TO.N,L17*%
X144780000Y-111156000D03*
%TO.P,J2,8,Pin_8*%
%TO.N,L18*%
X144780000Y-112156000D03*
%TO.P,J2,9,Pin_9*%
%TO.N,L19*%
X144780000Y-113156000D03*
%TO.P,J2,10,Pin_10*%
%TO.N,L20*%
X144780000Y-114156000D03*
%TD*%
D11*
%TO.P,J1,1,Pin_1*%
%TO.N,R1*%
X138425000Y-90556000D03*
D10*
%TO.P,J1,2,Pin_2*%
%TO.N,L2*%
X140965000Y-90556000D03*
%TO.P,J1,3,Pin_3*%
%TO.N,L3*%
X138425000Y-93096000D03*
%TO.P,J1,4,Pin_4*%
%TO.N,L4*%
X140965000Y-93096000D03*
%TO.P,J1,5,Pin_5*%
%TO.N,L5*%
X138425000Y-95636000D03*
%TO.P,J1,6,Pin_6*%
%TO.N,L6*%
X140965000Y-95636000D03*
%TO.P,J1,7,Pin_7*%
%TO.N,L7*%
X138425000Y-98176000D03*
%TO.P,J1,8,Pin_8*%
%TO.N,L8*%
X140965000Y-98176000D03*
%TO.P,J1,9,Pin_9*%
%TO.N,L9*%
X138425000Y-100716000D03*
%TO.P,J1,10,Pin_10*%
%TO.N,L10*%
X140965000Y-100716000D03*
%TO.P,J1,11,Pin_11*%
%TO.N,L11*%
X138425000Y-103256000D03*
%TO.P,J1,12,Pin_12*%
%TO.N,L12*%
X140965000Y-103256000D03*
%TO.P,J1,13,Pin_13*%
%TO.N,L13*%
X138425000Y-105796000D03*
%TO.P,J1,14,Pin_14*%
%TO.N,L14*%
X140965000Y-105796000D03*
%TO.P,J1,15,Pin_15*%
%TO.N,L15*%
X138425000Y-108336000D03*
%TO.P,J1,16,Pin_16*%
%TO.N,L16*%
X140965000Y-108336000D03*
%TO.P,J1,17,Pin_17*%
%TO.N,L17*%
X138425000Y-110876000D03*
%TO.P,J1,18,Pin_18*%
%TO.N,L18*%
X140965000Y-110876000D03*
%TO.P,J1,19,Pin_19*%
%TO.N,L19*%
X138425000Y-113416000D03*
%TO.P,J1,20,Pin_20*%
%TO.N,L20*%
X140965000Y-113416000D03*
%TD*%
D12*
%TO.P,J3,1,Pin_1*%
%TO.N,R1*%
X148908000Y-114300000D03*
%TO.P,J3,2,Pin_2*%
%TO.N,Net-(J3-Pad2)*%
X149908000Y-114300000D03*
%TO.P,J3,3,Pin_3*%
%TO.N,Net-(J3-Pad3)*%
X150908000Y-114300000D03*
%TO.P,J3,4,Pin_4*%
%TO.N,Net-(J3-Pad4)*%
X151908000Y-114300000D03*
%TO.P,J3,5,Pin_5*%
%TO.N,Net-(J3-Pad5)*%
X152908000Y-114300000D03*
%TO.P,J3,6,Pin_6*%
%TO.N,Net-(J3-Pad6)*%
X153908000Y-114300000D03*
%TO.P,J3,7,Pin_7*%
%TO.N,Net-(J3-Pad7)*%
X154908000Y-114300000D03*
%TO.P,J3,8,Pin_8*%
%TO.N,Net-(J3-Pad8)*%
X155908000Y-114300000D03*
%TO.P,J3,9,Pin_9*%
%TO.N,Net-(J3-Pad9)*%
X156908000Y-114300000D03*
%TO.P,J3,10,Pin_10*%
%TO.N,Net-(J3-Pad10)*%
X157908000Y-114300000D03*
%TD*%
%TO.P,J5,1,Pin_1*%
%TO.N,R1*%
X144780000Y-93981000D03*
%TO.P,J5,2,Pin_2*%
%TO.N,L2*%
X144780000Y-94981000D03*
%TO.P,J5,3,Pin_3*%
%TO.N,L3*%
X144780000Y-95981000D03*
%TO.P,J5,4,Pin_4*%
%TO.N,L4*%
X144780000Y-96981000D03*
%TO.P,J5,5,Pin_5*%
%TO.N,L5*%
X144780000Y-97981000D03*
%TO.P,J5,6,Pin_6*%
%TO.N,L6*%
X144780000Y-98981000D03*
%TO.P,J5,7,Pin_7*%
%TO.N,L7*%
X144780000Y-99981000D03*
%TO.P,J5,8,Pin_8*%
%TO.N,L8*%
X144780000Y-100981000D03*
%TO.P,J5,9,Pin_9*%
%TO.N,L9*%
X144780000Y-101981000D03*
%TO.P,J5,10,Pin_10*%
%TO.N,L10*%
X144780000Y-102981000D03*
%TD*%
D13*
%TO.N,Net-(J3-Pad10)*%
X159766000Y-114300000D03*
%TO.N,R1*%
X146812000Y-114046000D03*
X161290000Y-92710000D03*
%TO.N,L3*%
X143506051Y-94999949D03*
%TO.N,L5*%
X142871051Y-96904949D03*
%TO.N,L7*%
X143510000Y-100076000D03*
%TO.N,L9*%
X143510000Y-101981000D03*
%TO.N,L11*%
X143699799Y-104966201D03*
%TO.N,L13*%
X143510000Y-107061000D03*
%TO.N,L15*%
X143510000Y-108966000D03*
%TO.N,L17*%
X143510000Y-110880500D03*
%TO.N,L19*%
X143510000Y-112880500D03*
%TO.N,R1*%
X146812000Y-87376000D03*
X146685000Y-112776000D03*
X159385000Y-87376000D03*
%TD*%
D14*
%TO.N,R2*%
X161243695Y-91731000D02*
X165195000Y-91731000D01*
X160940000Y-94981000D02*
X160565000Y-94606000D01*
X160565000Y-94606000D02*
X160565000Y-92409695D01*
X161290000Y-94981000D02*
X160940000Y-94981000D01*
X160565000Y-92409695D02*
X161243695Y-91731000D01*
X165195000Y-91731000D02*
X166370000Y-90556000D01*
%TO.N,Net-(J3-Pad2)*%
X149184000Y-115374000D02*
X145235000Y-115374000D01*
X149908000Y-114650000D02*
X149184000Y-115374000D01*
X149908000Y-114300000D02*
X149908000Y-114650000D01*
X145235000Y-115374000D02*
X143515000Y-117094000D01*
%TO.N,Net-(J3-Pad4)*%
X149357000Y-116332000D02*
X148595000Y-117094000D01*
X151908000Y-114659299D02*
X150235299Y-116332000D01*
X150235299Y-116332000D02*
X149357000Y-116332000D01*
X151908000Y-114300000D02*
X151908000Y-114659299D01*
%TO.N,Net-(J3-Pad3)*%
X150908000Y-115022903D02*
X150106903Y-115824000D01*
X150908000Y-114300000D02*
X150908000Y-115022903D01*
X147325000Y-115824000D02*
X146055000Y-117094000D01*
X150106903Y-115824000D02*
X147325000Y-115824000D01*
%TO.N,Net-(J3-Pad5)*%
X152908000Y-115321000D02*
X151135000Y-117094000D01*
X152908000Y-114300000D02*
X152908000Y-115321000D01*
%TO.N,Net-(J3-Pad6)*%
X153908000Y-116861000D02*
X153675000Y-117094000D01*
X153908000Y-114300000D02*
X153908000Y-116861000D01*
%TO.N,Net-(J3-Pad7)*%
X154908000Y-115787000D02*
X156215000Y-117094000D01*
X154908000Y-114300000D02*
X154908000Y-115787000D01*
%TO.N,Net-(J3-Pad8)*%
X158102000Y-117094000D02*
X158755000Y-117094000D01*
X155908000Y-114900000D02*
X158102000Y-117094000D01*
X155908000Y-114300000D02*
X155908000Y-114900000D01*
%TO.N,Net-(J3-Pad9)*%
X159730778Y-115529778D02*
X161295000Y-117094000D01*
X157787778Y-115529778D02*
X159730778Y-115529778D01*
X156908000Y-114650000D02*
X157787778Y-115529778D01*
X156908000Y-114300000D02*
X156908000Y-114650000D01*
%TO.N,Net-(J3-Pad10)*%
X157908000Y-114300000D02*
X159766000Y-114300000D01*
%TO.N,R1*%
X147066000Y-114300000D02*
X146812000Y-114046000D01*
X148908000Y-114300000D02*
X147066000Y-114300000D01*
%TO.N,R11*%
X161290000Y-105156000D02*
X161930000Y-105156000D01*
X161930000Y-105156000D02*
X163830000Y-103256000D01*
%TO.N,R12*%
X163343299Y-104621000D02*
X165005000Y-104621000D01*
X161808299Y-106156000D02*
X163343299Y-104621000D01*
X161290000Y-106156000D02*
X161808299Y-106156000D01*
X165005000Y-104621000D02*
X166370000Y-103256000D01*
%TO.N,R13*%
X162470000Y-107156000D02*
X163830000Y-105796000D01*
X161290000Y-107156000D02*
X162470000Y-107156000D01*
%TO.N,R14*%
X165005000Y-107161000D02*
X166370000Y-105796000D01*
X162348299Y-108156000D02*
X163343299Y-107161000D01*
X161290000Y-108156000D02*
X162348299Y-108156000D01*
X163343299Y-107161000D02*
X165005000Y-107161000D01*
%TO.N,R15*%
X161290000Y-109156000D02*
X163010000Y-109156000D01*
X163010000Y-109156000D02*
X163830000Y-108336000D01*
%TO.N,R16*%
X165005000Y-109701000D02*
X166370000Y-108336000D01*
X163343299Y-109701000D02*
X165005000Y-109701000D01*
X162888299Y-110156000D02*
X163343299Y-109701000D01*
X161290000Y-110156000D02*
X162888299Y-110156000D01*
%TO.N,R17*%
X163550000Y-111156000D02*
X163830000Y-110876000D01*
X161290000Y-111156000D02*
X163550000Y-111156000D01*
%TO.N,R18*%
X161290000Y-112156000D02*
X165090000Y-112156000D01*
X165090000Y-112156000D02*
X166370000Y-110876000D01*
%TO.N,R19*%
X163570000Y-113156000D02*
X163830000Y-113416000D01*
X161290000Y-113156000D02*
X163570000Y-113156000D01*
%TO.N,R20*%
X165195000Y-114591000D02*
X166370000Y-113416000D01*
X161725000Y-114591000D02*
X165195000Y-114591000D01*
X161290000Y-114156000D02*
X161725000Y-114591000D01*
%TO.N,R1*%
X161290000Y-93981000D02*
X161290000Y-92710000D01*
%TO.N,R3*%
X162205000Y-95666000D02*
X162205000Y-94721000D01*
X161890000Y-95981000D02*
X162205000Y-95666000D01*
X161290000Y-95981000D02*
X161890000Y-95981000D01*
X162205000Y-94721000D02*
X163830000Y-93096000D01*
%TO.N,R4*%
X165195000Y-94271000D02*
X166370000Y-93096000D01*
X163533299Y-94271000D02*
X165195000Y-94271000D01*
X162655000Y-95149299D02*
X163533299Y-94271000D01*
X161640000Y-96981000D02*
X162655000Y-95966000D01*
X161290000Y-96981000D02*
X161640000Y-96981000D01*
X162655000Y-95966000D02*
X162655000Y-95149299D01*
%TO.N,R5*%
X161485000Y-97981000D02*
X163830000Y-95636000D01*
X161290000Y-97981000D02*
X161485000Y-97981000D01*
%TO.N,R6*%
X163405999Y-96811000D02*
X165195000Y-96811000D01*
X162655000Y-97561999D02*
X163405999Y-96811000D01*
X165195000Y-96811000D02*
X166370000Y-95636000D01*
X162655000Y-98216000D02*
X162655000Y-97561999D01*
X161290000Y-98981000D02*
X161890000Y-98981000D01*
X161890000Y-98981000D02*
X162655000Y-98216000D01*
%TO.N,R7*%
X161639000Y-99981000D02*
X163444000Y-98176000D01*
X163444000Y-98176000D02*
X163830000Y-98176000D01*
X161290000Y-99981000D02*
X161639000Y-99981000D01*
%TO.N,R8*%
X161655000Y-100981000D02*
X161290000Y-100981000D01*
X163185722Y-99450278D02*
X161655000Y-100981000D01*
X165095722Y-99450278D02*
X163185722Y-99450278D01*
X166370000Y-98176000D02*
X165095722Y-99450278D01*
%TO.N,R9*%
X162565000Y-101981000D02*
X163830000Y-100716000D01*
X161290000Y-101981000D02*
X162565000Y-101981000D01*
%TO.N,R10*%
X165195000Y-101891000D02*
X166370000Y-100716000D01*
X162443299Y-102981000D02*
X163533299Y-101891000D01*
X161290000Y-102981000D02*
X162443299Y-102981000D01*
X163533299Y-101891000D02*
X165195000Y-101891000D01*
%TO.N,L2*%
X144511701Y-94981000D02*
X140965000Y-91434299D01*
X144780000Y-94981000D02*
X144511701Y-94981000D01*
X140965000Y-91434299D02*
X140965000Y-90556000D01*
%TO.N,L3*%
X144487102Y-95981000D02*
X143506051Y-94999949D01*
X144780000Y-95981000D02*
X144487102Y-95981000D01*
%TO.N,L4*%
X144780000Y-96981000D02*
X143971701Y-96981000D01*
X140965000Y-93974299D02*
X140965000Y-93096000D01*
X143971701Y-96981000D02*
X140965000Y-93974299D01*
%TO.N,L5*%
X143947102Y-97981000D02*
X142871051Y-96904949D01*
X144780000Y-97981000D02*
X143947102Y-97981000D01*
%TO.N,L6*%
X140965000Y-96514299D02*
X140965000Y-95636000D01*
X144780000Y-98981000D02*
X143431701Y-98981000D01*
X143431701Y-98981000D02*
X140965000Y-96514299D01*
%TO.N,L7*%
X143605000Y-99981000D02*
X144780000Y-99981000D01*
X143510000Y-100076000D02*
X143605000Y-99981000D01*
%TO.N,L8*%
X142891701Y-100981000D02*
X140965000Y-99054299D01*
X144780000Y-100981000D02*
X142891701Y-100981000D01*
X140965000Y-99054299D02*
X140965000Y-98176000D01*
%TO.N,L9*%
X144780000Y-101981000D02*
X143510000Y-101981000D01*
%TO.N,L10*%
X140965000Y-101096305D02*
X140965000Y-100716000D01*
X142849695Y-102981000D02*
X140965000Y-101096305D01*
X144780000Y-102981000D02*
X142849695Y-102981000D01*
%TO.N,L11*%
X143889598Y-105156000D02*
X144780000Y-105156000D01*
X143699799Y-104966201D02*
X143889598Y-105156000D01*
%TO.N,L12*%
X144780000Y-106156000D02*
X143865000Y-106156000D01*
X143865000Y-106156000D02*
X140965000Y-103256000D01*
%TO.N,L13*%
X144780000Y-107156000D02*
X143605000Y-107156000D01*
X143605000Y-107156000D02*
X143510000Y-107061000D01*
%TO.N,L14*%
X144780000Y-108156000D02*
X143325000Y-108156000D01*
X143325000Y-108156000D02*
X140965000Y-105796000D01*
%TO.N,L15*%
X143700000Y-109156000D02*
X143510000Y-108966000D01*
X144780000Y-109156000D02*
X143700000Y-109156000D01*
%TO.N,L16*%
X144780000Y-110156000D02*
X142785000Y-110156000D01*
X142785000Y-110156000D02*
X140965000Y-108336000D01*
%TO.N,L17*%
X143510000Y-110880500D02*
X143785500Y-111156000D01*
X143785500Y-111156000D02*
X144780000Y-111156000D01*
%TO.N,L18*%
X144780000Y-112156000D02*
X142245000Y-112156000D01*
X142245000Y-112156000D02*
X140965000Y-110876000D01*
%TO.N,L19*%
X143785500Y-113156000D02*
X143510000Y-112880500D01*
X144780000Y-113156000D02*
X143785500Y-113156000D01*
%TO.N,L20*%
X141705000Y-114156000D02*
X140965000Y-113416000D01*
X144780000Y-114156000D02*
X141705000Y-114156000D01*
%TO.N,R1*%
X139600000Y-89381000D02*
X138425000Y-90556000D01*
X144780000Y-93981000D02*
X144780000Y-92709299D01*
X144780000Y-93981000D02*
X144780000Y-89408000D01*
X141451701Y-89381000D02*
X139600000Y-89381000D01*
X144780000Y-92709299D02*
X141451701Y-89381000D01*
X144780000Y-89408000D02*
X146812000Y-87376000D01*
%TD*%
%TA.AperFunction,Conductor*%
%TO.N,R1*%
G36*
X166340037Y-81535998D02*
G01*
X166354907Y-81538312D01*
X166354908Y-81538312D01*
X166363777Y-81539692D01*
X166383027Y-81537173D01*
X166405613Y-81536263D01*
X166697221Y-81550718D01*
X166709661Y-81551955D01*
X167027439Y-81599589D01*
X167039695Y-81602054D01*
X167204535Y-81643803D01*
X167351172Y-81680942D01*
X167363123Y-81684609D01*
X167665252Y-81793977D01*
X167676780Y-81798809D01*
X167712383Y-81815857D01*
X167966591Y-81937585D01*
X167977584Y-81943537D01*
X168252217Y-82110349D01*
X168262567Y-82117361D01*
X168499956Y-82296000D01*
X168519304Y-82310560D01*
X168528908Y-82318563D01*
X168765243Y-82536261D01*
X168774007Y-82545177D01*
X168987606Y-82785225D01*
X168995442Y-82794964D01*
X169184199Y-83054996D01*
X169191026Y-83065456D01*
X169353088Y-83342921D01*
X169358850Y-83354016D01*
X169492615Y-83646170D01*
X169497249Y-83657781D01*
X169586698Y-83918835D01*
X169601399Y-83961741D01*
X169604859Y-83973752D01*
X169626178Y-84064456D01*
X169668158Y-84243070D01*
X169671500Y-84271899D01*
X169671500Y-116514376D01*
X169668079Y-116543538D01*
X169602360Y-116819778D01*
X169598782Y-116832027D01*
X169536001Y-117012438D01*
X169494721Y-117070201D01*
X169428766Y-117096476D01*
X169359075Y-117082923D01*
X169307775Y-117033843D01*
X169291000Y-116971027D01*
X169291000Y-115316000D01*
X165735000Y-115316000D01*
X165735000Y-118872000D01*
X167267171Y-118872000D01*
X167335292Y-118892002D01*
X167381785Y-118945658D01*
X167391889Y-119015932D01*
X167362395Y-119080512D01*
X167307294Y-119117441D01*
X167291146Y-119122866D01*
X167278846Y-119126997D01*
X167266571Y-119130439D01*
X166945702Y-119203117D01*
X166933134Y-119205302D01*
X166864904Y-119213628D01*
X166606573Y-119245151D01*
X166593845Y-119246054D01*
X166301710Y-119251930D01*
X166276000Y-119249805D01*
X166273790Y-119249391D01*
X166273782Y-119249391D01*
X166264962Y-119247740D01*
X166223513Y-119251877D01*
X166210999Y-119252500D01*
X138479367Y-119252500D01*
X138459982Y-119251000D01*
X138445149Y-119248690D01*
X138445145Y-119248690D01*
X138436276Y-119247309D01*
X138427374Y-119248473D01*
X138427372Y-119248473D01*
X138423064Y-119249037D01*
X138418280Y-119249662D01*
X138394883Y-119250528D01*
X138138508Y-119236131D01*
X138124476Y-119234550D01*
X137984047Y-119210689D01*
X137843624Y-119186830D01*
X137829849Y-119183686D01*
X137556109Y-119104823D01*
X137542772Y-119100156D01*
X137279582Y-118991139D01*
X137266852Y-118985008D01*
X137017532Y-118847214D01*
X137005568Y-118839697D01*
X136773238Y-118674851D01*
X136762190Y-118666041D01*
X136549776Y-118476215D01*
X136539785Y-118466224D01*
X136530588Y-118455933D01*
X136349958Y-118253808D01*
X136341149Y-118242762D01*
X136176303Y-118010432D01*
X136168786Y-117998468D01*
X136163370Y-117988669D01*
X139617001Y-117988669D01*
X139617371Y-117995490D01*
X139622895Y-118046352D01*
X139626521Y-118061604D01*
X139671676Y-118182054D01*
X139680214Y-118197649D01*
X139756715Y-118299724D01*
X139769276Y-118312285D01*
X139871351Y-118388786D01*
X139886946Y-118397324D01*
X140007394Y-118442478D01*
X140022649Y-118446105D01*
X140073514Y-118451631D01*
X140080328Y-118452000D01*
X140702885Y-118452000D01*
X140718124Y-118447525D01*
X140719329Y-118446135D01*
X140721000Y-118438452D01*
X140721000Y-117366115D01*
X140716525Y-117350876D01*
X140715135Y-117349671D01*
X140707452Y-117348000D01*
X139635116Y-117348000D01*
X139619877Y-117352475D01*
X139618672Y-117353865D01*
X139617001Y-117361548D01*
X139617001Y-117988669D01*
X136163370Y-117988669D01*
X136030992Y-117749148D01*
X136024861Y-117736418D01*
X135915844Y-117473228D01*
X135911177Y-117459891D01*
X135832314Y-117186151D01*
X135829170Y-117172376D01*
X135781451Y-116891529D01*
X135779869Y-116877488D01*
X135777603Y-116837124D01*
X135776747Y-116821885D01*
X139617000Y-116821885D01*
X139621475Y-116837124D01*
X139622865Y-116838329D01*
X139630548Y-116840000D01*
X140702885Y-116840000D01*
X140718124Y-116835525D01*
X140719329Y-116834135D01*
X140721000Y-116826452D01*
X140721000Y-115754116D01*
X140716525Y-115738877D01*
X140715135Y-115737672D01*
X140707452Y-115736001D01*
X140080331Y-115736001D01*
X140073510Y-115736371D01*
X140022648Y-115741895D01*
X140007396Y-115745521D01*
X139886946Y-115790676D01*
X139871351Y-115799214D01*
X139769276Y-115875715D01*
X139756715Y-115888276D01*
X139680214Y-115990351D01*
X139671676Y-116005946D01*
X139626522Y-116126394D01*
X139622895Y-116141649D01*
X139617369Y-116192514D01*
X139617000Y-116199328D01*
X139617000Y-116821885D01*
X135776747Y-116821885D01*
X135766089Y-116632100D01*
X135767411Y-116608208D01*
X135767334Y-116608201D01*
X135767537Y-116605937D01*
X135767637Y-116604131D01*
X135767770Y-116603342D01*
X135768576Y-116598552D01*
X135768729Y-116586000D01*
X135764773Y-116558376D01*
X135763500Y-116540514D01*
X135763500Y-113382695D01*
X137062251Y-113382695D01*
X137062548Y-113387848D01*
X137062548Y-113387851D01*
X137070312Y-113522500D01*
X137075110Y-113605715D01*
X137076247Y-113610761D01*
X137076248Y-113610767D01*
X137093011Y-113685146D01*
X137124222Y-113823639D01*
X137208266Y-114030616D01*
X137259019Y-114113438D01*
X137322291Y-114216688D01*
X137324987Y-114221088D01*
X137471250Y-114389938D01*
X137643126Y-114532632D01*
X137836000Y-114645338D01*
X138044692Y-114725030D01*
X138049760Y-114726061D01*
X138049763Y-114726062D01*
X138106578Y-114737621D01*
X138263597Y-114769567D01*
X138268772Y-114769757D01*
X138268774Y-114769757D01*
X138481673Y-114777564D01*
X138481677Y-114777564D01*
X138486837Y-114777753D01*
X138491957Y-114777097D01*
X138491959Y-114777097D01*
X138703288Y-114750025D01*
X138703289Y-114750025D01*
X138708416Y-114749368D01*
X138720052Y-114745877D01*
X138917429Y-114686661D01*
X138917434Y-114686659D01*
X138922384Y-114685174D01*
X139122994Y-114586896D01*
X139304860Y-114457173D01*
X139463096Y-114299489D01*
X139522594Y-114216689D01*
X139593453Y-114118077D01*
X139594776Y-114119028D01*
X139641645Y-114075857D01*
X139711580Y-114063625D01*
X139777026Y-114091144D01*
X139804875Y-114122994D01*
X139864987Y-114221088D01*
X140011250Y-114389938D01*
X140183126Y-114532632D01*
X140376000Y-114645338D01*
X140584692Y-114725030D01*
X140589760Y-114726061D01*
X140589763Y-114726062D01*
X140646578Y-114737621D01*
X140803597Y-114769567D01*
X140808772Y-114769757D01*
X140808774Y-114769757D01*
X141021673Y-114777564D01*
X141021677Y-114777564D01*
X141026837Y-114777753D01*
X141031957Y-114777097D01*
X141031959Y-114777097D01*
X141243288Y-114750025D01*
X141243289Y-114750025D01*
X141248416Y-114749368D01*
X141340738Y-114721670D01*
X141411733Y-114721253D01*
X141437646Y-114731941D01*
X141469940Y-114749695D01*
X141477615Y-114751666D01*
X141477616Y-114751666D01*
X141489562Y-114754733D01*
X141508267Y-114761137D01*
X141526855Y-114769181D01*
X141534678Y-114770420D01*
X141534688Y-114770423D01*
X141570524Y-114776099D01*
X141582144Y-114778505D01*
X141617289Y-114787528D01*
X141624970Y-114789500D01*
X141645224Y-114789500D01*
X141664934Y-114791051D01*
X141684943Y-114794220D01*
X141692835Y-114793474D01*
X141728961Y-114790059D01*
X141740819Y-114789500D01*
X143943934Y-114789500D01*
X144012055Y-114809502D01*
X144044758Y-114839932D01*
X144066739Y-114869261D01*
X144183295Y-114956615D01*
X144319684Y-115007745D01*
X144381866Y-115014500D01*
X144394405Y-115014500D01*
X144462526Y-115034502D01*
X144509019Y-115088158D01*
X144519123Y-115158432D01*
X144489629Y-115223012D01*
X144483500Y-115229595D01*
X143972345Y-115740750D01*
X143910033Y-115774776D01*
X143861154Y-115775702D01*
X143648373Y-115737800D01*
X143648367Y-115737799D01*
X143643284Y-115736894D01*
X143569452Y-115735992D01*
X143425081Y-115734228D01*
X143425079Y-115734228D01*
X143419911Y-115734165D01*
X143199091Y-115767955D01*
X142986756Y-115837357D01*
X142788607Y-115940507D01*
X142784474Y-115943610D01*
X142784471Y-115943612D01*
X142701450Y-116005946D01*
X142609965Y-116074635D01*
X142606393Y-116078373D01*
X142528898Y-116159466D01*
X142467374Y-116194895D01*
X142396462Y-116191438D01*
X142338676Y-116150192D01*
X142319823Y-116116644D01*
X142278324Y-116005946D01*
X142269786Y-115990351D01*
X142193285Y-115888276D01*
X142180724Y-115875715D01*
X142078649Y-115799214D01*
X142063054Y-115790676D01*
X141942606Y-115745522D01*
X141927351Y-115741895D01*
X141876486Y-115736369D01*
X141869672Y-115736000D01*
X141247115Y-115736000D01*
X141231876Y-115740475D01*
X141230671Y-115741865D01*
X141229000Y-115749548D01*
X141229000Y-118433884D01*
X141233475Y-118449123D01*
X141234865Y-118450328D01*
X141242548Y-118451999D01*
X141869669Y-118451999D01*
X141876490Y-118451629D01*
X141927352Y-118446105D01*
X141942604Y-118442479D01*
X142063054Y-118397324D01*
X142078649Y-118388786D01*
X142180724Y-118312285D01*
X142193285Y-118299724D01*
X142269786Y-118197649D01*
X142278324Y-118182054D01*
X142319225Y-118072952D01*
X142361867Y-118016188D01*
X142428428Y-117991488D01*
X142497777Y-118006696D01*
X142532444Y-118034684D01*
X142557865Y-118064031D01*
X142557869Y-118064035D01*
X142561250Y-118067938D01*
X142733126Y-118210632D01*
X142926000Y-118323338D01*
X143134692Y-118403030D01*
X143139760Y-118404061D01*
X143139763Y-118404062D01*
X143247017Y-118425883D01*
X143353597Y-118447567D01*
X143358772Y-118447757D01*
X143358774Y-118447757D01*
X143571673Y-118455564D01*
X143571677Y-118455564D01*
X143576837Y-118455753D01*
X143581957Y-118455097D01*
X143581959Y-118455097D01*
X143793288Y-118428025D01*
X143793289Y-118428025D01*
X143798416Y-118427368D01*
X143803366Y-118425883D01*
X144007429Y-118364661D01*
X144007434Y-118364659D01*
X144012384Y-118363174D01*
X144212994Y-118264896D01*
X144394860Y-118135173D01*
X144553096Y-117977489D01*
X144683453Y-117796077D01*
X144684776Y-117797028D01*
X144731645Y-117753857D01*
X144801580Y-117741625D01*
X144867026Y-117769144D01*
X144894875Y-117800994D01*
X144954987Y-117899088D01*
X145101250Y-118067938D01*
X145273126Y-118210632D01*
X145466000Y-118323338D01*
X145674692Y-118403030D01*
X145679760Y-118404061D01*
X145679763Y-118404062D01*
X145787017Y-118425883D01*
X145893597Y-118447567D01*
X145898772Y-118447757D01*
X145898774Y-118447757D01*
X146111673Y-118455564D01*
X146111677Y-118455564D01*
X146116837Y-118455753D01*
X146121957Y-118455097D01*
X146121959Y-118455097D01*
X146333288Y-118428025D01*
X146333289Y-118428025D01*
X146338416Y-118427368D01*
X146343366Y-118425883D01*
X146547429Y-118364661D01*
X146547434Y-118364659D01*
X146552384Y-118363174D01*
X146752994Y-118264896D01*
X146934860Y-118135173D01*
X147093096Y-117977489D01*
X147223453Y-117796077D01*
X147224776Y-117797028D01*
X147271645Y-117753857D01*
X147341580Y-117741625D01*
X147407026Y-117769144D01*
X147434875Y-117800994D01*
X147494987Y-117899088D01*
X147641250Y-118067938D01*
X147813126Y-118210632D01*
X148006000Y-118323338D01*
X148214692Y-118403030D01*
X148219760Y-118404061D01*
X148219763Y-118404062D01*
X148327017Y-118425883D01*
X148433597Y-118447567D01*
X148438772Y-118447757D01*
X148438774Y-118447757D01*
X148651673Y-118455564D01*
X148651677Y-118455564D01*
X148656837Y-118455753D01*
X148661957Y-118455097D01*
X148661959Y-118455097D01*
X148873288Y-118428025D01*
X148873289Y-118428025D01*
X148878416Y-118427368D01*
X148883366Y-118425883D01*
X149087429Y-118364661D01*
X149087434Y-118364659D01*
X149092384Y-118363174D01*
X149292994Y-118264896D01*
X149474860Y-118135173D01*
X149633096Y-117977489D01*
X149763453Y-117796077D01*
X149764776Y-117797028D01*
X149811645Y-117753857D01*
X149881580Y-117741625D01*
X149947026Y-117769144D01*
X149974875Y-117800994D01*
X150034987Y-117899088D01*
X150181250Y-118067938D01*
X150353126Y-118210632D01*
X150546000Y-118323338D01*
X150754692Y-118403030D01*
X150759760Y-118404061D01*
X150759763Y-118404062D01*
X150867017Y-118425883D01*
X150973597Y-118447567D01*
X150978772Y-118447757D01*
X150978774Y-118447757D01*
X151191673Y-118455564D01*
X151191677Y-118455564D01*
X151196837Y-118455753D01*
X151201957Y-118455097D01*
X151201959Y-118455097D01*
X151413288Y-118428025D01*
X151413289Y-118428025D01*
X151418416Y-118427368D01*
X151423366Y-118425883D01*
X151627429Y-118364661D01*
X151627434Y-118364659D01*
X151632384Y-118363174D01*
X151832994Y-118264896D01*
X152014860Y-118135173D01*
X152173096Y-117977489D01*
X152303453Y-117796077D01*
X152304776Y-117797028D01*
X152351645Y-117753857D01*
X152421580Y-117741625D01*
X152487026Y-117769144D01*
X152514875Y-117800994D01*
X152574987Y-117899088D01*
X152721250Y-118067938D01*
X152893126Y-118210632D01*
X153086000Y-118323338D01*
X153294692Y-118403030D01*
X153299760Y-118404061D01*
X153299763Y-118404062D01*
X153407017Y-118425883D01*
X153513597Y-118447567D01*
X153518772Y-118447757D01*
X153518774Y-118447757D01*
X153731673Y-118455564D01*
X153731677Y-118455564D01*
X153736837Y-118455753D01*
X153741957Y-118455097D01*
X153741959Y-118455097D01*
X153953288Y-118428025D01*
X153953289Y-118428025D01*
X153958416Y-118427368D01*
X153963366Y-118425883D01*
X154167429Y-118364661D01*
X154167434Y-118364659D01*
X154172384Y-118363174D01*
X154372994Y-118264896D01*
X154554860Y-118135173D01*
X154713096Y-117977489D01*
X154843453Y-117796077D01*
X154844776Y-117797028D01*
X154891645Y-117753857D01*
X154961580Y-117741625D01*
X155027026Y-117769144D01*
X155054875Y-117800994D01*
X155114987Y-117899088D01*
X155261250Y-118067938D01*
X155433126Y-118210632D01*
X155626000Y-118323338D01*
X155834692Y-118403030D01*
X155839760Y-118404061D01*
X155839763Y-118404062D01*
X155947017Y-118425883D01*
X156053597Y-118447567D01*
X156058772Y-118447757D01*
X156058774Y-118447757D01*
X156271673Y-118455564D01*
X156271677Y-118455564D01*
X156276837Y-118455753D01*
X156281957Y-118455097D01*
X156281959Y-118455097D01*
X156493288Y-118428025D01*
X156493289Y-118428025D01*
X156498416Y-118427368D01*
X156503366Y-118425883D01*
X156707429Y-118364661D01*
X156707434Y-118364659D01*
X156712384Y-118363174D01*
X156912994Y-118264896D01*
X157094860Y-118135173D01*
X157253096Y-117977489D01*
X157383453Y-117796077D01*
X157384776Y-117797028D01*
X157431645Y-117753857D01*
X157501580Y-117741625D01*
X157567026Y-117769144D01*
X157594875Y-117800994D01*
X157654987Y-117899088D01*
X157801250Y-118067938D01*
X157973126Y-118210632D01*
X158166000Y-118323338D01*
X158374692Y-118403030D01*
X158379760Y-118404061D01*
X158379763Y-118404062D01*
X158487017Y-118425883D01*
X158593597Y-118447567D01*
X158598772Y-118447757D01*
X158598774Y-118447757D01*
X158811673Y-118455564D01*
X158811677Y-118455564D01*
X158816837Y-118455753D01*
X158821957Y-118455097D01*
X158821959Y-118455097D01*
X159033288Y-118428025D01*
X159033289Y-118428025D01*
X159038416Y-118427368D01*
X159043366Y-118425883D01*
X159247429Y-118364661D01*
X159247434Y-118364659D01*
X159252384Y-118363174D01*
X159452994Y-118264896D01*
X159634860Y-118135173D01*
X159793096Y-117977489D01*
X159923453Y-117796077D01*
X159924776Y-117797028D01*
X159971645Y-117753857D01*
X160041580Y-117741625D01*
X160107026Y-117769144D01*
X160134875Y-117800994D01*
X160194987Y-117899088D01*
X160341250Y-118067938D01*
X160513126Y-118210632D01*
X160706000Y-118323338D01*
X160914692Y-118403030D01*
X160919760Y-118404061D01*
X160919763Y-118404062D01*
X161027017Y-118425883D01*
X161133597Y-118447567D01*
X161138772Y-118447757D01*
X161138774Y-118447757D01*
X161351673Y-118455564D01*
X161351677Y-118455564D01*
X161356837Y-118455753D01*
X161361957Y-118455097D01*
X161361959Y-118455097D01*
X161573288Y-118428025D01*
X161573289Y-118428025D01*
X161578416Y-118427368D01*
X161583366Y-118425883D01*
X161787429Y-118364661D01*
X161787434Y-118364659D01*
X161792384Y-118363174D01*
X161992994Y-118264896D01*
X162174860Y-118135173D01*
X162333096Y-117977489D01*
X162463453Y-117796077D01*
X162464776Y-117797028D01*
X162511645Y-117753857D01*
X162581580Y-117741625D01*
X162647026Y-117769144D01*
X162674875Y-117800994D01*
X162734987Y-117899088D01*
X162881250Y-118067938D01*
X163053126Y-118210632D01*
X163246000Y-118323338D01*
X163454692Y-118403030D01*
X163459760Y-118404061D01*
X163459763Y-118404062D01*
X163567017Y-118425883D01*
X163673597Y-118447567D01*
X163678772Y-118447757D01*
X163678774Y-118447757D01*
X163891673Y-118455564D01*
X163891677Y-118455564D01*
X163896837Y-118455753D01*
X163901957Y-118455097D01*
X163901959Y-118455097D01*
X164113288Y-118428025D01*
X164113289Y-118428025D01*
X164118416Y-118427368D01*
X164123366Y-118425883D01*
X164327429Y-118364661D01*
X164327434Y-118364659D01*
X164332384Y-118363174D01*
X164532994Y-118264896D01*
X164714860Y-118135173D01*
X164873096Y-117977489D01*
X165003453Y-117796077D01*
X165007794Y-117787295D01*
X165100136Y-117600453D01*
X165100137Y-117600451D01*
X165102430Y-117595811D01*
X165144136Y-117458541D01*
X165165865Y-117387023D01*
X165165865Y-117387021D01*
X165167370Y-117382069D01*
X165196529Y-117160590D01*
X165198156Y-117094000D01*
X165179852Y-116871361D01*
X165125431Y-116654702D01*
X165036354Y-116449840D01*
X164915014Y-116262277D01*
X164764670Y-116097051D01*
X164760619Y-116093852D01*
X164760615Y-116093848D01*
X164593414Y-115961800D01*
X164593410Y-115961798D01*
X164589359Y-115958598D01*
X164393789Y-115850638D01*
X164388920Y-115848914D01*
X164388916Y-115848912D01*
X164188087Y-115777795D01*
X164188083Y-115777794D01*
X164183212Y-115776069D01*
X164178119Y-115775162D01*
X164178116Y-115775161D01*
X163968373Y-115737800D01*
X163968367Y-115737799D01*
X163963284Y-115736894D01*
X163889452Y-115735992D01*
X163745081Y-115734228D01*
X163745079Y-115734228D01*
X163739911Y-115734165D01*
X163519091Y-115767955D01*
X163306756Y-115837357D01*
X163108607Y-115940507D01*
X163104474Y-115943610D01*
X163104471Y-115943612D01*
X163021450Y-116005946D01*
X162929965Y-116074635D01*
X162775629Y-116236138D01*
X162668201Y-116393621D01*
X162613293Y-116438621D01*
X162542768Y-116446792D01*
X162479021Y-116415538D01*
X162458324Y-116391054D01*
X162377822Y-116266617D01*
X162377820Y-116266614D01*
X162375014Y-116262277D01*
X162224670Y-116097051D01*
X162220619Y-116093852D01*
X162220615Y-116093848D01*
X162053414Y-115961800D01*
X162053410Y-115961798D01*
X162049359Y-115958598D01*
X161853789Y-115850638D01*
X161848920Y-115848914D01*
X161848916Y-115848912D01*
X161648087Y-115777795D01*
X161648083Y-115777794D01*
X161643212Y-115776069D01*
X161638119Y-115775162D01*
X161638116Y-115775161D01*
X161428373Y-115737800D01*
X161428367Y-115737799D01*
X161423284Y-115736894D01*
X161349452Y-115735992D01*
X161205081Y-115734228D01*
X161205079Y-115734228D01*
X161199911Y-115734165D01*
X160979091Y-115767955D01*
X160966532Y-115772060D01*
X160895568Y-115774210D01*
X160838294Y-115741389D01*
X160306954Y-115210049D01*
X160272928Y-115147737D01*
X160277993Y-115076922D01*
X160321989Y-115019018D01*
X160371905Y-114982753D01*
X160371913Y-114982746D01*
X160377253Y-114978866D01*
X160439503Y-114909730D01*
X160499946Y-114872492D01*
X160570930Y-114873843D01*
X160608702Y-114893216D01*
X160693295Y-114956615D01*
X160829684Y-115007745D01*
X160891866Y-115014500D01*
X161200405Y-115014500D01*
X161268526Y-115034502D01*
X161289502Y-115051406D01*
X161305230Y-115067135D01*
X161308427Y-115069615D01*
X161317447Y-115077318D01*
X161349679Y-115107586D01*
X161356625Y-115111405D01*
X161356628Y-115111407D01*
X161367434Y-115117348D01*
X161383953Y-115128199D01*
X161399959Y-115140614D01*
X161407228Y-115143759D01*
X161407232Y-115143762D01*
X161440537Y-115158174D01*
X161451187Y-115163391D01*
X161489940Y-115184695D01*
X161497615Y-115186666D01*
X161497616Y-115186666D01*
X161509562Y-115189733D01*
X161528267Y-115196137D01*
X161546855Y-115204181D01*
X161554678Y-115205420D01*
X161554688Y-115205423D01*
X161590524Y-115211099D01*
X161602144Y-115213505D01*
X161633959Y-115221673D01*
X161644970Y-115224500D01*
X161665224Y-115224500D01*
X161684934Y-115226051D01*
X161704943Y-115229220D01*
X161712835Y-115228474D01*
X161731580Y-115226702D01*
X161748962Y-115225059D01*
X161760819Y-115224500D01*
X165116233Y-115224500D01*
X165127416Y-115225027D01*
X165134909Y-115226702D01*
X165142835Y-115226453D01*
X165142836Y-115226453D01*
X165202986Y-115224562D01*
X165206945Y-115224500D01*
X165234856Y-115224500D01*
X165238791Y-115224003D01*
X165238856Y-115223995D01*
X165250693Y-115223062D01*
X165282951Y-115222048D01*
X165286970Y-115221922D01*
X165294889Y-115221673D01*
X165314343Y-115216021D01*
X165333700Y-115212013D01*
X165345930Y-115210468D01*
X165345931Y-115210468D01*
X165353797Y-115209474D01*
X165361168Y-115206555D01*
X165361170Y-115206555D01*
X165394912Y-115193196D01*
X165406142Y-115189351D01*
X165440983Y-115179229D01*
X165440984Y-115179229D01*
X165448593Y-115177018D01*
X165455412Y-115172985D01*
X165455417Y-115172983D01*
X165466028Y-115166707D01*
X165483776Y-115158012D01*
X165502617Y-115150552D01*
X165538387Y-115124564D01*
X165548307Y-115118048D01*
X165579535Y-115099580D01*
X165579538Y-115099578D01*
X165586362Y-115095542D01*
X165600683Y-115081221D01*
X165615717Y-115068380D01*
X165625694Y-115061131D01*
X165632107Y-115056472D01*
X165660298Y-115022395D01*
X165668288Y-115013616D01*
X165914549Y-114767355D01*
X165976861Y-114733329D01*
X166028762Y-114732979D01*
X166208597Y-114769567D01*
X166213772Y-114769757D01*
X166213774Y-114769757D01*
X166426673Y-114777564D01*
X166426677Y-114777564D01*
X166431837Y-114777753D01*
X166436957Y-114777097D01*
X166436959Y-114777097D01*
X166648288Y-114750025D01*
X166648289Y-114750025D01*
X166653416Y-114749368D01*
X166665052Y-114745877D01*
X166862429Y-114686661D01*
X166862434Y-114686659D01*
X166867384Y-114685174D01*
X167067994Y-114586896D01*
X167249860Y-114457173D01*
X167408096Y-114299489D01*
X167467594Y-114216689D01*
X167535435Y-114122277D01*
X167538453Y-114118077D01*
X167559320Y-114075857D01*
X167635136Y-113922453D01*
X167635137Y-113922451D01*
X167637430Y-113917811D01*
X167702370Y-113704069D01*
X167731529Y-113482590D01*
X167731847Y-113469587D01*
X167733074Y-113419365D01*
X167733074Y-113419361D01*
X167733156Y-113416000D01*
X167714852Y-113193361D01*
X167660431Y-112976702D01*
X167571354Y-112771840D01*
X167496414Y-112656000D01*
X167452822Y-112588617D01*
X167452820Y-112588614D01*
X167450014Y-112584277D01*
X167299670Y-112419051D01*
X167295619Y-112415852D01*
X167295615Y-112415848D01*
X167128414Y-112283800D01*
X167128410Y-112283798D01*
X167124359Y-112280598D01*
X167083053Y-112257796D01*
X167033084Y-112207364D01*
X167018312Y-112137921D01*
X167043428Y-112071516D01*
X167070780Y-112044909D01*
X167114603Y-112013650D01*
X167249860Y-111917173D01*
X167408096Y-111759489D01*
X167467594Y-111676689D01*
X167535435Y-111582277D01*
X167538453Y-111578077D01*
X167548608Y-111557531D01*
X167635136Y-111382453D01*
X167635137Y-111382451D01*
X167637430Y-111377811D01*
X167702370Y-111164069D01*
X167731529Y-110942590D01*
X167733156Y-110876000D01*
X167714852Y-110653361D01*
X167660431Y-110436702D01*
X167571354Y-110231840D01*
X167450014Y-110044277D01*
X167299670Y-109879051D01*
X167295619Y-109875852D01*
X167295615Y-109875848D01*
X167128414Y-109743800D01*
X167128410Y-109743798D01*
X167124359Y-109740598D01*
X167083053Y-109717796D01*
X167033084Y-109667364D01*
X167018312Y-109597921D01*
X167043428Y-109531516D01*
X167070780Y-109504909D01*
X167114603Y-109473650D01*
X167249860Y-109377173D01*
X167408096Y-109219489D01*
X167467594Y-109136689D01*
X167535435Y-109042277D01*
X167538453Y-109038077D01*
X167559320Y-108995857D01*
X167635136Y-108842453D01*
X167635137Y-108842451D01*
X167637430Y-108837811D01*
X167702370Y-108624069D01*
X167731529Y-108402590D01*
X167733156Y-108336000D01*
X167714852Y-108113361D01*
X167660431Y-107896702D01*
X167571354Y-107691840D01*
X167482268Y-107554134D01*
X167452822Y-107508617D01*
X167452820Y-107508614D01*
X167450014Y-107504277D01*
X167299670Y-107339051D01*
X167295619Y-107335852D01*
X167295615Y-107335848D01*
X167128414Y-107203800D01*
X167128410Y-107203798D01*
X167124359Y-107200598D01*
X167083053Y-107177796D01*
X167033084Y-107127364D01*
X167018312Y-107057921D01*
X167043428Y-106991516D01*
X167070780Y-106964909D01*
X167114603Y-106933650D01*
X167249860Y-106837173D01*
X167408096Y-106679489D01*
X167424975Y-106656000D01*
X167535435Y-106502277D01*
X167538453Y-106498077D01*
X167559320Y-106455857D01*
X167635136Y-106302453D01*
X167635137Y-106302451D01*
X167637430Y-106297811D01*
X167702370Y-106084069D01*
X167731529Y-105862590D01*
X167733156Y-105796000D01*
X167714852Y-105573361D01*
X167660431Y-105356702D01*
X167571354Y-105151840D01*
X167450014Y-104964277D01*
X167299670Y-104799051D01*
X167295619Y-104795852D01*
X167295615Y-104795848D01*
X167128414Y-104663800D01*
X167128410Y-104663798D01*
X167124359Y-104660598D01*
X167083053Y-104637796D01*
X167033084Y-104587364D01*
X167018312Y-104517921D01*
X167043428Y-104451516D01*
X167070780Y-104424909D01*
X167118835Y-104390632D01*
X167249860Y-104297173D01*
X167259733Y-104287335D01*
X167404435Y-104143137D01*
X167408096Y-104139489D01*
X167436406Y-104100092D01*
X167535435Y-103962277D01*
X167538453Y-103958077D01*
X167559320Y-103915857D01*
X167635136Y-103762453D01*
X167635137Y-103762451D01*
X167637430Y-103757811D01*
X167681351Y-103613249D01*
X167700865Y-103549023D01*
X167700865Y-103549021D01*
X167702370Y-103544069D01*
X167731529Y-103322590D01*
X167733156Y-103256000D01*
X167714852Y-103033361D01*
X167660431Y-102816702D01*
X167571354Y-102611840D01*
X167486710Y-102481000D01*
X167452822Y-102428617D01*
X167452820Y-102428614D01*
X167450014Y-102424277D01*
X167299670Y-102259051D01*
X167295619Y-102255852D01*
X167295615Y-102255848D01*
X167128414Y-102123800D01*
X167128410Y-102123798D01*
X167124359Y-102120598D01*
X167083053Y-102097796D01*
X167033084Y-102047364D01*
X167018312Y-101977921D01*
X167043428Y-101911516D01*
X167070780Y-101884909D01*
X167125220Y-101846077D01*
X167249860Y-101757173D01*
X167408096Y-101599489D01*
X167417586Y-101586283D01*
X167535435Y-101422277D01*
X167538453Y-101418077D01*
X167554735Y-101385134D01*
X167635136Y-101222453D01*
X167635137Y-101222451D01*
X167637430Y-101217811D01*
X167702370Y-101004069D01*
X167731529Y-100782590D01*
X167733156Y-100716000D01*
X167714852Y-100493361D01*
X167660431Y-100276702D01*
X167571354Y-100071840D01*
X167450014Y-99884277D01*
X167299670Y-99719051D01*
X167295619Y-99715852D01*
X167295615Y-99715848D01*
X167128414Y-99583800D01*
X167128410Y-99583798D01*
X167124359Y-99580598D01*
X167083053Y-99557796D01*
X167033084Y-99507364D01*
X167018312Y-99437921D01*
X167043428Y-99371516D01*
X167070780Y-99344909D01*
X167114603Y-99313650D01*
X167249860Y-99217173D01*
X167408096Y-99059489D01*
X167467594Y-98976689D01*
X167535435Y-98882277D01*
X167538453Y-98878077D01*
X167559320Y-98835857D01*
X167635136Y-98682453D01*
X167635137Y-98682451D01*
X167637430Y-98677811D01*
X167702370Y-98464069D01*
X167731529Y-98242590D01*
X167733156Y-98176000D01*
X167714852Y-97953361D01*
X167660431Y-97736702D01*
X167571354Y-97531840D01*
X167472564Y-97379134D01*
X167452822Y-97348617D01*
X167452820Y-97348614D01*
X167450014Y-97344277D01*
X167299670Y-97179051D01*
X167295619Y-97175852D01*
X167295615Y-97175848D01*
X167128414Y-97043800D01*
X167128410Y-97043798D01*
X167124359Y-97040598D01*
X167083053Y-97017796D01*
X167033084Y-96967364D01*
X167018312Y-96897921D01*
X167043428Y-96831516D01*
X167070780Y-96804909D01*
X167114603Y-96773650D01*
X167249860Y-96677173D01*
X167408096Y-96519489D01*
X167456697Y-96451854D01*
X167535435Y-96342277D01*
X167538453Y-96338077D01*
X167559320Y-96295857D01*
X167635136Y-96142453D01*
X167635137Y-96142451D01*
X167637430Y-96137811D01*
X167702370Y-95924069D01*
X167731529Y-95702590D01*
X167733156Y-95636000D01*
X167714852Y-95413361D01*
X167660431Y-95196702D01*
X167571354Y-94991840D01*
X167485800Y-94859593D01*
X167452822Y-94808617D01*
X167452820Y-94808614D01*
X167450014Y-94804277D01*
X167299670Y-94639051D01*
X167295619Y-94635852D01*
X167295615Y-94635848D01*
X167128414Y-94503800D01*
X167128410Y-94503798D01*
X167124359Y-94500598D01*
X167083053Y-94477796D01*
X167033084Y-94427364D01*
X167018312Y-94357921D01*
X167043428Y-94291516D01*
X167070780Y-94264909D01*
X167114603Y-94233650D01*
X167249860Y-94137173D01*
X167264585Y-94122500D01*
X167404435Y-93983137D01*
X167408096Y-93979489D01*
X167467594Y-93896689D01*
X167535435Y-93802277D01*
X167535436Y-93802276D01*
X167538453Y-93798077D01*
X167559320Y-93755857D01*
X167635136Y-93602453D01*
X167635137Y-93602451D01*
X167637430Y-93597811D01*
X167702370Y-93384069D01*
X167731529Y-93162590D01*
X167732426Y-93125877D01*
X167733074Y-93099365D01*
X167733074Y-93099361D01*
X167733156Y-93096000D01*
X167714852Y-92873361D01*
X167660431Y-92656702D01*
X167571354Y-92451840D01*
X167497445Y-92337594D01*
X167452822Y-92268617D01*
X167452820Y-92268614D01*
X167450014Y-92264277D01*
X167299670Y-92099051D01*
X167295619Y-92095852D01*
X167295615Y-92095848D01*
X167128414Y-91963800D01*
X167128410Y-91963798D01*
X167124359Y-91960598D01*
X167083053Y-91937796D01*
X167033084Y-91887364D01*
X167018312Y-91817921D01*
X167043428Y-91751516D01*
X167070780Y-91724909D01*
X167114603Y-91693650D01*
X167249860Y-91597173D01*
X167408096Y-91439489D01*
X167538453Y-91258077D01*
X167581268Y-91171448D01*
X167635136Y-91062453D01*
X167635137Y-91062451D01*
X167637430Y-91057811D01*
X167702370Y-90844069D01*
X167731529Y-90622590D01*
X167733156Y-90556000D01*
X167714852Y-90333361D01*
X167660431Y-90116702D01*
X167571354Y-89911840D01*
X167450014Y-89724277D01*
X167299670Y-89559051D01*
X167295619Y-89555852D01*
X167295615Y-89555848D01*
X167128414Y-89423800D01*
X167128410Y-89423798D01*
X167124359Y-89420598D01*
X166928789Y-89312638D01*
X166923920Y-89310914D01*
X166923916Y-89310912D01*
X166723087Y-89239795D01*
X166723083Y-89239794D01*
X166718212Y-89238069D01*
X166713119Y-89237162D01*
X166713116Y-89237161D01*
X166503373Y-89199800D01*
X166503367Y-89199799D01*
X166498284Y-89198894D01*
X166424452Y-89197992D01*
X166280081Y-89196228D01*
X166280079Y-89196228D01*
X166274911Y-89196165D01*
X166054091Y-89229955D01*
X165841756Y-89299357D01*
X165643607Y-89402507D01*
X165639474Y-89405610D01*
X165639471Y-89405612D01*
X165556450Y-89467946D01*
X165464965Y-89536635D01*
X165461393Y-89540373D01*
X165383898Y-89621466D01*
X165322374Y-89656895D01*
X165251462Y-89653438D01*
X165193676Y-89612192D01*
X165174823Y-89578644D01*
X165133324Y-89467946D01*
X165124786Y-89452351D01*
X165048285Y-89350276D01*
X165035724Y-89337715D01*
X164933649Y-89261214D01*
X164918054Y-89252676D01*
X164797606Y-89207522D01*
X164782351Y-89203895D01*
X164731486Y-89198369D01*
X164724672Y-89198000D01*
X164102115Y-89198000D01*
X164086876Y-89202475D01*
X164085671Y-89203865D01*
X164084000Y-89211548D01*
X164084000Y-90684000D01*
X164063998Y-90752121D01*
X164010342Y-90798614D01*
X163958000Y-90810000D01*
X162490116Y-90810000D01*
X162474877Y-90814475D01*
X162473672Y-90815865D01*
X162472001Y-90823548D01*
X162472001Y-90971500D01*
X162451999Y-91039621D01*
X162398343Y-91086114D01*
X162346001Y-91097500D01*
X161322463Y-91097500D01*
X161311280Y-91096973D01*
X161303787Y-91095298D01*
X161295861Y-91095547D01*
X161295860Y-91095547D01*
X161235697Y-91097438D01*
X161231739Y-91097500D01*
X161203839Y-91097500D01*
X161199849Y-91098004D01*
X161188015Y-91098936D01*
X161143806Y-91100326D01*
X161136190Y-91102539D01*
X161136188Y-91102539D01*
X161124347Y-91105979D01*
X161104988Y-91109988D01*
X161103678Y-91110154D01*
X161084898Y-91112526D01*
X161077532Y-91115442D01*
X161077526Y-91115444D01*
X161043793Y-91128800D01*
X161032563Y-91132645D01*
X160997712Y-91142770D01*
X160990102Y-91144981D01*
X160983279Y-91149016D01*
X160972661Y-91155295D01*
X160954908Y-91163992D01*
X160947263Y-91167019D01*
X160936078Y-91171448D01*
X160929663Y-91176109D01*
X160900307Y-91197437D01*
X160890390Y-91203951D01*
X160852333Y-91226458D01*
X160838012Y-91240779D01*
X160822979Y-91253619D01*
X160806588Y-91265528D01*
X160780211Y-91297413D01*
X160778407Y-91299593D01*
X160770417Y-91308374D01*
X160172742Y-91906048D01*
X160164463Y-91913582D01*
X160157982Y-91917695D01*
X160120036Y-91958104D01*
X160111357Y-91967346D01*
X160108602Y-91970188D01*
X160088865Y-91989925D01*
X160086385Y-91993122D01*
X160078682Y-92002142D01*
X160048414Y-92034374D01*
X160044595Y-92041320D01*
X160044593Y-92041323D01*
X160038652Y-92052129D01*
X160027801Y-92068648D01*
X160015386Y-92084654D01*
X160012241Y-92091923D01*
X160012238Y-92091927D01*
X159997826Y-92125232D01*
X159992609Y-92135882D01*
X159971305Y-92174635D01*
X159969334Y-92182310D01*
X159969334Y-92182311D01*
X159966267Y-92194257D01*
X159959863Y-92212961D01*
X159951819Y-92231550D01*
X159950580Y-92239373D01*
X159950577Y-92239383D01*
X159944901Y-92275219D01*
X159942495Y-92286839D01*
X159931500Y-92329665D01*
X159931500Y-92349919D01*
X159929949Y-92369629D01*
X159926780Y-92389638D01*
X159927526Y-92397530D01*
X159930941Y-92433656D01*
X159931500Y-92445514D01*
X159931500Y-94527233D01*
X159930973Y-94538416D01*
X159929298Y-94545909D01*
X159929547Y-94553835D01*
X159929547Y-94553836D01*
X159931438Y-94613986D01*
X159931500Y-94617945D01*
X159931500Y-94645856D01*
X159931997Y-94649790D01*
X159931997Y-94649791D01*
X159932005Y-94649856D01*
X159932938Y-94661693D01*
X159934327Y-94705889D01*
X159939978Y-94725339D01*
X159943987Y-94744700D01*
X159946526Y-94764797D01*
X159949445Y-94772168D01*
X159949445Y-94772170D01*
X159962804Y-94805912D01*
X159966649Y-94817142D01*
X159978982Y-94859593D01*
X159983015Y-94866412D01*
X159983017Y-94866417D01*
X159989293Y-94877028D01*
X159997988Y-94894776D01*
X160005448Y-94913617D01*
X160010110Y-94920033D01*
X160010110Y-94920034D01*
X160031436Y-94949387D01*
X160037952Y-94959307D01*
X160060458Y-94997362D01*
X160066064Y-95002969D01*
X160074780Y-95011685D01*
X160087620Y-95026718D01*
X160099528Y-95043107D01*
X160105635Y-95048159D01*
X160133593Y-95071288D01*
X160142374Y-95079278D01*
X160398817Y-95335722D01*
X160432842Y-95398034D01*
X160434984Y-95411208D01*
X160438255Y-95441316D01*
X160441029Y-95448715D01*
X160441775Y-95451854D01*
X160441775Y-95510146D01*
X160441029Y-95513285D01*
X160438255Y-95520684D01*
X160431500Y-95582866D01*
X160431500Y-96379134D01*
X160438255Y-96441316D01*
X160441029Y-96448715D01*
X160441775Y-96451854D01*
X160441775Y-96510146D01*
X160441029Y-96513285D01*
X160438255Y-96520684D01*
X160431500Y-96582866D01*
X160431500Y-97379134D01*
X160438255Y-97441316D01*
X160441029Y-97448715D01*
X160441775Y-97451854D01*
X160441775Y-97510146D01*
X160441029Y-97513285D01*
X160438255Y-97520684D01*
X160431500Y-97582866D01*
X160431500Y-98379134D01*
X160438255Y-98441316D01*
X160441029Y-98448715D01*
X160441775Y-98451854D01*
X160441775Y-98510146D01*
X160441029Y-98513285D01*
X160438255Y-98520684D01*
X160431500Y-98582866D01*
X160431500Y-99379134D01*
X160438255Y-99441316D01*
X160441029Y-99448715D01*
X160441775Y-99451854D01*
X160441775Y-99510146D01*
X160441029Y-99513285D01*
X160438255Y-99520684D01*
X160431500Y-99582866D01*
X160431500Y-100379134D01*
X160438255Y-100441316D01*
X160441029Y-100448715D01*
X160441775Y-100451854D01*
X160441775Y-100510146D01*
X160441029Y-100513285D01*
X160438255Y-100520684D01*
X160431500Y-100582866D01*
X160431500Y-101379134D01*
X160438255Y-101441316D01*
X160441029Y-101448715D01*
X160441775Y-101451854D01*
X160441775Y-101510146D01*
X160441029Y-101513285D01*
X160438255Y-101520684D01*
X160431500Y-101582866D01*
X160431500Y-102379134D01*
X160438255Y-102441316D01*
X160441029Y-102448715D01*
X160441775Y-102451854D01*
X160441775Y-102510146D01*
X160441029Y-102513285D01*
X160438255Y-102520684D01*
X160431500Y-102582866D01*
X160431500Y-103379134D01*
X160438255Y-103441316D01*
X160489385Y-103577705D01*
X160576739Y-103694261D01*
X160693295Y-103781615D01*
X160829684Y-103832745D01*
X160891866Y-103839500D01*
X161688134Y-103839500D01*
X161750316Y-103832745D01*
X161886705Y-103781615D01*
X162003261Y-103694261D01*
X162025241Y-103664933D01*
X162082100Y-103622420D01*
X162126066Y-103614500D01*
X162271405Y-103614500D01*
X162339526Y-103634502D01*
X162386019Y-103688158D01*
X162396123Y-103758432D01*
X162366629Y-103823012D01*
X162360500Y-103829595D01*
X161906251Y-104283844D01*
X161843939Y-104317870D01*
X161772927Y-104312731D01*
X161757718Y-104307029D01*
X161757711Y-104307027D01*
X161750316Y-104304255D01*
X161688134Y-104297500D01*
X160891866Y-104297500D01*
X160829684Y-104304255D01*
X160693295Y-104355385D01*
X160576739Y-104442739D01*
X160489385Y-104559295D01*
X160438255Y-104695684D01*
X160431500Y-104757866D01*
X160431500Y-105554134D01*
X160438255Y-105616316D01*
X160441029Y-105623715D01*
X160441775Y-105626854D01*
X160441775Y-105685146D01*
X160441029Y-105688285D01*
X160438255Y-105695684D01*
X160431500Y-105757866D01*
X160431500Y-106554134D01*
X160438255Y-106616316D01*
X160441029Y-106623715D01*
X160441775Y-106626854D01*
X160441775Y-106685146D01*
X160441029Y-106688285D01*
X160438255Y-106695684D01*
X160431500Y-106757866D01*
X160431500Y-107554134D01*
X160438255Y-107616316D01*
X160441029Y-107623715D01*
X160441775Y-107626854D01*
X160441775Y-107685146D01*
X160441029Y-107688285D01*
X160438255Y-107695684D01*
X160431500Y-107757866D01*
X160431500Y-108554134D01*
X160438255Y-108616316D01*
X160441029Y-108623715D01*
X160441775Y-108626854D01*
X160441775Y-108685146D01*
X160441029Y-108688285D01*
X160438255Y-108695684D01*
X160431500Y-108757866D01*
X160431500Y-109554134D01*
X160438255Y-109616316D01*
X160441029Y-109623715D01*
X160441775Y-109626854D01*
X160441775Y-109685146D01*
X160441029Y-109688285D01*
X160438255Y-109695684D01*
X160431500Y-109757866D01*
X160431500Y-110554134D01*
X160438255Y-110616316D01*
X160441029Y-110623715D01*
X160441775Y-110626854D01*
X160441775Y-110685146D01*
X160441029Y-110688285D01*
X160438255Y-110695684D01*
X160431500Y-110757866D01*
X160431500Y-111554134D01*
X160438255Y-111616316D01*
X160441029Y-111623715D01*
X160441775Y-111626854D01*
X160441775Y-111685146D01*
X160441029Y-111688285D01*
X160438255Y-111695684D01*
X160431500Y-111757866D01*
X160431500Y-112554134D01*
X160438255Y-112616316D01*
X160441029Y-112623715D01*
X160441775Y-112626854D01*
X160441775Y-112685146D01*
X160441029Y-112688285D01*
X160438255Y-112695684D01*
X160431500Y-112757866D01*
X160431500Y-113413258D01*
X160411498Y-113481379D01*
X160357842Y-113527872D01*
X160287568Y-113537976D01*
X160231436Y-113515192D01*
X160222752Y-113508882D01*
X160216724Y-113506198D01*
X160216722Y-113506197D01*
X160054319Y-113433891D01*
X160054318Y-113433891D01*
X160048288Y-113431206D01*
X159954887Y-113411353D01*
X159867944Y-113392872D01*
X159867939Y-113392872D01*
X159861487Y-113391500D01*
X159670513Y-113391500D01*
X159664061Y-113392872D01*
X159664056Y-113392872D01*
X159577113Y-113411353D01*
X159483712Y-113431206D01*
X159477682Y-113433891D01*
X159477681Y-113433891D01*
X159315278Y-113506197D01*
X159315276Y-113506198D01*
X159309248Y-113508882D01*
X159303907Y-113512762D01*
X159303906Y-113512763D01*
X159251667Y-113550717D01*
X159154747Y-113621134D01*
X159150332Y-113626037D01*
X159145420Y-113630460D01*
X159144295Y-113629211D01*
X159090986Y-113662051D01*
X159057800Y-113666500D01*
X158744066Y-113666500D01*
X158675945Y-113646498D01*
X158643242Y-113616068D01*
X158621261Y-113586739D01*
X158504705Y-113499385D01*
X158368316Y-113448255D01*
X158306134Y-113441500D01*
X157509866Y-113441500D01*
X157447684Y-113448255D01*
X157440285Y-113451029D01*
X157437146Y-113451775D01*
X157378854Y-113451775D01*
X157375715Y-113451029D01*
X157368316Y-113448255D01*
X157306134Y-113441500D01*
X156509866Y-113441500D01*
X156447684Y-113448255D01*
X156440285Y-113451029D01*
X156437146Y-113451775D01*
X156378854Y-113451775D01*
X156375715Y-113451029D01*
X156368316Y-113448255D01*
X156306134Y-113441500D01*
X155509866Y-113441500D01*
X155447684Y-113448255D01*
X155440285Y-113451029D01*
X155437146Y-113451775D01*
X155378854Y-113451775D01*
X155375715Y-113451029D01*
X155368316Y-113448255D01*
X155306134Y-113441500D01*
X154509866Y-113441500D01*
X154447684Y-113448255D01*
X154440285Y-113451029D01*
X154437146Y-113451775D01*
X154378854Y-113451775D01*
X154375715Y-113451029D01*
X154368316Y-113448255D01*
X154306134Y-113441500D01*
X153509866Y-113441500D01*
X153447684Y-113448255D01*
X153440285Y-113451029D01*
X153437146Y-113451775D01*
X153378854Y-113451775D01*
X153375715Y-113451029D01*
X153368316Y-113448255D01*
X153306134Y-113441500D01*
X152509866Y-113441500D01*
X152447684Y-113448255D01*
X152440285Y-113451029D01*
X152437146Y-113451775D01*
X152378854Y-113451775D01*
X152375715Y-113451029D01*
X152368316Y-113448255D01*
X152306134Y-113441500D01*
X151509866Y-113441500D01*
X151447684Y-113448255D01*
X151440285Y-113451029D01*
X151437146Y-113451775D01*
X151378854Y-113451775D01*
X151375715Y-113451029D01*
X151368316Y-113448255D01*
X151306134Y-113441500D01*
X150509866Y-113441500D01*
X150447684Y-113448255D01*
X150440285Y-113451029D01*
X150437146Y-113451775D01*
X150378854Y-113451775D01*
X150375715Y-113451029D01*
X150368316Y-113448255D01*
X150306134Y-113441500D01*
X149509866Y-113441500D01*
X149447684Y-113448255D01*
X149311295Y-113499385D01*
X149194739Y-113586739D01*
X149107385Y-113703295D01*
X149056255Y-113839684D01*
X149049500Y-113901866D01*
X149049500Y-114560405D01*
X149029498Y-114628526D01*
X149012595Y-114649500D01*
X148958500Y-114703595D01*
X148896188Y-114737621D01*
X148869405Y-114740500D01*
X145758684Y-114740500D01*
X145690563Y-114720498D01*
X145644070Y-114666842D01*
X145633421Y-114600894D01*
X145638131Y-114557536D01*
X145638132Y-114557526D01*
X145638500Y-114554134D01*
X145638500Y-113757866D01*
X145631745Y-113695684D01*
X145628971Y-113688285D01*
X145628225Y-113685146D01*
X145628225Y-113626854D01*
X145628971Y-113623715D01*
X145631745Y-113616316D01*
X145638500Y-113554134D01*
X145638500Y-112757866D01*
X145631745Y-112695684D01*
X145628971Y-112688285D01*
X145628225Y-112685146D01*
X145628225Y-112626854D01*
X145628971Y-112623715D01*
X145631745Y-112616316D01*
X145638500Y-112554134D01*
X145638500Y-111757866D01*
X145631745Y-111695684D01*
X145628971Y-111688285D01*
X145628225Y-111685146D01*
X145628225Y-111626854D01*
X145628971Y-111623715D01*
X145631745Y-111616316D01*
X145638500Y-111554134D01*
X145638500Y-110757866D01*
X145631745Y-110695684D01*
X145628971Y-110688285D01*
X145628225Y-110685146D01*
X145628225Y-110626854D01*
X145628971Y-110623715D01*
X145631745Y-110616316D01*
X145638500Y-110554134D01*
X145638500Y-109757866D01*
X145631745Y-109695684D01*
X145628971Y-109688285D01*
X145628225Y-109685146D01*
X145628225Y-109626854D01*
X145628971Y-109623715D01*
X145631745Y-109616316D01*
X145638500Y-109554134D01*
X145638500Y-108757866D01*
X145631745Y-108695684D01*
X145628971Y-108688285D01*
X145628225Y-108685146D01*
X145628225Y-108626854D01*
X145628971Y-108623715D01*
X145631745Y-108616316D01*
X145638500Y-108554134D01*
X145638500Y-107757866D01*
X145631745Y-107695684D01*
X145628971Y-107688285D01*
X145628225Y-107685146D01*
X145628225Y-107626854D01*
X145628971Y-107623715D01*
X145631745Y-107616316D01*
X145638500Y-107554134D01*
X145638500Y-106757866D01*
X145631745Y-106695684D01*
X145628971Y-106688285D01*
X145628225Y-106685146D01*
X145628225Y-106626854D01*
X145628971Y-106623715D01*
X145631745Y-106616316D01*
X145638500Y-106554134D01*
X145638500Y-105757866D01*
X145631745Y-105695684D01*
X145628971Y-105688285D01*
X145628225Y-105685146D01*
X145628225Y-105626854D01*
X145628971Y-105623715D01*
X145631745Y-105616316D01*
X145638500Y-105554134D01*
X145638500Y-104757866D01*
X145631745Y-104695684D01*
X145580615Y-104559295D01*
X145493261Y-104442739D01*
X145376705Y-104355385D01*
X145240316Y-104304255D01*
X145178134Y-104297500D01*
X144381866Y-104297500D01*
X144378470Y-104297869D01*
X144375071Y-104298053D01*
X144374992Y-104296585D01*
X144310880Y-104285088D01*
X144293100Y-104274292D01*
X144161893Y-104178964D01*
X144161892Y-104178963D01*
X144156551Y-104175083D01*
X144150523Y-104172399D01*
X144150521Y-104172398D01*
X143988118Y-104100092D01*
X143988117Y-104100092D01*
X143982087Y-104097407D01*
X143888687Y-104077554D01*
X143801743Y-104059073D01*
X143801738Y-104059073D01*
X143795286Y-104057701D01*
X143604312Y-104057701D01*
X143597860Y-104059073D01*
X143597855Y-104059073D01*
X143510911Y-104077554D01*
X143417511Y-104097407D01*
X143411481Y-104100092D01*
X143411480Y-104100092D01*
X143249077Y-104172398D01*
X143249075Y-104172399D01*
X143243047Y-104175083D01*
X143088546Y-104287335D01*
X143084124Y-104292247D01*
X143079222Y-104296660D01*
X143078343Y-104295684D01*
X143023926Y-104329203D01*
X142952942Y-104327846D01*
X142901650Y-104296745D01*
X142316218Y-103711313D01*
X142282192Y-103649001D01*
X142284754Y-103585593D01*
X142289805Y-103568967D01*
X142328745Y-103509604D01*
X142393599Y-103480716D01*
X142463775Y-103491477D01*
X142474316Y-103497695D01*
X142474376Y-103497587D01*
X142492127Y-103507346D01*
X142508651Y-103518199D01*
X142524654Y-103530613D01*
X142565238Y-103548176D01*
X142575868Y-103553383D01*
X142614635Y-103574695D01*
X142622312Y-103576666D01*
X142622317Y-103576668D01*
X142634253Y-103579732D01*
X142652961Y-103586137D01*
X142671550Y-103594181D01*
X142679378Y-103595421D01*
X142679385Y-103595423D01*
X142715219Y-103601099D01*
X142726839Y-103603505D01*
X142761774Y-103612474D01*
X142769665Y-103614500D01*
X142789919Y-103614500D01*
X142809629Y-103616051D01*
X142829638Y-103619220D01*
X142837530Y-103618474D01*
X142873656Y-103615059D01*
X142885514Y-103614500D01*
X143943934Y-103614500D01*
X144012055Y-103634502D01*
X144044758Y-103664932D01*
X144066739Y-103694261D01*
X144183295Y-103781615D01*
X144319684Y-103832745D01*
X144381866Y-103839500D01*
X145178134Y-103839500D01*
X145240316Y-103832745D01*
X145376705Y-103781615D01*
X145493261Y-103694261D01*
X145580615Y-103577705D01*
X145631745Y-103441316D01*
X145638500Y-103379134D01*
X145638500Y-102582866D01*
X145631745Y-102520684D01*
X145628971Y-102513285D01*
X145628225Y-102510146D01*
X145628225Y-102451854D01*
X145628971Y-102448715D01*
X145631745Y-102441316D01*
X145638500Y-102379134D01*
X145638500Y-101582866D01*
X145631745Y-101520684D01*
X145628971Y-101513285D01*
X145628225Y-101510146D01*
X145628225Y-101451854D01*
X145628971Y-101448715D01*
X145631745Y-101441316D01*
X145638500Y-101379134D01*
X145638500Y-100582866D01*
X145631745Y-100520684D01*
X145628971Y-100513285D01*
X145628225Y-100510146D01*
X145628225Y-100451854D01*
X145628971Y-100448715D01*
X145631745Y-100441316D01*
X145638500Y-100379134D01*
X145638500Y-99582866D01*
X145631745Y-99520684D01*
X145628971Y-99513285D01*
X145628225Y-99510146D01*
X145628225Y-99451854D01*
X145628971Y-99448715D01*
X145631745Y-99441316D01*
X145638500Y-99379134D01*
X145638500Y-98582866D01*
X145631745Y-98520684D01*
X145628971Y-98513285D01*
X145628225Y-98510146D01*
X145628225Y-98451854D01*
X145628971Y-98448715D01*
X145631745Y-98441316D01*
X145638500Y-98379134D01*
X145638500Y-97582866D01*
X145631745Y-97520684D01*
X145628971Y-97513285D01*
X145628225Y-97510146D01*
X145628225Y-97451854D01*
X145628971Y-97448715D01*
X145631745Y-97441316D01*
X145638500Y-97379134D01*
X145638500Y-96582866D01*
X145631745Y-96520684D01*
X145628971Y-96513285D01*
X145628225Y-96510146D01*
X145628225Y-96451854D01*
X145628971Y-96448715D01*
X145631745Y-96441316D01*
X145638500Y-96379134D01*
X145638500Y-95582866D01*
X145631745Y-95520684D01*
X145628971Y-95513285D01*
X145628225Y-95510146D01*
X145628225Y-95451854D01*
X145628971Y-95448715D01*
X145631745Y-95441316D01*
X145638500Y-95379134D01*
X145638500Y-94582866D01*
X145631745Y-94520684D01*
X145628971Y-94513284D01*
X145627966Y-94509058D01*
X145627966Y-94450761D01*
X145632105Y-94433354D01*
X145637631Y-94382486D01*
X145638000Y-94375672D01*
X145638000Y-94253115D01*
X145633525Y-94237876D01*
X145632135Y-94236671D01*
X145624452Y-94235000D01*
X145491553Y-94235000D01*
X145423432Y-94214998D01*
X145415988Y-94209826D01*
X145408739Y-94204393D01*
X145376705Y-94180385D01*
X145240316Y-94129255D01*
X145178134Y-94122500D01*
X144652000Y-94122500D01*
X144583879Y-94102498D01*
X144537386Y-94048842D01*
X144526000Y-93996500D01*
X144526000Y-93708885D01*
X145034000Y-93708885D01*
X145038475Y-93724124D01*
X145039865Y-93725329D01*
X145047548Y-93727000D01*
X145619884Y-93727000D01*
X145635123Y-93722525D01*
X145636328Y-93721135D01*
X145637999Y-93713452D01*
X145637999Y-93586331D01*
X145637629Y-93579510D01*
X145632105Y-93528648D01*
X145628479Y-93513396D01*
X145583324Y-93392946D01*
X145574786Y-93377351D01*
X145498285Y-93275276D01*
X145485724Y-93262715D01*
X145383649Y-93186214D01*
X145368054Y-93177676D01*
X145247606Y-93132522D01*
X145232351Y-93128895D01*
X145181486Y-93123369D01*
X145174672Y-93123000D01*
X145052115Y-93123000D01*
X145036876Y-93127475D01*
X145035671Y-93128865D01*
X145034000Y-93136548D01*
X145034000Y-93708885D01*
X144526000Y-93708885D01*
X144526000Y-93141116D01*
X144521525Y-93125877D01*
X144520135Y-93124672D01*
X144512452Y-93123001D01*
X144385331Y-93123001D01*
X144378510Y-93123371D01*
X144327648Y-93128895D01*
X144312396Y-93132521D01*
X144191946Y-93177676D01*
X144176351Y-93186214D01*
X144074276Y-93262715D01*
X144061715Y-93275276D01*
X143994722Y-93364665D01*
X143937863Y-93407180D01*
X143867045Y-93412206D01*
X143804801Y-93378195D01*
X142021505Y-91594899D01*
X141987479Y-91532587D01*
X141992544Y-91461772D01*
X142008275Y-91432281D01*
X142133453Y-91258077D01*
X142176268Y-91171448D01*
X142230136Y-91062453D01*
X142230137Y-91062451D01*
X142232430Y-91057811D01*
X142297370Y-90844069D01*
X142326529Y-90622590D01*
X142328156Y-90556000D01*
X142309852Y-90333361D01*
X142297424Y-90283885D01*
X162472000Y-90283885D01*
X162476475Y-90299124D01*
X162477865Y-90300329D01*
X162485548Y-90302000D01*
X163557885Y-90302000D01*
X163573124Y-90297525D01*
X163574329Y-90296135D01*
X163576000Y-90288452D01*
X163576000Y-89216116D01*
X163571525Y-89200877D01*
X163570135Y-89199672D01*
X163562452Y-89198001D01*
X162935331Y-89198001D01*
X162928510Y-89198371D01*
X162877648Y-89203895D01*
X162862396Y-89207521D01*
X162741946Y-89252676D01*
X162726351Y-89261214D01*
X162624276Y-89337715D01*
X162611715Y-89350276D01*
X162535214Y-89452351D01*
X162526676Y-89467946D01*
X162481522Y-89588394D01*
X162477895Y-89603649D01*
X162472369Y-89654514D01*
X162472000Y-89661328D01*
X162472000Y-90283885D01*
X142297424Y-90283885D01*
X142255431Y-90116702D01*
X142166354Y-89911840D01*
X142045014Y-89724277D01*
X141894670Y-89559051D01*
X141890619Y-89555852D01*
X141890615Y-89555848D01*
X141723414Y-89423800D01*
X141723410Y-89423798D01*
X141719359Y-89420598D01*
X141523789Y-89312638D01*
X141518920Y-89310914D01*
X141518916Y-89310912D01*
X141318087Y-89239795D01*
X141318083Y-89239794D01*
X141313212Y-89238069D01*
X141308119Y-89237162D01*
X141308116Y-89237161D01*
X141098373Y-89199800D01*
X141098367Y-89199799D01*
X141093284Y-89198894D01*
X141019452Y-89197992D01*
X140875081Y-89196228D01*
X140875079Y-89196228D01*
X140869911Y-89196165D01*
X140649091Y-89229955D01*
X140436756Y-89299357D01*
X140238607Y-89402507D01*
X140234474Y-89405610D01*
X140234471Y-89405612D01*
X140151450Y-89467946D01*
X140059965Y-89536635D01*
X140056393Y-89540373D01*
X139978898Y-89621466D01*
X139917374Y-89656895D01*
X139846462Y-89653438D01*
X139788676Y-89612192D01*
X139769823Y-89578644D01*
X139728324Y-89467946D01*
X139719786Y-89452351D01*
X139643285Y-89350276D01*
X139630724Y-89337715D01*
X139528649Y-89261214D01*
X139513054Y-89252676D01*
X139392606Y-89207522D01*
X139377351Y-89203895D01*
X139326486Y-89198369D01*
X139319672Y-89198000D01*
X138697115Y-89198000D01*
X138681876Y-89202475D01*
X138680671Y-89203865D01*
X138679000Y-89211548D01*
X138679000Y-90684000D01*
X138658998Y-90752121D01*
X138605342Y-90798614D01*
X138553000Y-90810000D01*
X137085116Y-90810000D01*
X137069877Y-90814475D01*
X137068672Y-90815865D01*
X137067001Y-90823548D01*
X137067001Y-91450669D01*
X137067371Y-91457490D01*
X137072895Y-91508352D01*
X137076521Y-91523604D01*
X137121676Y-91644054D01*
X137130214Y-91659649D01*
X137206715Y-91761724D01*
X137219276Y-91774285D01*
X137321351Y-91850786D01*
X137336946Y-91859324D01*
X137445827Y-91900142D01*
X137502591Y-91942784D01*
X137527291Y-92009345D01*
X137512083Y-92078694D01*
X137492691Y-92105175D01*
X137369200Y-92234401D01*
X137365629Y-92238138D01*
X137362720Y-92242403D01*
X137362714Y-92242411D01*
X137297785Y-92337594D01*
X137239743Y-92422680D01*
X137145688Y-92625305D01*
X137085989Y-92840570D01*
X137062251Y-93062695D01*
X137062548Y-93067848D01*
X137062548Y-93067851D01*
X137069373Y-93186214D01*
X137075110Y-93285715D01*
X137076247Y-93290761D01*
X137076248Y-93290767D01*
X137096119Y-93378939D01*
X137124222Y-93503639D01*
X137208266Y-93710616D01*
X137259019Y-93793438D01*
X137322291Y-93896688D01*
X137324987Y-93901088D01*
X137471250Y-94069938D01*
X137643126Y-94212632D01*
X137684264Y-94236671D01*
X137716445Y-94255476D01*
X137765169Y-94307114D01*
X137778240Y-94376897D01*
X137751509Y-94442669D01*
X137711055Y-94476027D01*
X137698607Y-94482507D01*
X137694474Y-94485610D01*
X137694471Y-94485612D01*
X137560390Y-94586283D01*
X137519965Y-94616635D01*
X137516393Y-94620373D01*
X137406986Y-94734861D01*
X137365629Y-94778138D01*
X137239743Y-94962680D01*
X137145688Y-95165305D01*
X137085989Y-95380570D01*
X137062251Y-95602695D01*
X137062548Y-95607848D01*
X137062548Y-95607851D01*
X137068011Y-95702590D01*
X137075110Y-95825715D01*
X137076247Y-95830761D01*
X137076248Y-95830767D01*
X137096119Y-95918939D01*
X137124222Y-96043639D01*
X137208266Y-96250616D01*
X137259019Y-96333438D01*
X137322291Y-96436688D01*
X137324987Y-96441088D01*
X137471250Y-96609938D01*
X137643126Y-96752632D01*
X137713595Y-96793811D01*
X137716445Y-96795476D01*
X137765169Y-96847114D01*
X137778240Y-96916897D01*
X137751509Y-96982669D01*
X137711055Y-97016027D01*
X137698607Y-97022507D01*
X137694474Y-97025610D01*
X137694471Y-97025612D01*
X137670247Y-97043800D01*
X137519965Y-97156635D01*
X137365629Y-97318138D01*
X137239743Y-97502680D01*
X137145688Y-97705305D01*
X137085989Y-97920570D01*
X137062251Y-98142695D01*
X137062548Y-98147848D01*
X137062548Y-98147851D01*
X137068011Y-98242590D01*
X137075110Y-98365715D01*
X137076247Y-98370761D01*
X137076248Y-98370767D01*
X137096119Y-98458939D01*
X137124222Y-98583639D01*
X137208266Y-98790616D01*
X137259019Y-98873438D01*
X137322291Y-98976688D01*
X137324987Y-98981088D01*
X137471250Y-99149938D01*
X137643126Y-99292632D01*
X137713595Y-99333811D01*
X137716445Y-99335476D01*
X137765169Y-99387114D01*
X137778240Y-99456897D01*
X137751509Y-99522669D01*
X137711055Y-99556027D01*
X137698607Y-99562507D01*
X137694474Y-99565610D01*
X137694471Y-99565612D01*
X137671491Y-99582866D01*
X137519965Y-99696635D01*
X137365629Y-99858138D01*
X137239743Y-100042680D01*
X137145688Y-100245305D01*
X137085989Y-100460570D01*
X137062251Y-100682695D01*
X137062548Y-100687848D01*
X137062548Y-100687851D01*
X137068011Y-100782590D01*
X137075110Y-100905715D01*
X137076247Y-100910761D01*
X137076248Y-100910767D01*
X137096119Y-100998939D01*
X137124222Y-101123639D01*
X137208266Y-101330616D01*
X137259019Y-101413438D01*
X137322291Y-101516688D01*
X137324987Y-101521088D01*
X137471250Y-101689938D01*
X137643126Y-101832632D01*
X137713595Y-101873811D01*
X137716445Y-101875476D01*
X137765169Y-101927114D01*
X137778240Y-101996897D01*
X137751509Y-102062669D01*
X137711055Y-102096027D01*
X137698607Y-102102507D01*
X137694474Y-102105610D01*
X137694471Y-102105612D01*
X137670247Y-102123800D01*
X137519965Y-102236635D01*
X137365629Y-102398138D01*
X137239743Y-102582680D01*
X137145688Y-102785305D01*
X137085989Y-103000570D01*
X137062251Y-103222695D01*
X137062548Y-103227848D01*
X137062548Y-103227851D01*
X137068011Y-103322590D01*
X137075110Y-103445715D01*
X137076247Y-103450761D01*
X137076248Y-103450767D01*
X137094243Y-103530613D01*
X137124222Y-103663639D01*
X137208266Y-103870616D01*
X137259019Y-103953438D01*
X137322291Y-104056688D01*
X137324987Y-104061088D01*
X137471250Y-104229938D01*
X137643126Y-104372632D01*
X137713595Y-104413811D01*
X137716445Y-104415476D01*
X137765169Y-104467114D01*
X137778240Y-104536897D01*
X137751509Y-104602669D01*
X137711055Y-104636027D01*
X137698607Y-104642507D01*
X137694474Y-104645610D01*
X137694471Y-104645612D01*
X137524100Y-104773530D01*
X137519965Y-104776635D01*
X137365629Y-104938138D01*
X137239743Y-105122680D01*
X137145688Y-105325305D01*
X137085989Y-105540570D01*
X137062251Y-105762695D01*
X137062548Y-105767848D01*
X137062548Y-105767851D01*
X137068011Y-105862590D01*
X137075110Y-105985715D01*
X137076247Y-105990761D01*
X137076248Y-105990767D01*
X137096119Y-106078939D01*
X137124222Y-106203639D01*
X137208266Y-106410616D01*
X137259019Y-106493438D01*
X137322291Y-106596688D01*
X137324987Y-106601088D01*
X137471250Y-106769938D01*
X137643126Y-106912632D01*
X137713595Y-106953811D01*
X137716445Y-106955476D01*
X137765169Y-107007114D01*
X137778240Y-107076897D01*
X137751509Y-107142669D01*
X137711055Y-107176027D01*
X137698607Y-107182507D01*
X137694474Y-107185610D01*
X137694471Y-107185612D01*
X137670247Y-107203800D01*
X137519965Y-107316635D01*
X137365629Y-107478138D01*
X137239743Y-107662680D01*
X137145688Y-107865305D01*
X137085989Y-108080570D01*
X137062251Y-108302695D01*
X137062548Y-108307848D01*
X137062548Y-108307851D01*
X137068011Y-108402590D01*
X137075110Y-108525715D01*
X137076247Y-108530761D01*
X137076248Y-108530767D01*
X137082280Y-108557531D01*
X137124222Y-108743639D01*
X137208266Y-108950616D01*
X137259019Y-109033438D01*
X137322291Y-109136688D01*
X137324987Y-109141088D01*
X137471250Y-109309938D01*
X137643126Y-109452632D01*
X137713595Y-109493811D01*
X137716445Y-109495476D01*
X137765169Y-109547114D01*
X137778240Y-109616897D01*
X137751509Y-109682669D01*
X137711055Y-109716027D01*
X137698607Y-109722507D01*
X137694474Y-109725610D01*
X137694471Y-109725612D01*
X137651513Y-109757866D01*
X137519965Y-109856635D01*
X137365629Y-110018138D01*
X137239743Y-110202680D01*
X137145688Y-110405305D01*
X137085989Y-110620570D01*
X137062251Y-110842695D01*
X137062548Y-110847848D01*
X137062548Y-110847851D01*
X137068011Y-110942590D01*
X137075110Y-111065715D01*
X137076247Y-111070761D01*
X137076248Y-111070767D01*
X137096119Y-111158939D01*
X137124222Y-111283639D01*
X137208266Y-111490616D01*
X137247190Y-111554134D01*
X137322291Y-111676688D01*
X137324987Y-111681088D01*
X137471250Y-111849938D01*
X137643126Y-111992632D01*
X137713595Y-112033811D01*
X137716445Y-112035476D01*
X137765169Y-112087114D01*
X137778240Y-112156897D01*
X137751509Y-112222669D01*
X137711055Y-112256027D01*
X137698607Y-112262507D01*
X137694474Y-112265610D01*
X137694471Y-112265612D01*
X137670247Y-112283800D01*
X137519965Y-112396635D01*
X137365629Y-112558138D01*
X137239743Y-112742680D01*
X137145688Y-112945305D01*
X137085989Y-113160570D01*
X137062251Y-113382695D01*
X135763500Y-113382695D01*
X135763500Y-90283885D01*
X137067000Y-90283885D01*
X137071475Y-90299124D01*
X137072865Y-90300329D01*
X137080548Y-90302000D01*
X138152885Y-90302000D01*
X138168124Y-90297525D01*
X138169329Y-90296135D01*
X138171000Y-90288452D01*
X138171000Y-89216116D01*
X138166525Y-89200877D01*
X138165135Y-89199672D01*
X138157452Y-89198001D01*
X137530331Y-89198001D01*
X137523510Y-89198371D01*
X137472648Y-89203895D01*
X137457396Y-89207521D01*
X137336946Y-89252676D01*
X137321351Y-89261214D01*
X137219276Y-89337715D01*
X137206715Y-89350276D01*
X137130214Y-89452351D01*
X137121676Y-89467946D01*
X137076522Y-89588394D01*
X137072895Y-89603649D01*
X137067369Y-89654514D01*
X137067000Y-89661328D01*
X137067000Y-90283885D01*
X135763500Y-90283885D01*
X135763500Y-85852000D01*
X137668000Y-85852000D01*
X141224000Y-85852000D01*
X141224000Y-82296000D01*
X137668000Y-82296000D01*
X137668000Y-85852000D01*
X135763500Y-85852000D01*
X135763500Y-84255852D01*
X135765354Y-84234320D01*
X135766972Y-84224993D01*
X135766972Y-84224990D01*
X135768506Y-84216146D01*
X135766438Y-84197880D01*
X135765966Y-84174624D01*
X135784449Y-83918835D01*
X135786199Y-83905127D01*
X135831686Y-83657781D01*
X135837709Y-83625031D01*
X135840949Y-83611600D01*
X135922823Y-83338830D01*
X135927515Y-83325835D01*
X136038769Y-83063672D01*
X136044857Y-83051267D01*
X136184143Y-82802876D01*
X136191549Y-82791217D01*
X136357218Y-82559550D01*
X136365853Y-82548777D01*
X136555900Y-82336641D01*
X136565641Y-82326900D01*
X136777777Y-82136853D01*
X136788550Y-82128218D01*
X136875812Y-82065815D01*
X137020217Y-81962549D01*
X137031870Y-81955147D01*
X137141733Y-81893541D01*
X137280267Y-81815857D01*
X137292672Y-81809769D01*
X137477697Y-81731250D01*
X137554838Y-81698514D01*
X137567830Y-81693823D01*
X137840603Y-81611948D01*
X137854031Y-81608709D01*
X138134128Y-81557199D01*
X138147834Y-81555449D01*
X138227476Y-81549694D01*
X138396331Y-81537493D01*
X138422643Y-81538349D01*
X138423706Y-81538496D01*
X138423708Y-81538496D01*
X138432596Y-81539723D01*
X138455916Y-81536263D01*
X138458606Y-81535864D01*
X138477098Y-81534500D01*
X166320664Y-81534500D01*
X166340037Y-81535998D01*
G37*
%TD.AperFunction*%
%TA.AperFunction,Conductor*%
G36*
X162542470Y-92384502D02*
G01*
X162588963Y-92438158D01*
X162599067Y-92508432D01*
X162588637Y-92543550D01*
X162550688Y-92625305D01*
X162490989Y-92840570D01*
X162467251Y-93062695D01*
X162467548Y-93067848D01*
X162467548Y-93067851D01*
X162474373Y-93186214D01*
X162480110Y-93285715D01*
X162481247Y-93290761D01*
X162481248Y-93290767D01*
X162513453Y-93433668D01*
X162508917Y-93504520D01*
X162479631Y-93550464D01*
X162362837Y-93667258D01*
X162300525Y-93701284D01*
X162229710Y-93696219D01*
X162172874Y-93653672D01*
X162147927Y-93584982D01*
X162147631Y-93579527D01*
X162142105Y-93528648D01*
X162138479Y-93513396D01*
X162093324Y-93392946D01*
X162084786Y-93377351D01*
X162008285Y-93275276D01*
X161995724Y-93262715D01*
X161893649Y-93186214D01*
X161878054Y-93177676D01*
X161757606Y-93132522D01*
X161742351Y-93128895D01*
X161691486Y-93123369D01*
X161684672Y-93123000D01*
X161562115Y-93123000D01*
X161546876Y-93127475D01*
X161545671Y-93128865D01*
X161544000Y-93136548D01*
X161544000Y-93996500D01*
X161523998Y-94064621D01*
X161470342Y-94111114D01*
X161418000Y-94122500D01*
X161324500Y-94122500D01*
X161256379Y-94102498D01*
X161209886Y-94048842D01*
X161198500Y-93996500D01*
X161198500Y-92724289D01*
X161218502Y-92656168D01*
X161235405Y-92635194D01*
X161469194Y-92401405D01*
X161531506Y-92367379D01*
X161558289Y-92364500D01*
X162474349Y-92364500D01*
X162542470Y-92384502D01*
G37*
%TD.AperFunction*%
%TD*%
M02*
