%TF.GenerationSoftware,KiCad,Pcbnew,(6.0.7)*%
%TF.CreationDate,2022-11-10T23:08:22-08:00*%
%TF.ProjectId,memsbreakout_w50,6d656d73-6272-4656-916b-6f75745f7735,0*%
%TF.SameCoordinates,Original*%
%TF.FileFunction,Legend,Top*%
%TF.FilePolarity,Positive*%
%FSLAX46Y46*%
G04 Gerber Fmt 4.6, Leading zero omitted, Abs format (unit mm)*
G04 Created by KiCad (PCBNEW (6.0.7)) date 2022-11-10 23:08:22*
%MOMM*%
%LPD*%
G01*
G04 APERTURE LIST*
%ADD10C,0.150000*%
%ADD11C,0.100000*%
%ADD12C,0.127000*%
%ADD13C,0.120000*%
G04 APERTURE END LIST*
D10*
X169164000Y-117094000D02*
G75*
G03*
X169164000Y-117094000I-1651000J0D01*
G01*
X141097000Y-84074000D02*
G75*
G03*
X141097000Y-84074000I-1651000J0D01*
G01*
D11*
X143674814Y-84134039D02*
X143652922Y-84126580D01*
X142134866Y-83826236D02*
X142069909Y-84104012D01*
X142611113Y-87846167D02*
X142698537Y-87778916D01*
X137745134Y-87169879D02*
X137786957Y-87185329D01*
X142697692Y-86792377D02*
X142965121Y-86792377D01*
X143001735Y-85681025D02*
X143001735Y-86220420D01*
X142260768Y-87965788D02*
X142357250Y-87949616D01*
X142532082Y-82971437D02*
X142278102Y-83708427D01*
X142193536Y-84914818D02*
X142195021Y-85422163D01*
X138394170Y-86486149D02*
X138380617Y-86587715D01*
X137527079Y-87494727D02*
X137375532Y-87495762D01*
X139277343Y-86520305D02*
X139307735Y-86561887D01*
X142537300Y-84581952D02*
X142836164Y-84540172D01*
X143633049Y-87928689D02*
X143331025Y-87928689D01*
X141235725Y-87057428D02*
X141237645Y-87109793D01*
X142416259Y-86723544D02*
X142425578Y-86765871D01*
X143312895Y-85538049D02*
X143312895Y-85538025D01*
X142075716Y-85927566D02*
X142076316Y-85816481D01*
X141673998Y-86146748D02*
X141568849Y-86217959D01*
X141301201Y-86602733D02*
X141264570Y-86728072D01*
X139534948Y-86125297D02*
X139405185Y-86074142D01*
X143200896Y-85480285D02*
X143201718Y-85102634D01*
X139200083Y-87968067D02*
X139367389Y-87946145D01*
X143675532Y-84471467D02*
X143655230Y-84465151D01*
X142532368Y-87889824D02*
X142611113Y-87846167D01*
X142227304Y-83555941D02*
X142225415Y-83550566D01*
X142796579Y-82233207D02*
X142784733Y-82234437D01*
X138881828Y-87363407D02*
X138880521Y-87357068D01*
X143626366Y-84164670D02*
X143626366Y-84286879D01*
X138880521Y-87357068D02*
X138635444Y-87357068D01*
X142025104Y-84115572D02*
X142019778Y-84129291D01*
X142760124Y-86291104D02*
X142681869Y-86217020D01*
X139235562Y-86489853D02*
X139277343Y-86520305D01*
X143315186Y-83812119D02*
X143315186Y-83925059D01*
X138504601Y-87739081D02*
X138559382Y-87790774D01*
X142980179Y-86752972D02*
X142960256Y-86743479D01*
X138192192Y-87797068D02*
X138251037Y-87747801D01*
X138928456Y-86524643D02*
X138950168Y-86496824D01*
X142767187Y-84002580D02*
X142565400Y-84032152D01*
X143575633Y-84108508D02*
X143529063Y-84090840D01*
X138260656Y-87036445D02*
X138198442Y-86989131D01*
X141237645Y-87109793D02*
X141065533Y-86598728D01*
X143627964Y-85114077D02*
X143626159Y-85722667D01*
X142268587Y-84724859D02*
X142266517Y-85163943D01*
X142046388Y-86039830D02*
X142037169Y-86040390D01*
X142896590Y-87501781D02*
X142938383Y-87378342D01*
X137653948Y-86516981D02*
X137710718Y-86526262D01*
X139326391Y-86619509D02*
X139593506Y-86619509D01*
X142473912Y-85561747D02*
X142479570Y-85567405D01*
X142259171Y-84076011D02*
X142186741Y-84087598D01*
X138410344Y-86818290D02*
X138457754Y-86914231D01*
X142447765Y-87924301D02*
X142532368Y-87889824D01*
X142269432Y-85596066D02*
X142277903Y-85604564D01*
X142490364Y-86106812D02*
X142377469Y-86071081D01*
X143626366Y-84286879D02*
X143626361Y-84286878D01*
X142226268Y-85618042D02*
X142228426Y-85561481D01*
X139036204Y-86693876D02*
X138986391Y-86668112D01*
X143166703Y-84642524D02*
X143146228Y-84639072D01*
X141999668Y-84427514D02*
X141992263Y-84435683D01*
X138157101Y-86199607D02*
X138098279Y-86166161D01*
X138123447Y-87836506D02*
X138192192Y-87797068D01*
X142325307Y-86562335D02*
X142380178Y-86632391D01*
X143472982Y-85562804D02*
X143516175Y-85570504D01*
X143297264Y-84675421D02*
X143280044Y-84687546D01*
X142842981Y-87606272D02*
X142896590Y-87501781D01*
X142061408Y-84146529D02*
X142060813Y-84281856D01*
X141800688Y-86938737D02*
X141816369Y-86810063D01*
X142960256Y-86743479D02*
X142952354Y-86709366D01*
X137799713Y-86696128D02*
X137782551Y-86740716D01*
X142322109Y-87454339D02*
X142280747Y-87486808D01*
X142848460Y-85082631D02*
X142848460Y-84659169D01*
X139292020Y-87518555D02*
X139231851Y-87538726D01*
X137867561Y-87909070D02*
X137962525Y-87891940D01*
X138414653Y-87617144D02*
X138455805Y-87680455D01*
X137661465Y-86816268D02*
X137507613Y-86819993D01*
X142145755Y-84435633D02*
X142596071Y-84367649D01*
X143659936Y-87425643D02*
X143657436Y-86333293D01*
X137842951Y-87415660D02*
X137811329Y-87450494D01*
X143201718Y-85102634D02*
X143201103Y-84696048D01*
X143195779Y-84680345D02*
X143183612Y-84657449D01*
X138104537Y-86948163D02*
X138127823Y-86930876D01*
X139703672Y-87921774D02*
X139979582Y-87921774D01*
X142214070Y-83548912D02*
X142199891Y-83548662D01*
X143002518Y-84073999D02*
X143004043Y-84207326D01*
X138234460Y-86824025D02*
X138289864Y-86728822D01*
X143344231Y-84006904D02*
X143343096Y-83924504D01*
X143266520Y-84707572D02*
X143259887Y-84721402D01*
X142430263Y-86792377D02*
X142697692Y-86792377D01*
X143626361Y-84286878D02*
X143623481Y-84408836D01*
X143724475Y-84444813D02*
X143722539Y-84433705D01*
X143621180Y-84162435D02*
X143626366Y-84164670D01*
X138928604Y-86608668D02*
X138920942Y-86566515D01*
X139299789Y-87309298D02*
X139331071Y-87332682D01*
X137863968Y-87315820D02*
X137860781Y-87370128D01*
X139307735Y-86561887D02*
X139322317Y-86601646D01*
X137485591Y-87154252D02*
X137689008Y-87160378D01*
X143704782Y-84158771D02*
X143698732Y-84145120D01*
X139249167Y-86043905D02*
X139122806Y-86039596D01*
X143472979Y-85562805D02*
X143472982Y-85562804D01*
X143329812Y-84343723D02*
X143039024Y-84278860D01*
X143673159Y-85772928D02*
X143694266Y-85771633D01*
X143703162Y-85744089D02*
X143693321Y-85733998D01*
X143498422Y-84087747D02*
X143428698Y-84069257D01*
X142837094Y-83991901D02*
X142862556Y-83903739D01*
X142182634Y-87520081D02*
X142121405Y-87522406D01*
X143259887Y-84721402D02*
X143259886Y-85121521D01*
X138950168Y-86496824D02*
X138984350Y-86477315D01*
X143626159Y-85722667D02*
X143357835Y-85682474D01*
X139361373Y-87451962D02*
X139346721Y-87477698D01*
X143092781Y-83730293D02*
X143017488Y-83462924D01*
X139729545Y-86955235D02*
X139613697Y-86882585D01*
X143623460Y-84120781D02*
X143575633Y-84108508D01*
X143525811Y-85569355D02*
X143530405Y-85533858D01*
X142683479Y-84676221D02*
X142681844Y-85108847D01*
X141461127Y-87777445D02*
X141414705Y-87636488D01*
X141992263Y-84435683D02*
X141992531Y-84446901D01*
X143652922Y-84126580D02*
X143652222Y-84111727D01*
X142843537Y-82413724D02*
X143344402Y-83807204D01*
X143479007Y-84712280D02*
X143456788Y-84716160D01*
X138289864Y-86728822D02*
X138321986Y-86625263D01*
X143004043Y-84274487D02*
X142902051Y-84289875D01*
X139848976Y-87092163D02*
X139816413Y-87042796D01*
X138219325Y-86250367D02*
X138157101Y-86199607D01*
X142037169Y-86040390D02*
X141908989Y-86057649D01*
X142380178Y-86632391D02*
X142416259Y-86723544D01*
X142294130Y-85744708D02*
X142088609Y-85774946D01*
X142377469Y-86071081D02*
X142243307Y-86047302D01*
X142725727Y-84606233D02*
X142705492Y-84621754D01*
X143067171Y-85638644D02*
X143041569Y-85634794D01*
X139513670Y-87904914D02*
X139638453Y-87844553D01*
X140881986Y-87680911D02*
X140913784Y-87796156D01*
X143280044Y-84687546D02*
X143266520Y-84707572D01*
X142199801Y-85624610D02*
X142210344Y-85630528D01*
X142210344Y-85630528D02*
X142221761Y-85628920D01*
X143516175Y-85570504D02*
X143525811Y-85569355D01*
X143029792Y-86802769D02*
X143033697Y-85675654D01*
X142425163Y-84696904D02*
X142398706Y-84667486D01*
X142487264Y-85573062D02*
X142625518Y-85553366D01*
X142681869Y-86217020D02*
X142591889Y-86155524D01*
X142693953Y-85533898D02*
X142704405Y-85534723D01*
X143380894Y-84097771D02*
X143621180Y-84162435D01*
X138890211Y-87392253D02*
X138881828Y-87363407D01*
X139122806Y-86039596D02*
X138994701Y-86043882D01*
X142999463Y-83799270D02*
X143001123Y-83967887D01*
X142693950Y-85533897D02*
X142693953Y-85533898D01*
X143365708Y-85543654D02*
X143370628Y-85539619D01*
X143037463Y-84006465D02*
X143091629Y-84020902D01*
X142387921Y-84032812D02*
X142337009Y-83883884D01*
X140913784Y-87796156D02*
X140946886Y-87916587D01*
X142278102Y-83708427D02*
X142227304Y-83555941D01*
X142826477Y-86377577D02*
X142760124Y-86291104D01*
X143036754Y-84115004D02*
X143037463Y-84006465D01*
X142088998Y-84276559D02*
X142089908Y-84141722D01*
X142774668Y-85524563D02*
X142843815Y-85510738D01*
X143722539Y-84433705D02*
X143687499Y-84421217D01*
X142235554Y-84622740D02*
X142537300Y-84581952D01*
X142939888Y-83663929D02*
X142990282Y-83515263D01*
X142995396Y-85682305D02*
X143001735Y-85681025D01*
X142073259Y-87970122D02*
X142260768Y-87965788D01*
X139843522Y-86529114D02*
X139819837Y-86449700D01*
X143601120Y-84618895D02*
X143104891Y-84518749D01*
X143703932Y-85760569D02*
X143703162Y-85744089D01*
X142326028Y-84654222D02*
X142299073Y-84667056D01*
X141829223Y-87290831D02*
X141804212Y-87160007D01*
X143717869Y-84453136D02*
X143724475Y-84444813D01*
X137514358Y-86514132D02*
X137653948Y-86516981D01*
X142196421Y-84598544D02*
X142193536Y-84914818D01*
X139593506Y-86619509D02*
X139860622Y-86619509D01*
X143624793Y-84457424D02*
X143564132Y-84445791D01*
X142687023Y-85528476D02*
X142693950Y-85533897D01*
X138824627Y-87161297D02*
X139032732Y-87219910D01*
X139323816Y-87499626D02*
X139292020Y-87518555D01*
X143625948Y-84447028D02*
X143624793Y-84457424D01*
X143001735Y-84327410D02*
X142552855Y-84392766D01*
X142995028Y-84009088D02*
X143000993Y-84007833D01*
X142359414Y-84653186D02*
X142326028Y-84654222D01*
X143090784Y-84678479D02*
X143085859Y-84689133D01*
X138920942Y-86566515D02*
X138928456Y-86524643D01*
X143484552Y-83646591D02*
X143485742Y-83655578D01*
X138598782Y-87055075D02*
X138688149Y-87105803D01*
X139405185Y-86074142D02*
X139249167Y-86043905D01*
X143000002Y-86760788D02*
X142980179Y-86752972D01*
X141568849Y-86217959D02*
X141487834Y-86294429D01*
X138648439Y-87854074D02*
X138746870Y-87903666D01*
X143607218Y-85108280D02*
X143607118Y-84627473D01*
X142982941Y-83447194D02*
X142894666Y-83720789D01*
X143369998Y-85129346D02*
X143364757Y-84707878D01*
X142997700Y-84306747D02*
X143001735Y-84316605D01*
X142069909Y-84104012D02*
X142049688Y-84107612D01*
X139267830Y-86764702D02*
X139101877Y-86718214D01*
X139776603Y-86997153D02*
X139729545Y-86955235D01*
X140605274Y-87297142D02*
X140427836Y-87294262D01*
X137689008Y-87160378D02*
X137745134Y-87169879D01*
X143041495Y-84316956D02*
X143334793Y-84377641D01*
X141940385Y-86552421D02*
X141990061Y-86517340D01*
X142277902Y-85604565D02*
X142289381Y-85606240D01*
X137375488Y-86512907D02*
X137514358Y-86514132D01*
X143311151Y-84037726D02*
X143169601Y-83999234D01*
X136810806Y-87921772D02*
X137267792Y-87921772D01*
X142521305Y-84634795D02*
X142501791Y-84647200D01*
X136810806Y-86086902D02*
X136810806Y-87004337D01*
X143001735Y-86220420D02*
X143001732Y-86220408D01*
X143431366Y-85553190D02*
X143472979Y-85562805D01*
X143039859Y-85004499D02*
X143038954Y-84373424D01*
X142199891Y-83548662D02*
X142134866Y-83826236D01*
X143331487Y-87956348D02*
X143661186Y-87956348D01*
X143659820Y-84444625D02*
X143717869Y-84453136D01*
X138318691Y-87663434D02*
X138363115Y-87563360D01*
X143694266Y-85771633D02*
X143703932Y-85760569D01*
X142990282Y-83515263D02*
X142999463Y-83799270D01*
X142894666Y-83720789D02*
X142804937Y-83995839D01*
X141414705Y-87636488D02*
X141425320Y-87649156D01*
X143039024Y-84278860D02*
X143037534Y-84251201D01*
X137793810Y-86598968D02*
X137802053Y-86657672D01*
X138351034Y-87167732D02*
X138311968Y-87096402D01*
X140783715Y-87297142D02*
X140605274Y-87297142D01*
X143187797Y-85519827D02*
X143196687Y-85518168D01*
X141487834Y-86294429D02*
X141412408Y-86385838D01*
X140287586Y-87800757D02*
X140319681Y-87679741D01*
X142186741Y-84087598D02*
X142107636Y-84099447D01*
X140946886Y-87916587D02*
X140948191Y-87921773D01*
X143652222Y-84111727D02*
X143581037Y-83831772D01*
X142277903Y-85604564D02*
X142277902Y-85604565D01*
X142515407Y-84550590D02*
X142196421Y-84598544D01*
X142806224Y-84609959D02*
X142779997Y-84600446D01*
X143670774Y-84177614D02*
X143691366Y-84178449D01*
X143661185Y-84513856D02*
X143693861Y-84515406D01*
X138984350Y-86477315D02*
X139031923Y-86465772D01*
X142088609Y-85774946D02*
X142082460Y-85776176D01*
X141820977Y-87924248D02*
X141942120Y-87954172D01*
X143485742Y-83655578D02*
X143492756Y-83865112D01*
X143094948Y-84535440D02*
X143100325Y-84543373D01*
X142964796Y-87248746D02*
X142968616Y-87220511D01*
X143428698Y-84069257D02*
X143358975Y-84048313D01*
X143629530Y-86228810D02*
X143631985Y-87311550D01*
X143001123Y-83967887D02*
X142920336Y-83980160D01*
X142963605Y-86784310D02*
X142964616Y-86776243D01*
X143000993Y-84007833D02*
X143002518Y-84073999D01*
X141934657Y-87461483D02*
X141900964Y-87429534D01*
X142419915Y-87255268D02*
X142405026Y-87315450D01*
X138376691Y-87247445D02*
X138351034Y-87167732D01*
X138380617Y-86587715D02*
X138384612Y-86709395D01*
X139172153Y-86467848D02*
X139235562Y-86489853D01*
X142429188Y-86787191D02*
X142430263Y-86792377D01*
X138724414Y-86109757D02*
X138617785Y-86165920D01*
X143626416Y-84115790D02*
X143626415Y-84115791D01*
X143312895Y-85538025D02*
X143359314Y-85547454D01*
X142383655Y-87368909D02*
X142355962Y-87415315D01*
X142397923Y-84056437D02*
X142387921Y-84032812D01*
X142596071Y-84367649D02*
X142997700Y-84306747D01*
X143001789Y-87956348D02*
X143331487Y-87956348D01*
X142060340Y-84449358D02*
X142061371Y-84456079D01*
X139859082Y-86607409D02*
X139843522Y-86529114D01*
X143564132Y-84445791D02*
X143277172Y-84381496D01*
X139909552Y-87308334D02*
X139903151Y-87262577D01*
X142784733Y-82234437D02*
X142532082Y-82971437D01*
X142076316Y-85816481D02*
X142191561Y-85799721D01*
X142164440Y-86490366D02*
X142252957Y-86514588D01*
X143004043Y-84207326D02*
X143004043Y-84274487D01*
X139712126Y-86264870D02*
X139659719Y-86211447D01*
X138126670Y-86955730D02*
X138104537Y-86948163D01*
X143017488Y-83462924D02*
X142930241Y-82938594D01*
X143331025Y-87928689D02*
X143029002Y-87928689D01*
X138994701Y-86043882D02*
X138849784Y-86069189D01*
X143338133Y-84675221D02*
X143297264Y-84675421D01*
X139346721Y-87477698D02*
X139323816Y-87499626D01*
X143687499Y-84421217D02*
X143654503Y-84412611D01*
X143001736Y-84374631D02*
X143001736Y-85006866D01*
X143519660Y-84738361D02*
X143503595Y-84718427D01*
X137375488Y-86819993D02*
X137375488Y-86666450D01*
X142020586Y-84492647D02*
X142024861Y-84505217D01*
X143196687Y-85518168D02*
X143200896Y-85480285D01*
X142398706Y-84667486D02*
X142359414Y-84653186D01*
X142427961Y-87211867D02*
X142426956Y-87217053D01*
X142073235Y-87970120D02*
X142073259Y-87970122D01*
X143631985Y-87311550D02*
X143633049Y-87928689D01*
X142075116Y-86038651D02*
X142075716Y-85927566D01*
X143607118Y-84627473D02*
X143601120Y-84618895D01*
X138559382Y-87790774D02*
X138648439Y-87854074D01*
X142683599Y-85487541D02*
X142687023Y-85528476D01*
X142479017Y-84682426D02*
X142475255Y-84731951D01*
X142691306Y-84645200D02*
X142683479Y-84676221D01*
X138030642Y-86138728D02*
X137953572Y-86117101D01*
X140515038Y-86965882D02*
X140602991Y-86644349D01*
X143259886Y-85121521D02*
X143263916Y-85525246D01*
X138372684Y-87532322D02*
X138382801Y-87551394D01*
X143577675Y-85113996D02*
X143581280Y-85588229D01*
X142083425Y-85357119D02*
X142087330Y-84509094D01*
X141908989Y-86057649D02*
X141787655Y-86093206D01*
X143146228Y-84639072D02*
X143123620Y-84643574D01*
X143332475Y-85718834D02*
X143628140Y-85763208D01*
X142920336Y-83980160D02*
X142837094Y-83991901D01*
X139032732Y-87219910D02*
X139209244Y-87269222D01*
X138363115Y-87563360D02*
X138372684Y-87532322D01*
X143693321Y-85733998D02*
X143669636Y-85727451D01*
X138985559Y-87509253D02*
X138926532Y-87459271D01*
X143698732Y-84145120D02*
X143674814Y-84134039D01*
X142228426Y-85561481D02*
X142228054Y-85120675D01*
X142844631Y-84518219D02*
X142835780Y-84509852D01*
X142047385Y-84514039D02*
X142050645Y-85042334D01*
X143043801Y-84329190D02*
X143038614Y-84322405D01*
X140694230Y-86972728D02*
X140783715Y-87297142D01*
X143085859Y-84689133D02*
X143085259Y-85090475D01*
X138951003Y-86640012D02*
X138928604Y-86608668D01*
X142964616Y-86776243D02*
X142984464Y-86784816D01*
X143623481Y-84408836D02*
X143329812Y-84343723D01*
X138849784Y-86069189D02*
X138724414Y-86109757D01*
X143136662Y-85510842D02*
X143187797Y-85519827D01*
X139638453Y-87844553D02*
X139741263Y-87765239D01*
X139819837Y-86449700D02*
X139757087Y-86324482D01*
X138267054Y-86310202D02*
X138219325Y-86250367D01*
X143492756Y-83865112D02*
X143492756Y-83865112D01*
X142060813Y-84281856D02*
X142060218Y-84417184D01*
X137866452Y-86101069D02*
X137733400Y-86089878D01*
X142698946Y-87211867D02*
X142427961Y-87211867D01*
X143088814Y-85496948D02*
X143136666Y-85510841D01*
X142103748Y-86488757D02*
X142164440Y-86490366D01*
X137830753Y-87217373D02*
X137856395Y-87263360D01*
X143529476Y-84768652D02*
X143519660Y-84738361D01*
X143483944Y-83562050D02*
X143414204Y-83783665D01*
X143654515Y-84454132D02*
X143654681Y-84444752D01*
X142046617Y-84147909D02*
X142061408Y-84146529D01*
X143526036Y-84481643D02*
X143625801Y-84504566D01*
X142235002Y-87508469D02*
X142182634Y-87520081D01*
X140606840Y-86087113D02*
X140319742Y-86087079D01*
X142042086Y-85781886D02*
X142033268Y-85786806D01*
X142209860Y-83625929D02*
X142227179Y-83740667D01*
X142289381Y-85606240D02*
X142359410Y-85596218D01*
X142565401Y-84032151D02*
X142397923Y-84056437D01*
X138322061Y-86461921D02*
X138301047Y-86380319D01*
X139762403Y-87747754D02*
X139732196Y-87837069D01*
X139153739Y-87547511D02*
X139062794Y-87539550D01*
X142299073Y-84667056D02*
X142279581Y-84690874D01*
X143628140Y-85763208D02*
X143629530Y-86228810D01*
X143581280Y-85588229D02*
X143581267Y-85588228D01*
X137753440Y-86775906D02*
X137712903Y-86801243D01*
X141844724Y-86703216D02*
X141885985Y-86617550D01*
X142835780Y-84509852D02*
X142515407Y-84550590D01*
X137782551Y-86740716D02*
X137753440Y-86775906D01*
X139366200Y-87390173D02*
X139368413Y-87421606D01*
X139903151Y-87262577D02*
X139892346Y-87202056D01*
X143656383Y-85724881D02*
X143656382Y-85366057D01*
X137283887Y-86087712D02*
X136810806Y-86086902D01*
X142965121Y-86792377D02*
X142963605Y-86784310D01*
X143330436Y-83812119D02*
X143315186Y-83812119D01*
X142804937Y-83995839D02*
X142767187Y-84002580D01*
X141412408Y-86385838D02*
X141350866Y-86487580D01*
X142087330Y-84509094D02*
X142672135Y-84423022D01*
X137811329Y-87450494D02*
X137765308Y-87475094D01*
X142486693Y-84665702D02*
X142479017Y-84682426D01*
X143001736Y-85639101D02*
X142937775Y-85648863D01*
X139353480Y-87360086D02*
X139366200Y-87390173D01*
X142681844Y-85108847D02*
X142683599Y-85487541D01*
X143654681Y-84444752D02*
X143659820Y-84444625D01*
X142894451Y-82907644D02*
X142982941Y-83447194D01*
X143422379Y-84762890D02*
X143421769Y-85151266D01*
X139062794Y-87539550D02*
X138985559Y-87509253D01*
X142359410Y-85596218D02*
X142427981Y-85583282D01*
X143037534Y-84251201D02*
X143036754Y-84115004D01*
X142432421Y-84710523D02*
X142425163Y-84696904D01*
X142280747Y-87486808D02*
X142235002Y-87508469D01*
X137661465Y-86816270D02*
X137661465Y-86816268D01*
X142107636Y-84099447D02*
X142101028Y-84099791D01*
X142225415Y-83550566D02*
X142214070Y-83548912D01*
X143456788Y-84716160D02*
X143427524Y-84750187D01*
X142357250Y-87949616D02*
X142447765Y-87924301D01*
X142969931Y-87211867D02*
X142698946Y-87211867D01*
X143653312Y-84512101D02*
X143661185Y-84513856D01*
X143414204Y-83783665D02*
X143344231Y-84006904D01*
X142475255Y-84731951D02*
X142473912Y-85132263D01*
X142101028Y-84099791D02*
X142101153Y-84094216D01*
X142093653Y-84411396D02*
X142088998Y-84276559D01*
X142565400Y-84032152D02*
X142565401Y-84032151D01*
X142672135Y-84423022D02*
X142995397Y-84375796D01*
X143341420Y-84594961D02*
X143578540Y-84643035D01*
X142048395Y-85676164D02*
X142042086Y-85781886D01*
X143705961Y-84499576D02*
X143700179Y-84481717D01*
X140602991Y-86644349D02*
X140694230Y-86972728D01*
X143655230Y-84465151D02*
X143654515Y-84454132D01*
X142228054Y-85120675D02*
X142226529Y-84624155D01*
X141508194Y-87919763D02*
X141461127Y-87777445D01*
X140114978Y-86697299D02*
X139909552Y-87308334D01*
X141973513Y-87486730D02*
X141934657Y-87461483D01*
X137743177Y-86538706D02*
X137767628Y-86557349D01*
X142938383Y-87378342D02*
X142964796Y-87248746D01*
X139367389Y-87946145D02*
X139513670Y-87904914D01*
X139860622Y-86619509D02*
X139859082Y-86607409D01*
X143091629Y-84020902D02*
X143380894Y-84097771D01*
X143578540Y-84643035D02*
X143577675Y-85113996D01*
X142608028Y-84646124D02*
X142569322Y-84630105D01*
X142405026Y-87315450D02*
X142383655Y-87368909D01*
X142698537Y-87778916D02*
X142776548Y-87699948D01*
X137710718Y-86526262D02*
X137743177Y-86538706D01*
X143041569Y-85634794D02*
X143039859Y-85004499D01*
X143531846Y-85172073D02*
X143529476Y-84768652D01*
X139732196Y-87837069D02*
X139703672Y-87921774D01*
X143661186Y-87956348D02*
X143659936Y-87425643D01*
X142836164Y-84540172D02*
X142845146Y-84531095D01*
X138635444Y-87357068D02*
X138390368Y-87357068D01*
X143357835Y-85682474D02*
X143067171Y-85638644D01*
X143183612Y-84657449D02*
X143166703Y-84642524D01*
X142195021Y-85422163D02*
X142199796Y-85624612D01*
X142032559Y-84421204D02*
X141999668Y-84427514D01*
X142101153Y-84094216D02*
X142209860Y-83625929D01*
X142473912Y-85132263D02*
X142473912Y-85561747D01*
X143529063Y-84090840D02*
X143516044Y-83703330D01*
X138617785Y-86165920D02*
X138529093Y-86238013D01*
X142625518Y-85553366D02*
X142635314Y-85547650D01*
X139368413Y-87421606D02*
X139361373Y-87451962D01*
X140255492Y-87921774D02*
X140287586Y-87800757D01*
X137375488Y-86666450D02*
X137375488Y-86512907D01*
X142019778Y-84129291D02*
X142025854Y-84143319D01*
X139741263Y-87765239D02*
X139762403Y-87747754D01*
X143499097Y-84076106D02*
X143498422Y-84087747D01*
X138321986Y-86625263D02*
X138326575Y-86544705D01*
X142845146Y-84531095D02*
X142844631Y-84518219D01*
X143571605Y-83903687D02*
X143626416Y-84115790D01*
X139209244Y-87269222D02*
X139299789Y-87309298D01*
X142968616Y-87220511D02*
X142969931Y-87211867D01*
X142828123Y-84626314D02*
X142806224Y-84609959D01*
X138976218Y-87963537D02*
X139083037Y-87969567D01*
X137267792Y-87921772D02*
X137761617Y-87919442D01*
X142633134Y-84677218D02*
X142608028Y-84646124D01*
X143427524Y-84750187D02*
X143422379Y-84762890D01*
X142425578Y-86765871D02*
X142429188Y-86787191D01*
X143652138Y-84292585D02*
X143654043Y-84174009D01*
X143001735Y-84316605D02*
X143001735Y-84327410D01*
X142704405Y-85534723D02*
X142774668Y-85524563D01*
X138251037Y-87747801D02*
X138318691Y-87663434D01*
X141942120Y-87954172D02*
X142073235Y-87970120D01*
X143100002Y-83044168D02*
X142813928Y-82244643D01*
X141350866Y-86487580D02*
X141301201Y-86602733D01*
X143100325Y-84543373D02*
X143341420Y-84594961D01*
X142591889Y-86155524D02*
X142490364Y-86106812D01*
X142006174Y-84455455D02*
X142053880Y-84449376D01*
X142040189Y-84467815D02*
X142025131Y-84476589D01*
X141885985Y-86617550D02*
X141940385Y-86552421D01*
X142049867Y-86494651D02*
X142103748Y-86488757D01*
X137507613Y-86819993D02*
X137375488Y-86819993D01*
X142639863Y-85117268D02*
X142639862Y-84691438D01*
X143334793Y-84377641D02*
X143625211Y-84438263D01*
X143693861Y-84515406D02*
X143705961Y-84499576D01*
X142920336Y-83980160D02*
X142920336Y-83980160D01*
X142252957Y-86514588D02*
X142325307Y-86562335D01*
X142121405Y-87522406D02*
X142065684Y-87517692D01*
X143625211Y-84438263D02*
X143625946Y-84447028D01*
X138455805Y-87680455D02*
X138504601Y-87739081D01*
X138311968Y-87096402D02*
X138260656Y-87036445D01*
X142060218Y-84417184D02*
X142032559Y-84421204D01*
X140893938Y-86087148D02*
X140606840Y-86087113D01*
X138326575Y-86544705D02*
X138322061Y-86461921D01*
X139475698Y-86825255D02*
X139267830Y-86764702D01*
X138198442Y-86989131D02*
X138126670Y-86955730D01*
X142984464Y-86784816D02*
X143001789Y-86793388D01*
X137704285Y-87489924D02*
X137704285Y-87489921D01*
X141816369Y-86810063D02*
X141844724Y-86703216D01*
X139101877Y-86718214D02*
X139036204Y-86693876D01*
X142449181Y-84358328D02*
X142449184Y-84358331D01*
X143492756Y-83865112D02*
X143499097Y-84076106D01*
X142082460Y-85776176D02*
X142083425Y-85357119D01*
X143701324Y-84170684D02*
X143704782Y-84158771D01*
X143700179Y-84481717D02*
X143675532Y-84471467D01*
X137962525Y-87891940D02*
X138047492Y-87867828D01*
X142937775Y-85648863D02*
X142294130Y-85744709D01*
X140948191Y-87921773D02*
X141228193Y-87921773D01*
X143626415Y-84115791D02*
X143623460Y-84120781D01*
X142880751Y-86476243D02*
X142826477Y-86377577D01*
X137860781Y-87370128D02*
X137842951Y-87415660D01*
X143343096Y-83924504D02*
X143342896Y-83839798D01*
X142221761Y-85628920D02*
X142226268Y-85618042D01*
X143277172Y-84381496D02*
X143043801Y-84329190D01*
X143001736Y-85006866D02*
X143001736Y-85639101D01*
X143201103Y-84696048D02*
X143195779Y-84680345D01*
X142952354Y-86709366D02*
X142922769Y-86586905D01*
X143581267Y-85588228D02*
X143601874Y-85587193D01*
X143123620Y-84643574D02*
X143105225Y-84657526D01*
X143263916Y-85525246D02*
X143312895Y-85538049D01*
X142479570Y-85567405D02*
X142479569Y-85567405D01*
X142024861Y-84505217D02*
X142047385Y-84514039D01*
X138457754Y-86914231D02*
X138526783Y-86997053D01*
X140600833Y-87680326D02*
X140881986Y-87680911D01*
X143033697Y-85675654D02*
X143332475Y-85718834D01*
X138388874Y-87330908D02*
X138376691Y-87247445D01*
X143654043Y-84174009D02*
X143670774Y-84177614D01*
X143530405Y-85533858D02*
X143531846Y-85172073D01*
X138183880Y-86880649D02*
X138234460Y-86824025D01*
X143038614Y-84322405D02*
X143041495Y-84316956D01*
X143344402Y-83807204D02*
X143330436Y-83812119D01*
X142049688Y-84107612D02*
X142025104Y-84115572D01*
X142449184Y-84358331D02*
X142093653Y-84411396D01*
X140427836Y-87294262D02*
X140515038Y-86965882D01*
X143581037Y-83831772D02*
X143510000Y-83566000D01*
X143654503Y-84412611D02*
X143652138Y-84292585D01*
X141242130Y-86860373D02*
X141235725Y-87057428D01*
X142751702Y-84598988D02*
X142725727Y-84606233D01*
X137802053Y-86657672D02*
X137799713Y-86696128D01*
X142862556Y-83903739D02*
X142939888Y-83663929D01*
X142090005Y-84459113D02*
X142088994Y-84452031D01*
X142635314Y-85547650D02*
X142639863Y-85117268D01*
X138390368Y-87357068D02*
X138388874Y-87330908D01*
X139892346Y-87202056D02*
X139874287Y-87145250D01*
X142705492Y-84621754D02*
X142691306Y-84645200D01*
X141607795Y-87822217D02*
X141709602Y-87880284D01*
X139083037Y-87969567D02*
X139200083Y-87968067D01*
X142017695Y-87505539D02*
X141973513Y-87486730D01*
X142199796Y-85624612D02*
X142199801Y-85624610D01*
X142902051Y-84289875D02*
X142449181Y-84358328D01*
X142809249Y-82234031D02*
X142796579Y-82233207D01*
X139613697Y-86882585D02*
X139475698Y-86825255D01*
X142089908Y-84141722D02*
X142995028Y-84009088D01*
X142053880Y-84449376D02*
X142060340Y-84449358D01*
X143038954Y-84373424D02*
X143526036Y-84481643D01*
X143029002Y-87928689D02*
X143029792Y-86802769D01*
X143627971Y-85114081D02*
X143627964Y-85114077D01*
X137712903Y-86801243D02*
X137661465Y-86816270D01*
X143601874Y-85587193D02*
X143607218Y-85108280D01*
X142191561Y-85799721D02*
X142995396Y-85682305D01*
X137733400Y-86089878D02*
X137283887Y-86087712D01*
X137856395Y-87263360D02*
X137863968Y-87315820D01*
X137953572Y-86117101D02*
X137866452Y-86101069D01*
X138127823Y-86930876D02*
X138183880Y-86880649D01*
X141804212Y-87160007D02*
X141800688Y-86938737D01*
X137375532Y-87325001D02*
X137375532Y-87154240D01*
X138855766Y-87940003D02*
X138976218Y-87963537D01*
X137761617Y-87919442D02*
X137867561Y-87909070D01*
X142432421Y-85144893D02*
X142432421Y-84710523D01*
X139979582Y-87921774D02*
X140255492Y-87921774D01*
X142843815Y-85510738D02*
X142848460Y-85082631D01*
X142096485Y-84459260D02*
X142090005Y-84459113D01*
X141228193Y-87921773D02*
X141508194Y-87919763D01*
X143516044Y-83703330D02*
X143571605Y-83903687D01*
X143657436Y-86333293D02*
X143656186Y-85771643D01*
X138746870Y-87903666D02*
X138855766Y-87940003D01*
X142227179Y-83740667D02*
X142259171Y-84076011D01*
X141992531Y-84446901D02*
X142006174Y-84455455D01*
X143656186Y-85771643D02*
X143673159Y-85772928D01*
X142033268Y-85786806D02*
X142028316Y-85805269D01*
X141709602Y-87880284D02*
X141820977Y-87924248D01*
X142848460Y-84659169D02*
X142843437Y-84648297D01*
X142639862Y-84691438D02*
X142633134Y-84677218D01*
X142843437Y-84648297D02*
X142828123Y-84626314D01*
X139231851Y-87538726D02*
X139153739Y-87547511D01*
X142040751Y-85818932D02*
X142047588Y-85820297D01*
X139322317Y-86601646D02*
X139326391Y-86619509D01*
X142813928Y-82244643D02*
X142809249Y-82234031D01*
X141065533Y-86598728D02*
X140893938Y-86087148D01*
X139757087Y-86324482D02*
X139712126Y-86264870D01*
X137375532Y-87154240D02*
X137485591Y-87154252D01*
X143625946Y-84447028D02*
X143625948Y-84447028D01*
X138468362Y-86311405D02*
X138423403Y-86394081D01*
X138423403Y-86394081D02*
X138394170Y-86486149D01*
X143359314Y-85547454D02*
X143365708Y-85543654D01*
X142091014Y-84443662D02*
X142145755Y-84435633D01*
X143656382Y-85366057D02*
X143654847Y-84759667D01*
X141264570Y-86728072D02*
X141242130Y-86860373D01*
X142065684Y-87517692D02*
X142017695Y-87505539D01*
X142569322Y-84630105D02*
X142521305Y-84634795D01*
X142226529Y-84624155D02*
X142235554Y-84622740D01*
X143342896Y-83839798D02*
X143363640Y-83839798D01*
X142337009Y-83883884D02*
X142294113Y-83754349D01*
X138382801Y-87551394D02*
X138414653Y-87617144D01*
X143421769Y-85151266D02*
X143423789Y-85546009D01*
X140319681Y-87679741D02*
X140600833Y-87680326D01*
X143001789Y-86793388D02*
X143001789Y-87374868D01*
X142059011Y-84463824D02*
X142040189Y-84467815D01*
X139659719Y-86211447D02*
X139600462Y-86164745D01*
X141425320Y-87649156D02*
X141509519Y-87742783D01*
X142279581Y-84690874D02*
X142268587Y-84724859D01*
X143315186Y-83925057D02*
X143311151Y-84037726D01*
X143364757Y-84707878D02*
X143338133Y-84675221D01*
X140319742Y-86087079D02*
X140114978Y-86697299D01*
X138926532Y-87459271D02*
X138890211Y-87392253D01*
X139093810Y-86461852D02*
X139172153Y-86467848D01*
X143105225Y-84657526D02*
X143090784Y-84678479D01*
X142104525Y-86038651D02*
X142075116Y-86038651D01*
X142266517Y-85163943D02*
X142269432Y-85596066D01*
X138098279Y-86166161D02*
X138030642Y-86138728D01*
X142922769Y-86586905D02*
X142880751Y-86476243D01*
X142776548Y-87699948D02*
X142842981Y-87606272D01*
X143085259Y-85090475D02*
X143088814Y-85496948D01*
X138384612Y-86709395D02*
X138410344Y-86818290D01*
X143423789Y-85546009D02*
X143431366Y-85553190D01*
X143001732Y-86220408D02*
X143000002Y-86760788D01*
X142025854Y-84143319D02*
X142046617Y-84147909D01*
X142355962Y-87415315D02*
X142322109Y-87454339D01*
X143654847Y-84759667D02*
X143653312Y-84512101D01*
X142501791Y-84647200D02*
X142486693Y-84665702D01*
X142047588Y-85820297D02*
X142046988Y-85930064D01*
X142479569Y-85567405D02*
X142487264Y-85573062D01*
X142779997Y-84600446D02*
X142751702Y-84598988D01*
X143691366Y-84178449D02*
X143701324Y-84170684D01*
X138688149Y-87105803D02*
X138824627Y-87161297D01*
X139331071Y-87332682D02*
X139353480Y-87360086D01*
X142028316Y-85805269D02*
X142040751Y-85818932D01*
X138986391Y-86668112D02*
X138951003Y-86640012D01*
X141900964Y-87429534D02*
X141872269Y-87390619D01*
X143669636Y-85727451D02*
X143656383Y-85724881D01*
X142186741Y-84087598D02*
X142186741Y-84087598D01*
X139874287Y-87145250D02*
X139848976Y-87092163D01*
X138526783Y-86997053D02*
X138598782Y-87055075D01*
X137704285Y-87489921D02*
X137527079Y-87494727D01*
X139031923Y-86465772D02*
X139093810Y-86461852D01*
X137375532Y-87495762D02*
X137375532Y-87325001D01*
X143315186Y-83925059D02*
X143315186Y-83925057D01*
X143104891Y-84518749D02*
X143094948Y-84535440D01*
X142061371Y-84456079D02*
X142059011Y-84463824D01*
X143384384Y-83837793D02*
X143100002Y-83044168D01*
X143503595Y-84718427D02*
X143479007Y-84712280D01*
X143001789Y-87374868D02*
X143001789Y-87956348D01*
X138529093Y-86238013D02*
X138468362Y-86311405D01*
X143363640Y-83839798D02*
X143384384Y-83837793D01*
X142046988Y-85930064D02*
X142046388Y-86039830D01*
X142426956Y-87217053D02*
X142419915Y-87255268D01*
X142294130Y-85744709D02*
X142294130Y-85744708D01*
X142427981Y-85583282D02*
X142432421Y-85144893D01*
X138047492Y-87867828D02*
X138123447Y-87836506D01*
X143136666Y-85510841D02*
X143136662Y-85510842D01*
X142930241Y-82938594D02*
X142843537Y-82413724D01*
X137786957Y-87185329D02*
X137830753Y-87217373D01*
X142088994Y-84452031D02*
X142091014Y-84443662D01*
X141990061Y-86517340D02*
X142049867Y-86494651D01*
X141872269Y-87390619D02*
X141829223Y-87290831D01*
X142791096Y-82301289D02*
X142807363Y-82379939D01*
X142294113Y-83754349D02*
X142791096Y-82301289D01*
X142025131Y-84476589D02*
X142020586Y-84492647D01*
X143358975Y-84048313D02*
X143484552Y-83646591D01*
X142050645Y-85042334D02*
X142048395Y-85676164D01*
X142807363Y-82379939D02*
X142894451Y-82907644D01*
X137767628Y-86557349D02*
X137793810Y-86598968D01*
X143169601Y-83999234D02*
X143092781Y-83730293D01*
X141509519Y-87742783D02*
X141607795Y-87822217D01*
X142995397Y-84375796D02*
X143001736Y-84374631D01*
X142552855Y-84392766D02*
X142552855Y-84392766D01*
X139600462Y-86164745D02*
X139534948Y-86125297D01*
X138301047Y-86380319D02*
X138267054Y-86310202D01*
X136810806Y-87004337D02*
X136810806Y-87921772D01*
X139816413Y-87042796D02*
X139776603Y-86997153D01*
X143625801Y-84504566D02*
X143627971Y-85114081D01*
X143370628Y-85539619D02*
X143369998Y-85129346D01*
X142552855Y-84392766D02*
X142096485Y-84459260D01*
X142243307Y-86047302D02*
X142104525Y-86038651D01*
X143510000Y-83566000D02*
X143483944Y-83562050D01*
X137765308Y-87475094D02*
X137704285Y-87489924D01*
X141787655Y-86093206D02*
X141673998Y-86146748D01*
D10*
X136001142Y-113750285D02*
X135572571Y-113750285D01*
X135786857Y-113750285D02*
X135786857Y-113000285D01*
X135715428Y-113107428D01*
X135644000Y-113178857D01*
X135572571Y-113214571D01*
X136358285Y-113750285D02*
X136501142Y-113750285D01*
X136572571Y-113714571D01*
X136608285Y-113678857D01*
X136679714Y-113571714D01*
X136715428Y-113428857D01*
X136715428Y-113143142D01*
X136679714Y-113071714D01*
X136644000Y-113036000D01*
X136572571Y-113000285D01*
X136429714Y-113000285D01*
X136358285Y-113036000D01*
X136322571Y-113071714D01*
X136286857Y-113143142D01*
X136286857Y-113321714D01*
X136322571Y-113393142D01*
X136358285Y-113428857D01*
X136429714Y-113464571D01*
X136572571Y-113464571D01*
X136644000Y-113428857D01*
X136679714Y-113393142D01*
X136715428Y-113321714D01*
X136322571Y-95220285D02*
X135965428Y-95220285D01*
X135929714Y-95577428D01*
X135965428Y-95541714D01*
X136036857Y-95506000D01*
X136215428Y-95506000D01*
X136286857Y-95541714D01*
X136322571Y-95577428D01*
X136358285Y-95648857D01*
X136358285Y-95827428D01*
X136322571Y-95898857D01*
X136286857Y-95934571D01*
X136215428Y-95970285D01*
X136036857Y-95970285D01*
X135965428Y-95934571D01*
X135929714Y-95898857D01*
X136358285Y-90890285D02*
X135929714Y-90890285D01*
X136144000Y-90890285D02*
X136144000Y-90140285D01*
X136072571Y-90247428D01*
X136001142Y-90318857D01*
X135929714Y-90354571D01*
X143398857Y-92930285D02*
X143398857Y-93430285D01*
X143220285Y-92644571D02*
X143041714Y-93180285D01*
X143506000Y-93180285D01*
X168084571Y-113071714D02*
X168120285Y-113036000D01*
X168191714Y-113000285D01*
X168370285Y-113000285D01*
X168441714Y-113036000D01*
X168477428Y-113071714D01*
X168513142Y-113143142D01*
X168513142Y-113214571D01*
X168477428Y-113321714D01*
X168048857Y-113750285D01*
X168513142Y-113750285D01*
X168977428Y-113000285D02*
X169048857Y-113000285D01*
X169120285Y-113036000D01*
X169156000Y-113071714D01*
X169191714Y-113143142D01*
X169227428Y-113286000D01*
X169227428Y-113464571D01*
X169191714Y-113607428D01*
X169156000Y-113678857D01*
X169120285Y-113714571D01*
X169048857Y-113750285D01*
X168977428Y-113750285D01*
X168906000Y-113714571D01*
X168870285Y-113678857D01*
X168834571Y-113607428D01*
X168798857Y-113464571D01*
X168798857Y-113286000D01*
X168834571Y-113143142D01*
X168870285Y-113071714D01*
X168906000Y-113036000D01*
X168977428Y-113000285D01*
X168441714Y-90211714D02*
X168477428Y-90176000D01*
X168548857Y-90140285D01*
X168727428Y-90140285D01*
X168798857Y-90176000D01*
X168834571Y-90211714D01*
X168870285Y-90283142D01*
X168870285Y-90354571D01*
X168834571Y-90461714D01*
X168406000Y-90890285D01*
X168870285Y-90890285D01*
X168584571Y-98081714D02*
X168513142Y-98046000D01*
X168477428Y-98010285D01*
X168441714Y-97938857D01*
X168441714Y-97903142D01*
X168477428Y-97831714D01*
X168513142Y-97796000D01*
X168584571Y-97760285D01*
X168727428Y-97760285D01*
X168798857Y-97796000D01*
X168834571Y-97831714D01*
X168870285Y-97903142D01*
X168870285Y-97938857D01*
X168834571Y-98010285D01*
X168798857Y-98046000D01*
X168727428Y-98081714D01*
X168584571Y-98081714D01*
X168513142Y-98117428D01*
X168477428Y-98153142D01*
X168441714Y-98224571D01*
X168441714Y-98367428D01*
X168477428Y-98438857D01*
X168513142Y-98474571D01*
X168584571Y-98510285D01*
X168727428Y-98510285D01*
X168798857Y-98474571D01*
X168834571Y-98438857D01*
X168870285Y-98367428D01*
X168870285Y-98224571D01*
X168834571Y-98153142D01*
X168798857Y-98117428D01*
X168727428Y-98081714D01*
X168513142Y-106130285D02*
X168084571Y-106130285D01*
X168298857Y-106130285D02*
X168298857Y-105380285D01*
X168227428Y-105487428D01*
X168156000Y-105558857D01*
X168084571Y-105594571D01*
X169156000Y-105630285D02*
X169156000Y-106130285D01*
X168977428Y-105344571D02*
X168798857Y-105880285D01*
X169263142Y-105880285D01*
X136001142Y-101050285D02*
X136144000Y-101050285D01*
X136215428Y-101014571D01*
X136251142Y-100978857D01*
X136322571Y-100871714D01*
X136358285Y-100728857D01*
X136358285Y-100443142D01*
X136322571Y-100371714D01*
X136286857Y-100336000D01*
X136215428Y-100300285D01*
X136072571Y-100300285D01*
X136001142Y-100336000D01*
X135965428Y-100371714D01*
X135929714Y-100443142D01*
X135929714Y-100621714D01*
X135965428Y-100693142D01*
X136001142Y-100728857D01*
X136072571Y-100764571D01*
X136215428Y-100764571D01*
X136286857Y-100728857D01*
X136322571Y-100693142D01*
X136358285Y-100621714D01*
X143113142Y-103590285D02*
X142684571Y-103590285D01*
X142898857Y-103590285D02*
X142898857Y-102840285D01*
X142827428Y-102947428D01*
X142756000Y-103018857D01*
X142684571Y-103054571D01*
X143398857Y-102911714D02*
X143434571Y-102876000D01*
X143506000Y-102840285D01*
X143684571Y-102840285D01*
X143756000Y-102876000D01*
X143791714Y-102911714D01*
X143827428Y-102983142D01*
X143827428Y-103054571D01*
X143791714Y-103161714D01*
X143363142Y-103590285D01*
X143827428Y-103590285D01*
X168513142Y-111210285D02*
X168084571Y-111210285D01*
X168298857Y-111210285D02*
X168298857Y-110460285D01*
X168227428Y-110567428D01*
X168156000Y-110638857D01*
X168084571Y-110674571D01*
X168941714Y-110781714D02*
X168870285Y-110746000D01*
X168834571Y-110710285D01*
X168798857Y-110638857D01*
X168798857Y-110603142D01*
X168834571Y-110531714D01*
X168870285Y-110496000D01*
X168941714Y-110460285D01*
X169084571Y-110460285D01*
X169156000Y-110496000D01*
X169191714Y-110531714D01*
X169227428Y-110603142D01*
X169227428Y-110638857D01*
X169191714Y-110710285D01*
X169156000Y-110746000D01*
X169084571Y-110781714D01*
X168941714Y-110781714D01*
X168870285Y-110817428D01*
X168834571Y-110853142D01*
X168798857Y-110924571D01*
X168798857Y-111067428D01*
X168834571Y-111138857D01*
X168870285Y-111174571D01*
X168941714Y-111210285D01*
X169084571Y-111210285D01*
X169156000Y-111174571D01*
X169191714Y-111138857D01*
X169227428Y-111067428D01*
X169227428Y-110924571D01*
X169191714Y-110853142D01*
X169156000Y-110817428D01*
X169084571Y-110781714D01*
X135894000Y-97760285D02*
X136394000Y-97760285D01*
X136072571Y-98510285D01*
X162417142Y-119592285D02*
X162560000Y-119592285D01*
X162631428Y-119556571D01*
X162667142Y-119520857D01*
X162738571Y-119413714D01*
X162774285Y-119270857D01*
X162774285Y-118985142D01*
X162738571Y-118913714D01*
X162702857Y-118878000D01*
X162631428Y-118842285D01*
X162488571Y-118842285D01*
X162417142Y-118878000D01*
X162381428Y-118913714D01*
X162345714Y-118985142D01*
X162345714Y-119163714D01*
X162381428Y-119235142D01*
X162417142Y-119270857D01*
X162488571Y-119306571D01*
X162631428Y-119306571D01*
X162702857Y-119270857D01*
X162738571Y-119235142D01*
X162774285Y-119163714D01*
X157230000Y-118842285D02*
X157730000Y-118842285D01*
X157408571Y-119592285D01*
X136001142Y-111210285D02*
X135572571Y-111210285D01*
X135786857Y-111210285D02*
X135786857Y-110460285D01*
X135715428Y-110567428D01*
X135644000Y-110638857D01*
X135572571Y-110674571D01*
X136251142Y-110460285D02*
X136751142Y-110460285D01*
X136429714Y-111210285D01*
X143113142Y-101050285D02*
X142684571Y-101050285D01*
X142898857Y-101050285D02*
X142898857Y-100300285D01*
X142827428Y-100407428D01*
X142756000Y-100478857D01*
X142684571Y-100514571D01*
X143577428Y-100300285D02*
X143648857Y-100300285D01*
X143720285Y-100336000D01*
X143756000Y-100371714D01*
X143791714Y-100443142D01*
X143827428Y-100586000D01*
X143827428Y-100764571D01*
X143791714Y-100907428D01*
X143756000Y-100978857D01*
X143720285Y-101014571D01*
X143648857Y-101050285D01*
X143577428Y-101050285D01*
X143506000Y-101014571D01*
X143470285Y-100978857D01*
X143434571Y-100907428D01*
X143398857Y-100764571D01*
X143398857Y-100586000D01*
X143434571Y-100443142D01*
X143470285Y-100371714D01*
X143506000Y-100336000D01*
X143577428Y-100300285D01*
X165084142Y-119592285D02*
X164655571Y-119592285D01*
X164869857Y-119592285D02*
X164869857Y-118842285D01*
X164798428Y-118949428D01*
X164727000Y-119020857D01*
X164655571Y-119056571D01*
X165548428Y-118842285D02*
X165619857Y-118842285D01*
X165691285Y-118878000D01*
X165727000Y-118913714D01*
X165762714Y-118985142D01*
X165798428Y-119128000D01*
X165798428Y-119306571D01*
X165762714Y-119449428D01*
X165727000Y-119520857D01*
X165691285Y-119556571D01*
X165619857Y-119592285D01*
X165548428Y-119592285D01*
X165477000Y-119556571D01*
X165441285Y-119520857D01*
X165405571Y-119449428D01*
X165369857Y-119306571D01*
X165369857Y-119128000D01*
X165405571Y-118985142D01*
X165441285Y-118913714D01*
X165477000Y-118878000D01*
X165548428Y-118842285D01*
X168513142Y-108670285D02*
X168084571Y-108670285D01*
X168298857Y-108670285D02*
X168298857Y-107920285D01*
X168227428Y-108027428D01*
X168156000Y-108098857D01*
X168084571Y-108134571D01*
X169156000Y-107920285D02*
X169013142Y-107920285D01*
X168941714Y-107956000D01*
X168906000Y-107991714D01*
X168834571Y-108098857D01*
X168798857Y-108241714D01*
X168798857Y-108527428D01*
X168834571Y-108598857D01*
X168870285Y-108634571D01*
X168941714Y-108670285D01*
X169084571Y-108670285D01*
X169156000Y-108634571D01*
X169191714Y-108598857D01*
X169227428Y-108527428D01*
X169227428Y-108348857D01*
X169191714Y-108277428D01*
X169156000Y-108241714D01*
X169084571Y-108206000D01*
X168941714Y-108206000D01*
X168870285Y-108241714D01*
X168834571Y-108277428D01*
X168798857Y-108348857D01*
X155082857Y-118842285D02*
X154940000Y-118842285D01*
X154868571Y-118878000D01*
X154832857Y-118913714D01*
X154761428Y-119020857D01*
X154725714Y-119163714D01*
X154725714Y-119449428D01*
X154761428Y-119520857D01*
X154797142Y-119556571D01*
X154868571Y-119592285D01*
X155011428Y-119592285D01*
X155082857Y-119556571D01*
X155118571Y-119520857D01*
X155154285Y-119449428D01*
X155154285Y-119270857D01*
X155118571Y-119199428D01*
X155082857Y-119163714D01*
X155011428Y-119128000D01*
X154868571Y-119128000D01*
X154797142Y-119163714D01*
X154761428Y-119199428D01*
X154725714Y-119270857D01*
X142684571Y-113071714D02*
X142720285Y-113036000D01*
X142791714Y-113000285D01*
X142970285Y-113000285D01*
X143041714Y-113036000D01*
X143077428Y-113071714D01*
X143113142Y-113143142D01*
X143113142Y-113214571D01*
X143077428Y-113321714D01*
X142648857Y-113750285D01*
X143113142Y-113750285D01*
X143577428Y-113000285D02*
X143648857Y-113000285D01*
X143720285Y-113036000D01*
X143756000Y-113071714D01*
X143791714Y-113143142D01*
X143827428Y-113286000D01*
X143827428Y-113464571D01*
X143791714Y-113607428D01*
X143756000Y-113678857D01*
X143720285Y-113714571D01*
X143648857Y-113750285D01*
X143577428Y-113750285D01*
X143506000Y-113714571D01*
X143470285Y-113678857D01*
X143434571Y-113607428D01*
X143398857Y-113464571D01*
X143398857Y-113286000D01*
X143434571Y-113143142D01*
X143470285Y-113071714D01*
X143506000Y-113036000D01*
X143577428Y-113000285D01*
D12*
X160552190Y-83120774D02*
X160624761Y-83144964D01*
X160648952Y-83169155D01*
X160673142Y-83217536D01*
X160673142Y-83290107D01*
X160648952Y-83338488D01*
X160624761Y-83362679D01*
X160576380Y-83386869D01*
X160382857Y-83386869D01*
X160382857Y-82878869D01*
X160552190Y-82878869D01*
X160600571Y-82903060D01*
X160624761Y-82927250D01*
X160648952Y-82975631D01*
X160648952Y-83024012D01*
X160624761Y-83072393D01*
X160600571Y-83096583D01*
X160552190Y-83120774D01*
X160382857Y-83120774D01*
X161084380Y-83362679D02*
X161036000Y-83386869D01*
X160939238Y-83386869D01*
X160890857Y-83362679D01*
X160866666Y-83314298D01*
X160866666Y-83120774D01*
X160890857Y-83072393D01*
X160939238Y-83048202D01*
X161036000Y-83048202D01*
X161084380Y-83072393D01*
X161108571Y-83120774D01*
X161108571Y-83169155D01*
X160866666Y-83217536D01*
X161326285Y-83386869D02*
X161326285Y-83048202D01*
X161326285Y-83144964D02*
X161350476Y-83096583D01*
X161374666Y-83072393D01*
X161423047Y-83048202D01*
X161471428Y-83048202D01*
X161640761Y-83386869D02*
X161640761Y-82878869D01*
X161689142Y-83193345D02*
X161834285Y-83386869D01*
X161834285Y-83048202D02*
X161640761Y-83241726D01*
X162245523Y-83362679D02*
X162197142Y-83386869D01*
X162100380Y-83386869D01*
X162052000Y-83362679D01*
X162027809Y-83314298D01*
X162027809Y-83120774D01*
X162052000Y-83072393D01*
X162100380Y-83048202D01*
X162197142Y-83048202D01*
X162245523Y-83072393D01*
X162269714Y-83120774D01*
X162269714Y-83169155D01*
X162027809Y-83217536D01*
X162560000Y-83386869D02*
X162511619Y-83362679D01*
X162487428Y-83314298D01*
X162487428Y-82878869D01*
X162947047Y-83362679D02*
X162898666Y-83386869D01*
X162801904Y-83386869D01*
X162753523Y-83362679D01*
X162729333Y-83314298D01*
X162729333Y-83120774D01*
X162753523Y-83072393D01*
X162801904Y-83048202D01*
X162898666Y-83048202D01*
X162947047Y-83072393D01*
X162971238Y-83120774D01*
X162971238Y-83169155D01*
X162729333Y-83217536D01*
X163140571Y-83048202D02*
X163261523Y-83386869D01*
X163382476Y-83048202D02*
X163261523Y-83386869D01*
X163213142Y-83507821D01*
X163188952Y-83532012D01*
X163140571Y-83556202D01*
X163938857Y-83241726D02*
X164180761Y-83241726D01*
X163890476Y-83386869D02*
X164059809Y-82878869D01*
X164229142Y-83386869D01*
X164616190Y-83048202D02*
X164616190Y-83386869D01*
X164398476Y-83048202D02*
X164398476Y-83314298D01*
X164422666Y-83362679D01*
X164471047Y-83386869D01*
X164543619Y-83386869D01*
X164592000Y-83362679D01*
X164616190Y-83338488D01*
X164785523Y-83048202D02*
X164979047Y-83048202D01*
X164858095Y-82878869D02*
X164858095Y-83314298D01*
X164882285Y-83362679D01*
X164930666Y-83386869D01*
X164979047Y-83386869D01*
X165220952Y-83386869D02*
X165172571Y-83362679D01*
X165148380Y-83338488D01*
X165124190Y-83290107D01*
X165124190Y-83144964D01*
X165148380Y-83096583D01*
X165172571Y-83072393D01*
X165220952Y-83048202D01*
X165293523Y-83048202D01*
X165341904Y-83072393D01*
X165366095Y-83096583D01*
X165390285Y-83144964D01*
X165390285Y-83290107D01*
X165366095Y-83338488D01*
X165341904Y-83362679D01*
X165293523Y-83386869D01*
X165220952Y-83386869D01*
X165608000Y-83048202D02*
X165608000Y-83386869D01*
X165608000Y-83096583D02*
X165632190Y-83072393D01*
X165680571Y-83048202D01*
X165753142Y-83048202D01*
X165801523Y-83072393D01*
X165825714Y-83120774D01*
X165825714Y-83386869D01*
X166140190Y-83386869D02*
X166091809Y-83362679D01*
X166067619Y-83338488D01*
X166043428Y-83290107D01*
X166043428Y-83144964D01*
X166067619Y-83096583D01*
X166091809Y-83072393D01*
X166140190Y-83048202D01*
X166212761Y-83048202D01*
X166261142Y-83072393D01*
X166285333Y-83096583D01*
X166309523Y-83144964D01*
X166309523Y-83290107D01*
X166285333Y-83338488D01*
X166261142Y-83362679D01*
X166212761Y-83386869D01*
X166140190Y-83386869D01*
X166527238Y-83386869D02*
X166527238Y-83048202D01*
X166527238Y-83096583D02*
X166551428Y-83072393D01*
X166599809Y-83048202D01*
X166672380Y-83048202D01*
X166720761Y-83072393D01*
X166744952Y-83120774D01*
X166744952Y-83386869D01*
X166744952Y-83120774D02*
X166769142Y-83072393D01*
X166817523Y-83048202D01*
X166890095Y-83048202D01*
X166938476Y-83072393D01*
X166962666Y-83120774D01*
X166962666Y-83386869D01*
X167277142Y-83386869D02*
X167228761Y-83362679D01*
X167204571Y-83338488D01*
X167180380Y-83290107D01*
X167180380Y-83144964D01*
X167204571Y-83096583D01*
X167228761Y-83072393D01*
X167277142Y-83048202D01*
X167349714Y-83048202D01*
X167398095Y-83072393D01*
X167422285Y-83096583D01*
X167446476Y-83144964D01*
X167446476Y-83290107D01*
X167422285Y-83338488D01*
X167398095Y-83362679D01*
X167349714Y-83386869D01*
X167277142Y-83386869D01*
X167881904Y-83048202D02*
X167881904Y-83386869D01*
X167664190Y-83048202D02*
X167664190Y-83314298D01*
X167688380Y-83362679D01*
X167736761Y-83386869D01*
X167809333Y-83386869D01*
X167857714Y-83362679D01*
X167881904Y-83338488D01*
X168099619Y-83362679D02*
X168148000Y-83386869D01*
X168244761Y-83386869D01*
X168293142Y-83362679D01*
X168317333Y-83314298D01*
X168317333Y-83290107D01*
X168293142Y-83241726D01*
X168244761Y-83217536D01*
X168172190Y-83217536D01*
X168123809Y-83193345D01*
X168099619Y-83144964D01*
X168099619Y-83120774D01*
X168123809Y-83072393D01*
X168172190Y-83048202D01*
X168244761Y-83048202D01*
X168293142Y-83072393D01*
X161072285Y-84204749D02*
X161072285Y-83696749D01*
X161241619Y-84059606D01*
X161410952Y-83696749D01*
X161410952Y-84204749D01*
X161652857Y-84204749D02*
X161652857Y-83866082D01*
X161652857Y-83696749D02*
X161628666Y-83720940D01*
X161652857Y-83745130D01*
X161677047Y-83720940D01*
X161652857Y-83696749D01*
X161652857Y-83745130D01*
X162112476Y-84180559D02*
X162064095Y-84204749D01*
X161967333Y-84204749D01*
X161918952Y-84180559D01*
X161894761Y-84156368D01*
X161870571Y-84107987D01*
X161870571Y-83962844D01*
X161894761Y-83914463D01*
X161918952Y-83890273D01*
X161967333Y-83866082D01*
X162064095Y-83866082D01*
X162112476Y-83890273D01*
X162330190Y-84204749D02*
X162330190Y-83866082D01*
X162330190Y-83962844D02*
X162354380Y-83914463D01*
X162378571Y-83890273D01*
X162426952Y-83866082D01*
X162475333Y-83866082D01*
X162717238Y-84204749D02*
X162668857Y-84180559D01*
X162644666Y-84156368D01*
X162620476Y-84107987D01*
X162620476Y-83962844D01*
X162644666Y-83914463D01*
X162668857Y-83890273D01*
X162717238Y-83866082D01*
X162789809Y-83866082D01*
X162838190Y-83890273D01*
X162862380Y-83914463D01*
X162886571Y-83962844D01*
X162886571Y-84107987D01*
X162862380Y-84156368D01*
X162838190Y-84180559D01*
X162789809Y-84204749D01*
X162717238Y-84204749D01*
X163080095Y-84180559D02*
X163128476Y-84204749D01*
X163225238Y-84204749D01*
X163273619Y-84180559D01*
X163297809Y-84132178D01*
X163297809Y-84107987D01*
X163273619Y-84059606D01*
X163225238Y-84035416D01*
X163152666Y-84035416D01*
X163104285Y-84011225D01*
X163080095Y-83962844D01*
X163080095Y-83938654D01*
X163104285Y-83890273D01*
X163152666Y-83866082D01*
X163225238Y-83866082D01*
X163273619Y-83890273D01*
X163467142Y-83866082D02*
X163588095Y-84204749D01*
X163709047Y-83866082D02*
X163588095Y-84204749D01*
X163539714Y-84325701D01*
X163515523Y-84349892D01*
X163467142Y-84374082D01*
X163878380Y-84180559D02*
X163926761Y-84204749D01*
X164023523Y-84204749D01*
X164071904Y-84180559D01*
X164096095Y-84132178D01*
X164096095Y-84107987D01*
X164071904Y-84059606D01*
X164023523Y-84035416D01*
X163950952Y-84035416D01*
X163902571Y-84011225D01*
X163878380Y-83962844D01*
X163878380Y-83938654D01*
X163902571Y-83890273D01*
X163950952Y-83866082D01*
X164023523Y-83866082D01*
X164071904Y-83890273D01*
X164241238Y-83866082D02*
X164434761Y-83866082D01*
X164313809Y-83696749D02*
X164313809Y-84132178D01*
X164338000Y-84180559D01*
X164386380Y-84204749D01*
X164434761Y-84204749D01*
X164797619Y-84180559D02*
X164749238Y-84204749D01*
X164652476Y-84204749D01*
X164604095Y-84180559D01*
X164579904Y-84132178D01*
X164579904Y-83938654D01*
X164604095Y-83890273D01*
X164652476Y-83866082D01*
X164749238Y-83866082D01*
X164797619Y-83890273D01*
X164821809Y-83938654D01*
X164821809Y-83987035D01*
X164579904Y-84035416D01*
X165039523Y-84204749D02*
X165039523Y-83866082D01*
X165039523Y-83914463D02*
X165063714Y-83890273D01*
X165112095Y-83866082D01*
X165184666Y-83866082D01*
X165233047Y-83890273D01*
X165257238Y-83938654D01*
X165257238Y-84204749D01*
X165257238Y-83938654D02*
X165281428Y-83890273D01*
X165329809Y-83866082D01*
X165402380Y-83866082D01*
X165450761Y-83890273D01*
X165474952Y-83938654D01*
X165474952Y-84204749D01*
X165692666Y-84180559D02*
X165741047Y-84204749D01*
X165837809Y-84204749D01*
X165886190Y-84180559D01*
X165910380Y-84132178D01*
X165910380Y-84107987D01*
X165886190Y-84059606D01*
X165837809Y-84035416D01*
X165765238Y-84035416D01*
X165716857Y-84011225D01*
X165692666Y-83962844D01*
X165692666Y-83938654D01*
X165716857Y-83890273D01*
X165765238Y-83866082D01*
X165837809Y-83866082D01*
X165886190Y-83890273D01*
X166757047Y-84204749D02*
X166515142Y-84204749D01*
X166515142Y-83696749D01*
X167144095Y-84204749D02*
X167144095Y-83938654D01*
X167119904Y-83890273D01*
X167071523Y-83866082D01*
X166974761Y-83866082D01*
X166926380Y-83890273D01*
X167144095Y-84180559D02*
X167095714Y-84204749D01*
X166974761Y-84204749D01*
X166926380Y-84180559D01*
X166902190Y-84132178D01*
X166902190Y-84083797D01*
X166926380Y-84035416D01*
X166974761Y-84011225D01*
X167095714Y-84011225D01*
X167144095Y-83987035D01*
X167386000Y-84204749D02*
X167386000Y-83696749D01*
X167386000Y-83890273D02*
X167434380Y-83866082D01*
X167531142Y-83866082D01*
X167579523Y-83890273D01*
X167603714Y-83914463D01*
X167627904Y-83962844D01*
X167627904Y-84107987D01*
X167603714Y-84156368D01*
X167579523Y-84180559D01*
X167531142Y-84204749D01*
X167434380Y-84204749D01*
X167386000Y-84180559D01*
D10*
X143113142Y-108670285D02*
X142684571Y-108670285D01*
X142898857Y-108670285D02*
X142898857Y-107920285D01*
X142827428Y-108027428D01*
X142756000Y-108098857D01*
X142684571Y-108134571D01*
X143756000Y-107920285D02*
X143613142Y-107920285D01*
X143541714Y-107956000D01*
X143506000Y-107991714D01*
X143434571Y-108098857D01*
X143398857Y-108241714D01*
X143398857Y-108527428D01*
X143434571Y-108598857D01*
X143470285Y-108634571D01*
X143541714Y-108670285D01*
X143684571Y-108670285D01*
X143756000Y-108634571D01*
X143791714Y-108598857D01*
X143827428Y-108527428D01*
X143827428Y-108348857D01*
X143791714Y-108277428D01*
X143756000Y-108241714D01*
X143684571Y-108206000D01*
X143541714Y-108206000D01*
X143470285Y-108241714D01*
X143434571Y-108277428D01*
X143398857Y-108348857D01*
X144565714Y-118913714D02*
X144601428Y-118878000D01*
X144672857Y-118842285D01*
X144851428Y-118842285D01*
X144922857Y-118878000D01*
X144958571Y-118913714D01*
X144994285Y-118985142D01*
X144994285Y-119056571D01*
X144958571Y-119163714D01*
X144530000Y-119592285D01*
X144994285Y-119592285D01*
X152578571Y-118842285D02*
X152221428Y-118842285D01*
X152185714Y-119199428D01*
X152221428Y-119163714D01*
X152292857Y-119128000D01*
X152471428Y-119128000D01*
X152542857Y-119163714D01*
X152578571Y-119199428D01*
X152614285Y-119270857D01*
X152614285Y-119449428D01*
X152578571Y-119520857D01*
X152542857Y-119556571D01*
X152471428Y-119592285D01*
X152292857Y-119592285D01*
X152221428Y-119556571D01*
X152185714Y-119520857D01*
X135894000Y-92680285D02*
X136358285Y-92680285D01*
X136108285Y-92966000D01*
X136215428Y-92966000D01*
X136286857Y-93001714D01*
X136322571Y-93037428D01*
X136358285Y-93108857D01*
X136358285Y-93287428D01*
X136322571Y-93358857D01*
X136286857Y-93394571D01*
X136215428Y-93430285D01*
X136001142Y-93430285D01*
X135929714Y-93394571D01*
X135894000Y-93358857D01*
X150002857Y-119092285D02*
X150002857Y-119592285D01*
X149824285Y-118806571D02*
X149645714Y-119342285D01*
X150110000Y-119342285D01*
X143398857Y-95220285D02*
X143256000Y-95220285D01*
X143184571Y-95256000D01*
X143148857Y-95291714D01*
X143077428Y-95398857D01*
X143041714Y-95541714D01*
X143041714Y-95827428D01*
X143077428Y-95898857D01*
X143113142Y-95934571D01*
X143184571Y-95970285D01*
X143327428Y-95970285D01*
X143398857Y-95934571D01*
X143434571Y-95898857D01*
X143470285Y-95827428D01*
X143470285Y-95648857D01*
X143434571Y-95577428D01*
X143398857Y-95541714D01*
X143327428Y-95506000D01*
X143184571Y-95506000D01*
X143113142Y-95541714D01*
X143077428Y-95577428D01*
X143041714Y-95648857D01*
X143041714Y-90211714D02*
X143077428Y-90176000D01*
X143148857Y-90140285D01*
X143327428Y-90140285D01*
X143398857Y-90176000D01*
X143434571Y-90211714D01*
X143470285Y-90283142D01*
X143470285Y-90354571D01*
X143434571Y-90461714D01*
X143006000Y-90890285D01*
X143470285Y-90890285D01*
X136001142Y-103625285D02*
X135572571Y-103625285D01*
X135786857Y-103625285D02*
X135786857Y-102875285D01*
X135715428Y-102982428D01*
X135644000Y-103053857D01*
X135572571Y-103089571D01*
X136715428Y-103625285D02*
X136286857Y-103625285D01*
X136501142Y-103625285D02*
X136501142Y-102875285D01*
X136429714Y-102982428D01*
X136358285Y-103053857D01*
X136286857Y-103089571D01*
D12*
X160588476Y-85700809D02*
X160588476Y-85192809D01*
X160757809Y-85555666D01*
X160927142Y-85192809D01*
X160927142Y-85700809D01*
X161169047Y-85434714D02*
X161338380Y-85434714D01*
X161410952Y-85700809D02*
X161169047Y-85700809D01*
X161169047Y-85192809D01*
X161410952Y-85192809D01*
X161628666Y-85700809D02*
X161628666Y-85192809D01*
X161798000Y-85555666D01*
X161967333Y-85192809D01*
X161967333Y-85700809D01*
X162185047Y-85676619D02*
X162257619Y-85700809D01*
X162378571Y-85700809D01*
X162426952Y-85676619D01*
X162451142Y-85652428D01*
X162475333Y-85604047D01*
X162475333Y-85555666D01*
X162451142Y-85507285D01*
X162426952Y-85483095D01*
X162378571Y-85458904D01*
X162281809Y-85434714D01*
X162233428Y-85410523D01*
X162209238Y-85386333D01*
X162185047Y-85337952D01*
X162185047Y-85289571D01*
X162209238Y-85241190D01*
X162233428Y-85217000D01*
X162281809Y-85192809D01*
X162402761Y-85192809D01*
X162475333Y-85217000D01*
X162693047Y-85507285D02*
X163080095Y-85507285D01*
X163491333Y-85434714D02*
X163563904Y-85458904D01*
X163588095Y-85483095D01*
X163612285Y-85531476D01*
X163612285Y-85604047D01*
X163588095Y-85652428D01*
X163563904Y-85676619D01*
X163515523Y-85700809D01*
X163322000Y-85700809D01*
X163322000Y-85192809D01*
X163491333Y-85192809D01*
X163539714Y-85217000D01*
X163563904Y-85241190D01*
X163588095Y-85289571D01*
X163588095Y-85337952D01*
X163563904Y-85386333D01*
X163539714Y-85410523D01*
X163491333Y-85434714D01*
X163322000Y-85434714D01*
X163830000Y-85700809D02*
X163830000Y-85362142D01*
X163830000Y-85458904D02*
X163854190Y-85410523D01*
X163878380Y-85386333D01*
X163926761Y-85362142D01*
X163975142Y-85362142D01*
X164338000Y-85676619D02*
X164289619Y-85700809D01*
X164192857Y-85700809D01*
X164144476Y-85676619D01*
X164120285Y-85628238D01*
X164120285Y-85434714D01*
X164144476Y-85386333D01*
X164192857Y-85362142D01*
X164289619Y-85362142D01*
X164338000Y-85386333D01*
X164362190Y-85434714D01*
X164362190Y-85483095D01*
X164120285Y-85531476D01*
X164797619Y-85700809D02*
X164797619Y-85434714D01*
X164773428Y-85386333D01*
X164725047Y-85362142D01*
X164628285Y-85362142D01*
X164579904Y-85386333D01*
X164797619Y-85676619D02*
X164749238Y-85700809D01*
X164628285Y-85700809D01*
X164579904Y-85676619D01*
X164555714Y-85628238D01*
X164555714Y-85579857D01*
X164579904Y-85531476D01*
X164628285Y-85507285D01*
X164749238Y-85507285D01*
X164797619Y-85483095D01*
X165039523Y-85700809D02*
X165039523Y-85192809D01*
X165087904Y-85507285D02*
X165233047Y-85700809D01*
X165233047Y-85362142D02*
X165039523Y-85555666D01*
X165523333Y-85700809D02*
X165474952Y-85676619D01*
X165450761Y-85652428D01*
X165426571Y-85604047D01*
X165426571Y-85458904D01*
X165450761Y-85410523D01*
X165474952Y-85386333D01*
X165523333Y-85362142D01*
X165595904Y-85362142D01*
X165644285Y-85386333D01*
X165668476Y-85410523D01*
X165692666Y-85458904D01*
X165692666Y-85604047D01*
X165668476Y-85652428D01*
X165644285Y-85676619D01*
X165595904Y-85700809D01*
X165523333Y-85700809D01*
X166128095Y-85362142D02*
X166128095Y-85700809D01*
X165910380Y-85362142D02*
X165910380Y-85628238D01*
X165934571Y-85676619D01*
X165982952Y-85700809D01*
X166055523Y-85700809D01*
X166103904Y-85676619D01*
X166128095Y-85652428D01*
X166297428Y-85362142D02*
X166490952Y-85362142D01*
X166370000Y-85192809D02*
X166370000Y-85628238D01*
X166394190Y-85676619D01*
X166442571Y-85700809D01*
X166490952Y-85700809D01*
X166660285Y-85507285D02*
X167047333Y-85507285D01*
X167240857Y-85192809D02*
X167361809Y-85700809D01*
X167458571Y-85337952D01*
X167555333Y-85700809D01*
X167676285Y-85192809D01*
X168111714Y-85192809D02*
X167869809Y-85192809D01*
X167845619Y-85434714D01*
X167869809Y-85410523D01*
X167918190Y-85386333D01*
X168039142Y-85386333D01*
X168087523Y-85410523D01*
X168111714Y-85434714D01*
X168135904Y-85483095D01*
X168135904Y-85604047D01*
X168111714Y-85652428D01*
X168087523Y-85676619D01*
X168039142Y-85700809D01*
X167918190Y-85700809D01*
X167869809Y-85676619D01*
X167845619Y-85652428D01*
X168450380Y-85192809D02*
X168498761Y-85192809D01*
X168547142Y-85217000D01*
X168571333Y-85241190D01*
X168595523Y-85289571D01*
X168619714Y-85386333D01*
X168619714Y-85507285D01*
X168595523Y-85604047D01*
X168571333Y-85652428D01*
X168547142Y-85676619D01*
X168498761Y-85700809D01*
X168450380Y-85700809D01*
X168402000Y-85676619D01*
X168377809Y-85652428D01*
X168353619Y-85604047D01*
X168329428Y-85507285D01*
X168329428Y-85386333D01*
X168353619Y-85289571D01*
X168377809Y-85241190D01*
X168402000Y-85217000D01*
X168450380Y-85192809D01*
D10*
X168798857Y-95220285D02*
X168656000Y-95220285D01*
X168584571Y-95256000D01*
X168548857Y-95291714D01*
X168477428Y-95398857D01*
X168441714Y-95541714D01*
X168441714Y-95827428D01*
X168477428Y-95898857D01*
X168513142Y-95934571D01*
X168584571Y-95970285D01*
X168727428Y-95970285D01*
X168798857Y-95934571D01*
X168834571Y-95898857D01*
X168870285Y-95827428D01*
X168870285Y-95648857D01*
X168834571Y-95577428D01*
X168798857Y-95541714D01*
X168727428Y-95506000D01*
X168584571Y-95506000D01*
X168513142Y-95541714D01*
X168477428Y-95577428D01*
X168441714Y-95648857D01*
X168513142Y-101050285D02*
X168084571Y-101050285D01*
X168298857Y-101050285D02*
X168298857Y-100300285D01*
X168227428Y-100407428D01*
X168156000Y-100478857D01*
X168084571Y-100514571D01*
X168977428Y-100300285D02*
X169048857Y-100300285D01*
X169120285Y-100336000D01*
X169156000Y-100371714D01*
X169191714Y-100443142D01*
X169227428Y-100586000D01*
X169227428Y-100764571D01*
X169191714Y-100907428D01*
X169156000Y-100978857D01*
X169120285Y-101014571D01*
X169048857Y-101050285D01*
X168977428Y-101050285D01*
X168906000Y-101014571D01*
X168870285Y-100978857D01*
X168834571Y-100907428D01*
X168798857Y-100764571D01*
X168798857Y-100586000D01*
X168834571Y-100443142D01*
X168870285Y-100371714D01*
X168906000Y-100336000D01*
X168977428Y-100300285D01*
X143113142Y-106130285D02*
X142684571Y-106130285D01*
X142898857Y-106130285D02*
X142898857Y-105380285D01*
X142827428Y-105487428D01*
X142756000Y-105558857D01*
X142684571Y-105594571D01*
X143756000Y-105630285D02*
X143756000Y-106130285D01*
X143577428Y-105344571D02*
X143398857Y-105880285D01*
X143863142Y-105880285D01*
X159948571Y-119163714D02*
X159877142Y-119128000D01*
X159841428Y-119092285D01*
X159805714Y-119020857D01*
X159805714Y-118985142D01*
X159841428Y-118913714D01*
X159877142Y-118878000D01*
X159948571Y-118842285D01*
X160091428Y-118842285D01*
X160162857Y-118878000D01*
X160198571Y-118913714D01*
X160234285Y-118985142D01*
X160234285Y-119020857D01*
X160198571Y-119092285D01*
X160162857Y-119128000D01*
X160091428Y-119163714D01*
X159948571Y-119163714D01*
X159877142Y-119199428D01*
X159841428Y-119235142D01*
X159805714Y-119306571D01*
X159805714Y-119449428D01*
X159841428Y-119520857D01*
X159877142Y-119556571D01*
X159948571Y-119592285D01*
X160091428Y-119592285D01*
X160162857Y-119556571D01*
X160198571Y-119520857D01*
X160234285Y-119449428D01*
X160234285Y-119306571D01*
X160198571Y-119235142D01*
X160162857Y-119199428D01*
X160091428Y-119163714D01*
X143184571Y-98081714D02*
X143113142Y-98046000D01*
X143077428Y-98010285D01*
X143041714Y-97938857D01*
X143041714Y-97903142D01*
X143077428Y-97831714D01*
X143113142Y-97796000D01*
X143184571Y-97760285D01*
X143327428Y-97760285D01*
X143398857Y-97796000D01*
X143434571Y-97831714D01*
X143470285Y-97903142D01*
X143470285Y-97938857D01*
X143434571Y-98010285D01*
X143398857Y-98046000D01*
X143327428Y-98081714D01*
X143184571Y-98081714D01*
X143113142Y-98117428D01*
X143077428Y-98153142D01*
X143041714Y-98224571D01*
X143041714Y-98367428D01*
X143077428Y-98438857D01*
X143113142Y-98474571D01*
X143184571Y-98510285D01*
X143327428Y-98510285D01*
X143398857Y-98474571D01*
X143434571Y-98438857D01*
X143470285Y-98367428D01*
X143470285Y-98224571D01*
X143434571Y-98153142D01*
X143398857Y-98117428D01*
X143327428Y-98081714D01*
X142454285Y-119592285D02*
X142025714Y-119592285D01*
X142240000Y-119592285D02*
X142240000Y-118842285D01*
X142168571Y-118949428D01*
X142097142Y-119020857D01*
X142025714Y-119056571D01*
X147070000Y-118842285D02*
X147534285Y-118842285D01*
X147284285Y-119128000D01*
X147391428Y-119128000D01*
X147462857Y-119163714D01*
X147498571Y-119199428D01*
X147534285Y-119270857D01*
X147534285Y-119449428D01*
X147498571Y-119520857D01*
X147462857Y-119556571D01*
X147391428Y-119592285D01*
X147177142Y-119592285D01*
X147105714Y-119556571D01*
X147070000Y-119520857D01*
X136001142Y-108670285D02*
X135572571Y-108670285D01*
X135786857Y-108670285D02*
X135786857Y-107920285D01*
X135715428Y-108027428D01*
X135644000Y-108098857D01*
X135572571Y-108134571D01*
X136679714Y-107920285D02*
X136322571Y-107920285D01*
X136286857Y-108277428D01*
X136322571Y-108241714D01*
X136394000Y-108206000D01*
X136572571Y-108206000D01*
X136644000Y-108241714D01*
X136679714Y-108277428D01*
X136715428Y-108348857D01*
X136715428Y-108527428D01*
X136679714Y-108598857D01*
X136644000Y-108634571D01*
X136572571Y-108670285D01*
X136394000Y-108670285D01*
X136322571Y-108634571D01*
X136286857Y-108598857D01*
X136001142Y-106130285D02*
X135572571Y-106130285D01*
X135786857Y-106130285D02*
X135786857Y-105380285D01*
X135715428Y-105487428D01*
X135644000Y-105558857D01*
X135572571Y-105594571D01*
X136251142Y-105380285D02*
X136715428Y-105380285D01*
X136465428Y-105666000D01*
X136572571Y-105666000D01*
X136644000Y-105701714D01*
X136679714Y-105737428D01*
X136715428Y-105808857D01*
X136715428Y-105987428D01*
X136679714Y-106058857D01*
X136644000Y-106094571D01*
X136572571Y-106130285D01*
X136358285Y-106130285D01*
X136286857Y-106094571D01*
X136251142Y-106058857D01*
X168513142Y-103590285D02*
X168084571Y-103590285D01*
X168298857Y-103590285D02*
X168298857Y-102840285D01*
X168227428Y-102947428D01*
X168156000Y-103018857D01*
X168084571Y-103054571D01*
X168798857Y-102911714D02*
X168834571Y-102876000D01*
X168906000Y-102840285D01*
X169084571Y-102840285D01*
X169156000Y-102876000D01*
X169191714Y-102911714D01*
X169227428Y-102983142D01*
X169227428Y-103054571D01*
X169191714Y-103161714D01*
X168763142Y-103590285D01*
X169227428Y-103590285D01*
X168798857Y-92930285D02*
X168798857Y-93430285D01*
X168620285Y-92644571D02*
X168441714Y-93180285D01*
X168906000Y-93180285D01*
X143113142Y-111210285D02*
X142684571Y-111210285D01*
X142898857Y-111210285D02*
X142898857Y-110460285D01*
X142827428Y-110567428D01*
X142756000Y-110638857D01*
X142684571Y-110674571D01*
X143541714Y-110781714D02*
X143470285Y-110746000D01*
X143434571Y-110710285D01*
X143398857Y-110638857D01*
X143398857Y-110603142D01*
X143434571Y-110531714D01*
X143470285Y-110496000D01*
X143541714Y-110460285D01*
X143684571Y-110460285D01*
X143756000Y-110496000D01*
X143791714Y-110531714D01*
X143827428Y-110603142D01*
X143827428Y-110638857D01*
X143791714Y-110710285D01*
X143756000Y-110746000D01*
X143684571Y-110781714D01*
X143541714Y-110781714D01*
X143470285Y-110817428D01*
X143434571Y-110853142D01*
X143398857Y-110924571D01*
X143398857Y-111067428D01*
X143434571Y-111138857D01*
X143470285Y-111174571D01*
X143541714Y-111210285D01*
X143684571Y-111210285D01*
X143756000Y-111174571D01*
X143791714Y-111138857D01*
X143827428Y-111067428D01*
X143827428Y-110924571D01*
X143791714Y-110853142D01*
X143756000Y-110817428D01*
X143684571Y-110781714D01*
%TO.C,J8*%
X164512666Y-87336380D02*
X164512666Y-88050666D01*
X164465047Y-88193523D01*
X164369809Y-88288761D01*
X164226952Y-88336380D01*
X164131714Y-88336380D01*
X165131714Y-87764952D02*
X165036476Y-87717333D01*
X164988857Y-87669714D01*
X164941238Y-87574476D01*
X164941238Y-87526857D01*
X164988857Y-87431619D01*
X165036476Y-87384000D01*
X165131714Y-87336380D01*
X165322190Y-87336380D01*
X165417428Y-87384000D01*
X165465047Y-87431619D01*
X165512666Y-87526857D01*
X165512666Y-87574476D01*
X165465047Y-87669714D01*
X165417428Y-87717333D01*
X165322190Y-87764952D01*
X165131714Y-87764952D01*
X165036476Y-87812571D01*
X164988857Y-87860190D01*
X164941238Y-87955428D01*
X164941238Y-88145904D01*
X164988857Y-88241142D01*
X165036476Y-88288761D01*
X165131714Y-88336380D01*
X165322190Y-88336380D01*
X165417428Y-88288761D01*
X165465047Y-88241142D01*
X165512666Y-88145904D01*
X165512666Y-87955428D01*
X165465047Y-87860190D01*
X165417428Y-87812571D01*
X165322190Y-87764952D01*
%TO.C,J4*%
X137461666Y-117181380D02*
X137461666Y-117895666D01*
X137414047Y-118038523D01*
X137318809Y-118133761D01*
X137175952Y-118181380D01*
X137080714Y-118181380D01*
X138366428Y-117514714D02*
X138366428Y-118181380D01*
X138128333Y-117133761D02*
X137890238Y-117848047D01*
X138509285Y-117848047D01*
%TO.C,J1*%
X144446666Y-89368380D02*
X144446666Y-90082666D01*
X144399047Y-90225523D01*
X144303809Y-90320761D01*
X144160952Y-90368380D01*
X144065714Y-90368380D01*
X145446666Y-90368380D02*
X144875238Y-90368380D01*
X145160952Y-90368380D02*
X145160952Y-89368380D01*
X145065714Y-89511238D01*
X144970476Y-89606476D01*
X144875238Y-89654095D01*
D13*
%TO.C,J8*%
X167700000Y-89226000D02*
X167700000Y-114746000D01*
X162500000Y-91826000D02*
X165100000Y-91826000D01*
X165100000Y-91826000D02*
X165100000Y-89226000D01*
X165100000Y-89226000D02*
X167700000Y-89226000D01*
X162500000Y-90556000D02*
X162500000Y-89226000D01*
X162500000Y-91826000D02*
X162500000Y-114746000D01*
X162500000Y-114746000D02*
X167700000Y-114746000D01*
X162500000Y-89226000D02*
X163830000Y-89226000D01*
%TO.C,J4*%
X139645000Y-118424000D02*
X139645000Y-117094000D01*
X142245000Y-118424000D02*
X142245000Y-115764000D01*
X165165000Y-118424000D02*
X165165000Y-115764000D01*
X142245000Y-115764000D02*
X165165000Y-115764000D01*
X140975000Y-118424000D02*
X139645000Y-118424000D01*
X142245000Y-118424000D02*
X165165000Y-118424000D01*
%TO.C,J1*%
X137095000Y-89226000D02*
X138425000Y-89226000D01*
X142295000Y-89226000D02*
X142295000Y-114746000D01*
X137095000Y-90556000D02*
X137095000Y-89226000D01*
X139695000Y-89226000D02*
X142295000Y-89226000D01*
X137095000Y-91826000D02*
X137095000Y-114746000D01*
X137095000Y-114746000D02*
X142295000Y-114746000D01*
X137095000Y-91826000D02*
X139695000Y-91826000D01*
X139695000Y-91826000D02*
X139695000Y-89226000D01*
%TD*%
M02*
