M48
; DRILL file {KiCad (6.0.7)} date Thu Nov 10 23:08:26 2022
; FORMAT={-:-/ absolute / inch / decimal}
; #@! TF.CreationDate,2022-11-10T23:08:26-08:00
; #@! TF.GenerationSoftware,Kicad,Pcbnew,(6.0.7)
; #@! TF.FileFunction,Plated,1,2,PTH
FMAT,2
INCH
; #@! TA.AperFunction,Plated,PTH,ViaDrill
T1C0.0157
; #@! TA.AperFunction,Plated,PTH,ComponentDrill
T2C0.0394
%
G90
G05
T1
X5.6248Y-3.8152
X5.6498Y-3.7402
X5.65Y-3.94
X5.65Y-4.015
X5.65Y-4.215
X5.65Y-4.29
X5.65Y-4.3654
X5.65Y-4.4441
X5.6575Y-4.1325
X5.775Y-4.44
X5.78Y-3.44
X5.78Y-4.49
X6.275Y-3.44
X6.29Y-4.5
X6.35Y-3.65
T2
X5.4498Y-3.5652
X5.4498Y-3.6652
X5.4498Y-3.7652
X5.4498Y-3.8652
X5.4498Y-3.9652
X5.4498Y-4.0652
X5.4498Y-4.1652
X5.4498Y-4.2652
X5.4498Y-4.3652
X5.4498Y-4.4652
X5.5498Y-3.5652
X5.5498Y-3.6652
X5.5498Y-3.7652
X5.5498Y-3.8652
X5.5498Y-3.9652
X5.5498Y-4.0652
X5.5498Y-4.1652
X5.5498Y-4.2652
X5.5498Y-4.3652
X5.5498Y-4.4652
X5.5502Y-4.61
X5.6502Y-4.61
X5.7502Y-4.61
X5.8502Y-4.61
X5.9502Y-4.61
X6.0502Y-4.61
X6.1502Y-4.61
X6.2502Y-4.61
X6.3502Y-4.61
X6.45Y-3.5652
X6.45Y-3.6652
X6.45Y-3.7652
X6.45Y-3.8652
X6.45Y-3.9652
X6.45Y-4.0652
X6.45Y-4.1652
X6.45Y-4.2652
X6.45Y-4.3652
X6.45Y-4.4652
X6.4502Y-4.61
X6.55Y-3.5652
X6.55Y-3.6652
X6.55Y-3.7652
X6.55Y-3.8652
X6.55Y-3.9652
X6.55Y-4.0652
X6.55Y-4.1652
X6.55Y-4.2652
X6.55Y-4.3652
X6.55Y-4.4652
T0
M30
